<svg width="312" height="150" viewBox="0 0 312 150" fill="none" xmlns="http://www.w3.org/2000/svg">
					<rect width="312" height="150" fill="white" />
					<path d="M58.3771 73.5936H65.3184V78.4818H58.3771V92.6089H53V58.3911H67.2249V63.2793H58.3771V73.5936Z"
						fill="black" />
					<path d="M89.3565 58.3911H94.7336V87.7207H103.581V92.6089H89.3565V58.3911Z" fill="black" />
					<path
						d="M142.877 92.6089H137.451L136.522 86.4008H129.923L128.994 92.6089H124.057L129.532 58.3911H137.402L142.877 92.6089ZM130.607 81.757H135.789L133.198 64.4525L130.607 81.757Z"
						fill="black" />
					<path
						d="M180.527 79.8506V84.3966C180.527 87.1667 179.843 89.3012 178.474 90.8003C177.138 92.2668 175.15 93 172.511 93C169.871 93 167.867 92.2668 166.498 90.8003C165.162 89.3012 164.494 87.1667 164.494 84.3966V66.6034C164.494 63.8333 165.162 61.7151 166.498 60.2486C167.867 58.7495 169.871 58 172.511 58C175.15 58 177.138 58.7495 178.474 60.2486C179.843 61.7151 180.527 63.8333 180.527 66.6034V69.9274H175.443V66.2612C175.443 65.0228 175.183 64.1592 174.661 63.6704C174.173 63.149 173.504 62.8883 172.657 62.8883C171.81 62.8883 171.126 63.149 170.604 63.6704C170.115 64.1592 169.871 65.0228 169.871 66.2612V84.7388C169.871 85.9772 170.115 86.8408 170.604 87.3296C171.126 87.8184 171.81 88.0628 172.657 88.0628C173.504 88.0628 174.173 87.8184 174.661 87.3296C175.183 86.8408 175.443 85.9772 175.443 84.7388V79.8506H180.527Z"
						fill="black" />
					<path
						d="M208.28 84.7388C208.28 85.9772 208.524 86.8571 209.013 87.3785C209.535 87.8673 210.219 88.1117 211.066 88.1117C211.914 88.1117 212.582 87.8673 213.071 87.3785C213.592 86.8571 213.853 85.9772 213.853 84.7388V66.2612C213.853 65.0228 213.592 64.1592 213.071 63.6704C212.582 63.149 211.914 62.8883 211.066 62.8883C210.219 62.8883 209.535 63.149 209.013 63.6704C208.524 64.1592 208.28 65.0228 208.28 66.2612V84.7388ZM202.903 66.6034C202.903 63.8333 203.604 61.7151 205.005 60.2486C206.406 58.7495 208.427 58 211.066 58C213.706 58 215.726 58.7495 217.128 60.2486C218.529 61.7151 219.23 63.8333 219.23 66.6034V84.3966C219.23 87.1667 218.529 89.3012 217.128 90.8003C215.726 92.2668 213.706 93 211.066 93C208.427 93 206.406 92.2668 205.005 90.8003C203.604 89.3012 202.903 87.1667 202.903 84.3966V66.6034Z"
						fill="black" />
					<path
						d="M247.068 67.8254V92.6089H242.228V58.3911H248.974L254.498 78.8729V58.3911H259.288V92.6089H253.765L247.068 67.8254Z"
						fill="black" />
				</svg>