<svg width="312" height="150" viewBox="0 0 312 150" fill="none" xmlns="http://www.w3.org/2000/svg">
					<rect width="312" height="150" fill="white" />
					<g clip-path="url(#clip0_175_2003)">
						<path fill-rule="evenodd" clip-rule="evenodd"
							d="M134 93V58.0489H145.932C154.338 58.0489 159.121 61.8128 159.121 69.1941V69.3897C159.121 76.771 154.048 80.2905 146.174 80.2905H141.778V93H134ZM141.778 74.7668H145.739C149.556 74.7668 151.585 72.9092 151.585 69.4385V69.243C151.585 65.5279 149.459 64.0615 145.739 64.0615H141.778V74.7668ZM189.845 82.1969C189.845 89.0405 185.449 93 176.899 93H164.242V58.0489H186.754V64.2081H172.019L171.971 71.5405H177.14C185.111 71.5405 189.845 75.0112 189.845 82.0014V82.1969ZM171.971 86.9874H176.609C180.425 86.9874 182.357 85.3254 182.357 82.148V81.9525C182.357 78.824 180.425 77.1131 176.415 77.1131H171.971V86.9874ZM195.111 93V58.0489H202.937V73.1047L215.014 58H223.324L209.652 74.5712L224 93H214.87L202.937 77.3087V93H195.111Z"
							fill="black" />
						<path fill-rule="evenodd" clip-rule="evenodd" d="M121.274 58.0918H89.0918V90.2736L121.274 58.0918Z"
							fill="#92CFAE" />
						<path fill-rule="evenodd" clip-rule="evenodd" d="M91.7734 92.9553H123.955V60.7734L91.7734 92.9553Z"
							fill="#2A8288" />
					</g>
					<defs>
						<clipPath id="clip0_175_2003">
							<rect width="135" height="35" fill="white" transform="translate(89 58)" />
						</clipPath>
					</defs>
				</svg>