<svg width="312" height="150" viewBox="0 0 312 150" fill="none" xmlns="http://www.w3.org/2000/svg">
					<rect width="312" height="150" fill="white" />
					<g clip-path="url(#clip0_175_2016)">
						<path fill-rule="evenodd" clip-rule="evenodd"
							d="M177.491 62.002L167.32 88.61H163.175L173.345 62.002H177.492H177.491ZM149.523 75.041C149.523 72.976 151.02 70.812 153.639 70.812C156.259 70.812 157.694 72.694 157.694 75.041C157.694 77.388 156.291 79.269 153.639 79.269C150.987 79.269 149.523 77.106 149.523 75.041ZM149.581 69.624V68.132H145.709V88.6H149.722V80.645C150.177 81.11 151.775 82.333 154.142 82.333C157.854 82.333 161.269 79.668 161.269 75.041C161.269 70.201 157.51 67.804 154.142 67.804C151.58 67.804 150.036 69.146 149.581 69.624ZM132.871 73.518C132.983 72.586 133.972 70.711 136.411 70.711C139.126 70.711 139.566 72.753 139.631 73.518H132.871ZM128.874 75.097C128.874 79.227 131.959 82.333 136.552 82.333C141.145 82.333 143.104 79.2 143.104 79.2L140.178 77.308C140.178 77.308 139.179 79.268 136.58 79.268C133.903 79.268 132.826 77.073 132.826 76.235H143.433C143.433 76.235 143.491 75.629 143.491 75.452V74.985C143.491 70.893 140.899 67.804 136.411 67.804C131.922 67.804 128.874 70.966 128.874 75.097ZM123.339 68.132L128.641 82.005H124.335L121.255 73.157H121.2L118.13 82.005H113.838L119.141 68.132H123.338H123.339ZM102.327 75.25C102.327 73.266 103.47 71.535 106.107 71.535C108.742 71.535 109.686 73.785 109.686 75.389C109.686 76.994 108.717 79.269 106.076 79.269C103.436 79.269 102.327 77.233 102.327 75.249V75.25ZM102.727 69.316C102.833 68.847 103.251 65.132 108.473 65.132H111.699L112.895 62.003H108.528C102.771 62.003 98.398 64.549 98.398 73.503C98.398 78.418 100.585 82.334 105.963 82.334C111.077 82.334 113.586 78.748 113.586 75.261C113.586 70.21 109.701 68.133 106.433 68.133C105.106 68.1413 103.813 68.554 102.726 69.316H102.727ZM92.459 68.133H95.888V82.006H91.874V73.879L87.984 78.763H86.896L86.806 78.653L82.975 73.946V82.006H78.959V68.132H82.391L82.479 68.236L87.464 73.987L92.459 68.132V68.133ZM71.914 76.223C71.914 78.12 70.811 79.427 68.675 79.427C66.61 79.427 66.435 78.261 66.435 77.817C66.435 76.791 67.404 76.107 69.712 75.905C70.3532 75.8494 70.9964 75.8217 71.64 75.822H71.914V76.222V76.223ZM75.672 74.713C75.672 74.433 75.668 74.165 75.656 73.905C75.46 69.585 73.556 67.805 69.446 67.805C66.663 67.805 64.853 68.895 64.216 69.339L65.3 72.173C65.3 72.173 66.992 70.791 69.13 70.791C72.155 70.791 71.856 73.19 71.856 73.19C70.821 73.199 62.59 72.788 62.59 77.927C62.59 80.777 65.04 82.334 67.791 82.334C70.238 82.334 71.554 81.154 71.988 80.695C71.99 80.758 72.074 82.005 72.074 82.005H75.814C75.814 82.005 75.672 80.802 75.672 78.917V74.713ZM52.157 71.633V65.355H54.207C55.664 65.355 58.015 66.211 58.015 68.507C58.015 70.822 55.664 71.632 54.15 71.632H52.157V71.633ZM254.094 70.378L256.279 71.07C256.279 71.07 253.657 77.478 253.434 78.17C253.255 78.586 256.458 76.055 258.778 72.362C259.536 71.162 259.625 71.116 259.625 71.116L261.678 71.762C261.498 72.132 258.733 76.378 258.51 78.963C258.332 81.086 260.339 80.763 260.339 80.763L261.231 78.64L263.551 79.425C263.061 80.44 262.123 82.148 259.358 82.148C256.814 82.148 256.279 80.763 256.413 79.24C256.503 78.132 256.949 77.117 256.949 77.117C255.521 78.917 252.638 80.694 251.933 80.571C250.943 80.398 250.613 79.701 250.613 79.701L250.963 78.764L254.093 70.378H254.094ZM54.494 62.002C58.649 62.002 62.202 64.205 62.202 68.492C62.202 72.78 58.649 74.952 54.407 74.952H52.157V82.005H48V62.002H54.494ZM188.207 70.007C188.792 70.007 190.055 70.571 190.055 72.889C190.055 73.625 189.989 73.999 189.796 74.673C190.282 74.635 190.759 74.61 191.217 74.594L192.383 71.049L194.396 71.833L193.441 74.582C193.844 74.591 194.203 74.604 194.502 74.619C195.643 71.637 198.338 70.152 200.418 70.152C202.73 70.152 201.256 73.142 201.103 73.442L201.09 73.465L199.454 72.997C199.454 72.997 200.081 71.76 200.063 71.764C197.871 72.246 195.768 75.998 196.576 79.015L198.844 76.894L200.323 78.461C200.323 78.461 198.381 80.885 195.973 80.885C195.468 80.885 193.833 80.098 193.963 77.272C193.98 76.929 194.015 76.599 194.065 76.281C193.741 76.274 193.328 76.271 192.855 76.271L191.504 80.158L189.616 79.465L190.652 76.315C190.174 76.335 189.683 76.361 189.192 76.397C187.862 79.451 185.62 80.874 183.947 80.874C181.531 80.874 181.344 77.971 183.494 76.374C184.533 75.602 186.247 75.124 187.31 74.916C187.822 73.428 188.174 71.991 187.745 71.743C187.413 71.551 186.07 74.11 186.07 74.11L184.164 73.533C185.229 70.849 186.731 70.007 188.207 70.007ZM228.614 70.061C229.759 70.061 230.06 70.571 229.968 71.391C229.798 72.901 228.766 74.122 228.766 74.122L227.079 73.575C227.079 73.575 228.4 71.528 228.38 71.53C225.741 71.801 222.926 75.764 224.088 79.059L226.919 77.336L227.584 78.349C227.584 78.349 225.749 80.795 223.598 80.795C223.061 80.795 221.38 80.256 221.38 77.687C221.38 73.165 224.728 70.061 228.614 70.061ZM208.12 70.046C210.617 70.046 210.53 72.5 209.464 73.939C208.095 75.789 205.89 76.73 203.906 76.73C203.712 77.283 203.652 78.43 204.013 79.059L208.292 77.382L208.803 78.556C207.939 79.16 205.588 80.796 203.523 80.796C202.76 80.796 201.468 80.213 201.473 78.032C201.481 72.955 205.328 70.046 208.12 70.046ZM242.944 70.423L245.13 71.161C245.13 71.161 242.409 77.67 242.052 78.361C241.874 78.685 245.71 76.654 248.03 72.223L248.655 71.115L250.662 71.761L247.571 78.654L249.413 77.9L250.038 78.87C250.038 78.87 249.752 79.107 248.705 79.805C247.819 80.395 246.889 80.744 246.889 80.744L245.194 79.59C245.194 79.59 246.388 76.808 246.3 76.9C245.541 77.916 242.39 80.57 241.428 80.624C239.504 80.731 239.643 79.054 239.955 78.27L242.945 70.423H242.944ZM212.839 70.331L214.981 71.115L213.633 74.788C213.633 74.788 214.145 75.089 215.181 75.075C216.237 75.06 216.981 74.635 216.981 74.635L218.515 70.735L220.657 71.473L217.89 78.4L219.719 77.616L220.299 78.446C220.299 78.446 220.022 78.777 218.862 79.562C217.792 80.301 217.077 80.67 217.077 80.67L215.337 79.516L216.424 76.515C216.424 76.515 215.924 76.785 214.804 76.867C213.923 76.931 212.928 76.654 212.928 76.654L211.501 80.67L209.494 79.977L212.839 70.331ZM232.301 70.33L234.442 71.115L233.389 74.005L238.093 70.522L239.707 71.098L238.073 75.38L236.427 74.9L237.07 73.366L234.087 75.51L236.269 78.516L238.554 77.612L239.076 78.846C239.076 78.846 237.837 79.8 237 80.372C236.109 80.982 235.22 80.572 234.71 79.91C233.93 78.899 232.893 77.444 232.394 76.738L230.962 80.67L228.955 79.977L232.301 70.33ZM186.944 76.695C185.662 77.078 184.041 78.091 184.337 79.225C184.337 79.225 186.407 78.537 186.944 76.695ZM208.173 72.639C208.47 71.783 207.911 71.606 207.218 71.909C206.244 72.337 205.128 73.47 204.468 74.984C206.125 74.684 207.721 73.94 208.173 72.639ZM256.77 65.437L259.402 66.315L258.599 67.884L262.436 66.591L263.06 67.561C262.748 68.115 260.428 69.315 258.465 69.315C256.993 69.315 256.101 68.53 256.19 67.284C256.28 66.176 256.77 65.437 256.77 65.437Z"
							fill="#C60D8B" />
					</g>
					<g clip-path="url(#clip1_175_2016)">
						<path fill-rule="evenodd" clip-rule="evenodd"
							d="M177.491 62.002L167.32 88.61H163.175L173.345 62.002H177.492H177.491ZM149.523 75.041C149.523 72.976 151.02 70.812 153.639 70.812C156.259 70.812 157.694 72.694 157.694 75.041C157.694 77.388 156.291 79.269 153.639 79.269C150.987 79.269 149.523 77.106 149.523 75.041ZM149.581 69.624V68.132H145.709V88.6H149.722V80.645C150.177 81.11 151.775 82.333 154.142 82.333C157.854 82.333 161.269 79.668 161.269 75.041C161.269 70.201 157.51 67.804 154.142 67.804C151.58 67.804 150.036 69.146 149.581 69.624ZM132.871 73.518C132.983 72.586 133.972 70.711 136.411 70.711C139.126 70.711 139.566 72.753 139.631 73.518H132.871ZM128.874 75.097C128.874 79.227 131.959 82.333 136.552 82.333C141.145 82.333 143.104 79.2 143.104 79.2L140.178 77.308C140.178 77.308 139.179 79.268 136.58 79.268C133.903 79.268 132.826 77.073 132.826 76.235H143.433C143.433 76.235 143.491 75.629 143.491 75.452V74.985C143.491 70.893 140.899 67.804 136.411 67.804C131.922 67.804 128.874 70.966 128.874 75.097ZM123.339 68.132L128.641 82.005H124.335L121.255 73.157H121.201L118.131 82.005H113.839L119.142 68.132H123.339ZM102.327 75.249C102.327 73.265 103.47 71.534 106.107 71.534C108.742 71.534 109.686 73.784 109.686 75.388C109.686 76.993 108.717 79.268 106.076 79.268C103.436 79.268 102.327 77.232 102.327 75.248V75.249ZM102.727 69.315C102.833 68.846 103.251 65.131 108.473 65.131H111.699L112.895 62.002H108.528C102.771 62.002 98.398 64.548 98.398 73.502C98.398 78.417 100.585 82.333 105.963 82.333C111.077 82.333 113.586 78.747 113.586 75.26C113.586 70.209 109.701 68.132 106.433 68.132C105.106 68.1403 103.813 68.553 102.726 69.315H102.727ZM92.459 68.132H95.888V82.005H91.874V73.878L87.984 78.762H86.896L86.806 78.652L82.975 73.945V82.005H78.959V68.132H82.391L82.479 68.236L87.464 73.987L92.459 68.132ZM71.914 76.222C71.914 78.119 70.811 79.426 68.675 79.426C66.61 79.426 66.435 78.26 66.435 77.816C66.435 76.79 67.404 76.106 69.712 75.904C70.3532 75.8484 70.9964 75.8207 71.64 75.821H71.914V76.221V76.222ZM75.672 74.712C75.672 74.432 75.668 74.164 75.656 73.904C75.46 69.584 73.556 67.804 69.446 67.804C66.663 67.804 64.853 68.894 64.216 69.338L65.3 72.172C65.3 72.172 66.992 70.79 69.13 70.79C72.155 70.79 71.856 73.189 71.856 73.189C70.821 73.198 62.59 72.787 62.59 77.926C62.59 80.776 65.04 82.333 67.791 82.333C70.238 82.333 71.554 81.153 71.988 80.694C71.99 80.757 72.074 82.004 72.074 82.004H75.814C75.814 82.004 75.672 80.801 75.672 78.916V74.712ZM52.157 71.632V65.354H54.207C55.664 65.354 58.015 66.21 58.015 68.506C58.015 70.821 55.664 71.631 54.15 71.631H52.157V71.632ZM254.094 70.377L256.279 71.069C256.279 71.069 253.657 77.477 253.434 78.169C253.255 78.585 256.458 76.054 258.778 72.361C259.536 71.161 259.625 71.115 259.625 71.115L261.678 71.761C261.498 72.131 258.733 76.377 258.51 78.962C258.332 81.085 260.339 80.762 260.339 80.762L261.231 78.639L263.551 79.424C263.061 80.439 262.123 82.147 259.358 82.147C256.814 82.147 256.279 80.762 256.413 79.239C256.503 78.131 256.949 77.116 256.949 77.116C255.521 78.916 252.638 80.693 251.933 80.57C250.943 80.397 250.613 79.7 250.613 79.7L250.963 78.763L254.093 70.377H254.094ZM54.494 62.002C58.649 62.002 62.202 64.205 62.202 68.492C62.202 72.78 58.649 74.952 54.407 74.952H52.157V82.005H48V62.002H54.494ZM188.207 70.007C188.792 70.007 190.055 70.571 190.055 72.889C190.055 73.625 189.989 73.999 189.796 74.673C190.282 74.635 190.759 74.61 191.217 74.594L192.383 71.049L194.396 71.833L193.441 74.582C193.844 74.591 194.203 74.604 194.502 74.619C195.643 71.637 198.338 70.152 200.418 70.152C202.73 70.152 201.256 73.142 201.103 73.442L201.09 73.465L199.454 72.997C199.454 72.997 200.081 71.76 200.063 71.764C197.871 72.246 195.768 75.998 196.576 79.015L198.844 76.894L200.323 78.461C200.323 78.461 198.381 80.885 195.973 80.885C195.468 80.885 193.833 80.098 193.963 77.272C193.98 76.929 194.015 76.599 194.065 76.281C193.741 76.274 193.328 76.271 192.855 76.271L191.504 80.158L189.616 79.465L190.652 76.315C190.174 76.335 189.683 76.361 189.192 76.397C187.862 79.451 185.62 80.874 183.947 80.874C181.531 80.874 181.344 77.971 183.494 76.374C184.533 75.602 186.247 75.124 187.31 74.916C187.822 73.428 188.174 71.991 187.745 71.743C187.413 71.551 186.07 74.11 186.07 74.11L184.164 73.533C185.229 70.849 186.731 70.007 188.207 70.007ZM228.614 70.061C229.759 70.061 230.06 70.571 229.968 71.391C229.798 72.901 228.766 74.122 228.766 74.122L227.079 73.575C227.079 73.575 228.4 71.528 228.38 71.53C225.741 71.801 222.926 75.764 224.088 79.059L226.919 77.336L227.584 78.349C227.584 78.349 225.749 80.795 223.598 80.795C223.061 80.795 221.38 80.256 221.38 77.687C221.38 73.165 224.728 70.061 228.614 70.061ZM208.12 70.046C210.617 70.046 210.53 72.5 209.464 73.939C208.095 75.789 205.89 76.73 203.906 76.73C203.712 77.283 203.652 78.43 204.013 79.059L208.292 77.382L208.803 78.556C207.939 79.16 205.588 80.796 203.523 80.796C202.76 80.796 201.468 80.213 201.473 78.032C201.481 72.955 205.328 70.046 208.12 70.046ZM242.944 70.423L245.13 71.161C245.13 71.161 242.409 77.67 242.052 78.361C241.874 78.685 245.71 76.654 248.03 72.223L248.655 71.115L250.662 71.761L247.571 78.654L249.413 77.9L250.038 78.87C250.038 78.87 249.752 79.107 248.705 79.805C247.819 80.395 246.889 80.744 246.889 80.744L245.194 79.59C245.194 79.59 246.388 76.808 246.3 76.9C245.541 77.916 242.39 80.57 241.428 80.624C239.504 80.731 239.643 79.054 239.955 78.27L242.945 70.423H242.944ZM212.839 70.331L214.981 71.115L213.633 74.788C213.633 74.788 214.145 75.089 215.181 75.075C216.237 75.06 216.981 74.635 216.981 74.635L218.515 70.735L220.657 71.473L217.89 78.4L219.719 77.616L220.299 78.446C220.299 78.446 220.022 78.777 218.862 79.562C217.792 80.301 217.077 80.67 217.077 80.67L215.337 79.516L216.424 76.515C216.424 76.515 215.924 76.785 214.804 76.867C213.923 76.931 212.928 76.654 212.928 76.654L211.501 80.67L209.494 79.977L212.839 70.331ZM232.301 70.33L234.442 71.115L233.389 74.005L238.093 70.522L239.707 71.098L238.073 75.38L236.427 74.9L237.07 73.366L234.087 75.51L236.269 78.516L238.554 77.612L239.076 78.846C239.076 78.846 237.837 79.8 237 80.372C236.109 80.982 235.22 80.572 234.71 79.91C233.93 78.899 232.893 77.444 232.394 76.738L230.962 80.67L228.955 79.977L232.3 70.33H232.301ZM186.944 76.695C185.662 77.078 184.041 78.091 184.337 79.225C184.337 79.225 186.407 78.537 186.944 76.695ZM208.173 72.639C208.47 71.783 207.911 71.606 207.218 71.909C206.244 72.337 205.128 73.47 204.468 74.984C206.125 74.684 207.721 73.94 208.173 72.639ZM256.77 65.437L259.402 66.315L258.599 67.884L262.436 66.591L263.06 67.561C262.748 68.115 260.428 69.315 258.465 69.315C256.993 69.315 256.101 68.53 256.19 67.284C256.28 66.176 256.77 65.437 256.77 65.437Z"
							fill="#C60D8B" />
					</g>
					<defs>
						<clipPath id="clip0_175_2016">
							<rect width="130" height="40" fill="white" transform="translate(48 55)" />
						</clipPath>
						<clipPath id="clip1_175_2016">
							<rect width="86" height="40" fill="white" transform="translate(178 55)" />
						</clipPath>
					</defs>
				</svg>