<svg width="312" height="150" viewBox="0 0 312 150" fill="none" xmlns="http://www.w3.org/2000/svg">
					<rect width="312" height="150" fill="white" />
					<g clip-path="url(#clip0_175_2011)">
						<path
							d="M217.508 92.4351L211.254 71.0994C213.171 70.4897 215.083 69.3397 216.072 67.7812C217.241 65.9402 217.429 63.193 215.351 61.4597C213.418 59.8463 210.113 59.9133 208.642 59.9133H201.119V60.4762H202.574V92.4351H201.138V93H208.658V92.4351H207.222V60.4762H208.642C212.928 60.4925 214.387 65.8528 212.278 68.7382C210.521 71.1421 207.293 71.6521 207.293 71.6521L212.91 92.4351H211.397V93H218.99V92.4351H217.508ZM189.924 59.9072H179.777V60.4721H181.216V92.4331H179.777V93H191.001V86.0588H190.429V92.4331H185.867V72.3653H188.467V76.3744H189.039V67.7995H188.467V71.7984H185.867V60.4721H190.429V66.8464H191.001V59.9072H189.924ZM158.634 59.9072V60.4721H160.066V92.4331H158.632V93H169.856V86.0588H169.285V92.4331H164.718V60.4721H166.154V59.9072H158.634ZM135.184 59.9072V66.8464H135.754V60.4945H138.982V92.4331H137.548V93H145.068V92.4331H143.634V60.4945H146.864V66.8464H147.434V59.9072H135.184ZM117.915 72.1499L119.322 80.5399H116.417L117.915 72.1499ZM113.735 92.4331H112.288V93H115.812V92.4351H114.305L116.306 81.1088H119.417L121.317 92.4331H119.757V93H127.278V92.4331H125.963L119.917 58.875H119.643L113.735 92.4331ZM93 59.9072V66.8464H93.5704V60.4945H96.8002V92.4331H95.3638V93H102.884V92.4331H101.45V60.4945H104.68V66.8464H105.25V59.9072H93Z"
							fill="black" />
					</g>
					<defs>
						<clipPath id="clip0_175_2011">
							<rect width="126" height="35" fill="white" transform="translate(93 58)" />
						</clipPath>
					</defs>
				</svg>