<svg width="16" height="16" viewBox="0 0 16 16" fill="none" xmlns="http://www.w3.org/2000/svg">
				<path
					d="M1.1936 1.1936C1.45145 0.935824 1.80112 0.791016 2.16572 0.791016C2.53032 0.791016 2.88 0.935824 3.13785 1.1936L7.99985 6.0556L12.8618 1.1936C13.1212 0.94313 13.4685 0.804537 13.829 0.80767C14.1895 0.810803 14.5344 0.95541 14.7893 1.21035C15.0443 1.46528 15.1889 1.81015 15.192 2.17067C15.1952 2.53119 15.0566 2.87852 14.8061 3.13785L9.9441 7.99985L14.8061 12.8618C15.0566 13.1212 15.1952 13.4685 15.192 13.829C15.1889 14.1895 15.0443 14.5344 14.7893 14.7893C14.5344 15.0443 14.1895 15.1889 13.829 15.192C13.4685 15.1952 13.1212 15.0566 12.8618 14.8061L7.99985 9.9441L3.13785 14.8061C2.87852 15.0566 2.53119 15.1952 2.17067 15.192C1.81015 15.1889 1.46528 15.0443 1.21035 14.7893C0.95541 14.5344 0.810803 14.1895 0.80767 13.829C0.804537 13.4685 0.94313 13.1212 1.1936 12.8618L6.0556 7.99985L1.1936 3.13785C0.935824 2.88 0.791016 2.53032 0.791016 2.16572C0.791016 1.80112 0.935824 1.45145 1.1936 1.1936Z"
					fill="#CA354F" />
			</svg>