<svg width="150" height="150" viewBox="0 0 150 150" fill="none" xmlns="http://www.w3.org/2000/svg">
<rect width="150" height="150" rx="75" fill="#F2F2F2"/>
<g clip-path="url(#clip0_219_7648)">
<path d="M103.125 56.25H93.75C93.75 51.2772 91.7746 46.5081 88.2583 42.9917C84.7419 39.4754 79.9728 37.5 75 37.5C70.0272 37.5 65.2581 39.4754 61.7417 42.9917C58.2254 46.5081 56.25 51.2772 56.25 56.25H46.875C44.3886 56.25 42.004 57.2377 40.2459 58.9959C38.4877 60.754 37.5 63.1386 37.5 65.625V96.875C37.505 101.017 39.1528 104.989 42.0819 107.918C45.0111 110.847 48.9825 112.495 53.125 112.5H96.875C101.017 112.495 104.989 110.847 107.918 107.918C110.847 104.989 112.495 101.017 112.5 96.875V65.625C112.5 63.1386 111.512 60.754 109.754 58.9959C107.996 57.2377 105.611 56.25 103.125 56.25ZM75 43.75C78.3152 43.75 81.4946 45.067 83.8388 47.4112C86.183 49.7554 87.5 52.9348 87.5 56.25H62.5C62.5 52.9348 63.817 49.7554 66.1612 47.4112C68.5054 45.067 71.6848 43.75 75 43.75ZM106.25 96.875C106.25 99.3614 105.262 101.746 103.504 103.504C101.746 105.262 99.3614 106.25 96.875 106.25H53.125C50.6386 106.25 48.254 105.262 46.4959 103.504C44.7377 101.746 43.75 99.3614 43.75 96.875V65.625C43.75 64.7962 44.0792 64.0013 44.6653 63.4153C45.2513 62.8292 46.0462 62.5 46.875 62.5H56.25V68.75C56.25 69.5788 56.5792 70.3737 57.1653 70.9597C57.7513 71.5458 58.5462 71.875 59.375 71.875C60.2038 71.875 60.9987 71.5458 61.5847 70.9597C62.1708 70.3737 62.5 69.5788 62.5 68.75V62.5H87.5V68.75C87.5 69.5788 87.8292 70.3737 88.4153 70.9597C89.0013 71.5458 89.7962 71.875 90.625 71.875C91.4538 71.875 92.2487 71.5458 92.8347 70.9597C93.4208 70.3737 93.75 69.5788 93.75 68.75V62.5H103.125C103.954 62.5 104.749 62.8292 105.335 63.4153C105.921 64.0013 106.25 64.7962 106.25 65.625V96.875Z" fill="black"/>
</g>
<defs>
<clipPath id="clip0_219_7648">
<rect width="75" height="75" fill="white" transform="translate(37.5 37.5)"/>
</clipPath>
</defs>
</svg>
