<svg width="50" height="72" viewBox="0 0 50 70" fill="none" xmlns="http://www.w3.org/2000/svg">
					<mask id="path-1-outside-1_175_2439" maskUnits="userSpaceOnUse" x="-1" y="-1" width="52" height="72"
						fill="black">
						<rect fill="white" x="-1" y="-1" width="52" height="72" />
						<path d="M9.2 30L27.7 15.5H32.8V70H49.4V0.599999H21.9L0.4 17.3L9.2 30Z" />
					</mask>
					<path
						d="M9.2 30L8.37804 30.5695L8.98211 31.4413L9.81688 30.7871L9.2 30ZM27.7 15.5V14.5H27.3548L27.0831 14.7129L27.7 15.5ZM32.8 15.5H33.8V14.5H32.8V15.5ZM32.8 70H31.8V71H32.8V70ZM49.4 70V71H50.4V70H49.4ZM49.4 0.599999H50.4V-0.400001H49.4V0.599999ZM21.9 0.599999V-0.400001H21.5573L21.2866 -0.189748L21.9 0.599999ZM0.4 17.3L-0.213432 16.5103L-0.961311 17.0912L-0.421959 17.8695L0.4 17.3ZM9.81688 30.7871L28.3169 16.2871L27.0831 14.7129L8.58312 29.2129L9.81688 30.7871ZM27.7 16.5H32.8V14.5H27.7V16.5ZM31.8 15.5V70H33.8V15.5H31.8ZM32.8 71H49.4V69H32.8V71ZM50.4 70V0.599999H48.4V70H50.4ZM49.4 -0.400001H21.9V1.6H49.4V-0.400001ZM21.2866 -0.189748L-0.213432 16.5103L1.01343 18.0897L22.5134 1.38975L21.2866 -0.189748ZM-0.421959 17.8695L8.37804 30.5695L10.022 29.4305L1.22196 16.7305L-0.421959 17.8695Z"
						fill="#CA354F" mask="url(#path-1-outside-1_175_2439)" />
				</svg>