<svg width="79" height="75" viewBox="0 0 76 70" fill="none" xmlns="http://www.w3.org/2000/svg">
					<mask id="path-1-outside-1_175_2442" maskUnits="userSpaceOnUse" x="-1" y="-1" width="78" height="72"
						fill="black">
						<rect fill="white" x="-1" y="-1" width="78" height="72" />
						<path
							d="M75.6 23.6C75.6 5.9 69.9 0.599999 50.4 0.599999H25.4C3 0.599999 0.5 11.6 0.5 26.2H17.1C17.1 16.2 17.8 13.7 33.8 13.7H45.4C56.4 13.7 58.9 15.8 58.9 22.2C58.9 28.6 56.6 31.1 47.7 31.6L25.7 32.8C4.3 34 0.5 43.3 0.5 54.2V70H75.5V56.9H17.1V53.2C17.1 48.8 19.2 47.2 29.1 46.6L50.7 45.3C65.4 44.4 75.6 38.2 75.6 23.6Z" />
					</mask>
					<path
						d="M0.5 26.2H-0.5V27.2H0.5V26.2ZM17.1 26.2V27.2H18.1V26.2H17.1ZM47.7 31.6L47.7545 32.5985L47.7561 32.5984L47.7 31.6ZM25.7 32.8L25.6455 31.8015L25.644 31.8016L25.7 32.8ZM0.5 70H-0.5V71H0.5V70ZM75.5 70V71H76.5V70H75.5ZM75.5 56.9H76.5V55.9H75.5V56.9ZM17.1 56.9H16.1V57.9H17.1V56.9ZM29.1 46.6L29.0399 45.6018L29.0395 45.6018L29.1 46.6ZM50.7 45.3L50.7601 46.2982L50.7611 46.2981L50.7 45.3ZM76.6 23.6C76.6 14.7065 75.1838 8.56786 70.9879 4.72505C66.8211 0.908809 60.1665 -0.400001 50.4 -0.400001V1.6C60.1336 1.6 66.0789 2.94119 69.6371 6.19995C73.1662 9.43213 74.6 14.7934 74.6 23.6H76.6ZM50.4 -0.400001H25.4V1.6H50.4V-0.400001ZM25.4 -0.400001C14.0627 -0.400001 7.44911 2.38386 3.74948 7.3257C0.105119 12.1937 -0.5 18.9096 -0.5 26.2H1.5C1.5 18.8903 2.14488 12.8063 5.35052 8.5243C8.5009 4.31614 14.3373 1.6 25.4 1.6V-0.400001ZM0.5 27.2H17.1V25.2H0.5V27.2ZM18.1 26.2C18.1 23.6871 18.1465 21.7496 18.4414 20.217C18.7302 18.7155 19.2401 17.7013 20.1029 16.9574C20.9914 16.1915 22.3711 15.6101 24.607 15.2329C26.8378 14.8566 29.8139 14.7 33.8 14.7V12.7C29.7861 12.7 26.6747 12.8559 24.2743 13.2608C21.8789 13.6649 20.0836 14.3335 18.7971 15.4426C17.4849 16.5737 16.8198 18.0595 16.4774 19.8392C16.141 21.5879 16.1 23.7129 16.1 26.2H18.1ZM33.8 14.7H45.4V12.7H33.8V14.7ZM45.4 14.7C50.918 14.7 54.0027 15.2442 55.7227 16.3836C57.2918 17.4231 57.9 19.1001 57.9 22.2H59.9C59.9 18.8999 59.2582 16.3268 56.8273 14.7163C54.5473 13.2058 50.882 12.7 45.4 12.7V14.7ZM57.9 22.2C57.9 25.317 57.3321 27.1672 55.9762 28.3623C54.5618 29.6092 52.0683 30.353 47.6439 30.6016L47.7561 32.5984C52.2317 32.347 55.3382 31.5908 57.2988 29.8627C59.318 28.0828 59.9 25.483 59.9 22.2H57.9ZM47.6455 30.6015L25.6455 31.8015L25.7545 33.7985L47.7545 32.5985L47.6455 30.6015ZM25.644 31.8016C14.8313 32.4079 8.22686 35.0696 4.34805 39.1758C0.461087 43.2906 -0.5 48.6574 -0.5 54.2H1.5C1.5 48.8426 2.43891 44.1094 5.80195 40.5492C9.17314 36.9804 15.1687 34.3921 25.756 33.7984L25.644 31.8016ZM-0.5 54.2V70H1.5V54.2H-0.5ZM0.5 71H75.5V69H0.5V71ZM76.5 70V56.9H74.5V70H76.5ZM75.5 55.9H17.1V57.9H75.5V55.9ZM18.1 56.9V53.2H16.1V56.9H18.1ZM18.1 53.2C18.1 52.1677 18.2254 51.4035 18.4941 50.8086C18.7513 50.2394 19.1699 49.7584 19.8902 49.3394C21.421 48.4492 24.1909 47.8994 29.1605 47.5982L29.0395 45.6018C24.1091 45.9006 20.879 46.4508 18.8848 47.6106C17.8426 48.2166 17.1175 48.9981 16.6715 49.9851C16.2371 50.9465 16.1 52.0323 16.1 53.2H18.1ZM29.1601 47.5982L50.7601 46.2982L50.6399 44.3018L29.0399 45.6018L29.1601 47.5982ZM50.7611 46.2981C58.2139 45.8418 64.6719 44.0369 69.2848 40.3703C73.9431 36.6676 76.6 31.1613 76.6 23.6H74.6C74.6 30.6387 72.157 35.5324 68.0403 38.8047C63.8781 42.1131 57.8862 43.8582 50.6389 44.3019L50.7611 46.2981Z"
						fill="#CA354F" mask="url(#path-1-outside-1_175_2442)" />
				</svg>