<svg className="main-block__bg-svg" width="618" height="575" viewBox="0 0 618 575" fill="none"
				xmlns="http://www.w3.org/2000/svg">
				<path
					d="M47.9396 871C-7.11731 871 -58.1846 859.83 -101.592 837.171C-175.799 798.395 -224.792 727.066 -243.304 630.525C-263.092 526.803 -252.4 412.869 -212.983 309.466C-171.969 201.755 -101.911 113.192 -15.7349 60.0549C61.8235 12.1826 158.692 -8.08304 256.996 2.92743C354.822 13.9379 444.988 54.789 510.578 118.299C625.479 229.201 649.098 371.699 577.125 519.463C518.397 640.418 399.666 754.672 267.37 817.703C193.322 853.128 117.519 871 47.9396 871ZM204.812 21.4378C128.69 21.4378 55.7593 41.0651 -4.88313 78.4056C-87.2292 129.15 -154.255 214.042 -193.513 317.285C-231.335 416.858 -241.708 526.644 -222.717 626.376C-205.322 717.492 -161.437 781.959 -92.1763 818.022C-1.05309 865.575 133.318 857.915 258.433 798.235C386.58 737.119 501.481 626.536 558.453 509.729C606.169 411.752 634.256 266.86 496.215 133.777C433.817 73.6185 347.96 34.6823 254.603 24.1505C238.165 22.3952 221.409 21.4378 204.812 21.4378ZM44.5883 842.277C-4.40434 842.277 -49.8862 832.224 -88.5058 812.118C-154.255 777.81 -197.662 714.46 -214.1 629.248C-231.654 537.654 -222.398 436.804 -187.928 345.21C-178.033 319.04 -166.224 293.828 -152.659 270.052C-116.912 207.978 -68.7173 156.756 -13.3412 122.288C55.5997 79.2035 141.776 60.6931 229.069 69.9483C315.724 79.3631 395.676 115.267 453.925 171.277C507.865 223.137 539.143 282.179 547.282 346.806C554.464 403.933 543.293 464.41 514.248 526.324C462.383 636.748 356.418 739.991 237.687 795.682C172.576 826.639 105.869 842.277 44.5883 842.277ZM185.023 86.8629C116.721 86.8629 50.9717 104.735 -3.28726 138.724C-56.11 171.596 -102.071 220.425 -136.222 279.786C-149.308 302.445 -160.798 326.859 -170.214 352.072C-203.567 440.315 -212.663 537.335 -195.588 625.419C-180.108 705.843 -141.169 762.97 -79.8882 794.884C1.81946 837.649 117.678 831.267 230.027 778.129C343.173 724.992 448.18 622.865 497.492 517.867C538.665 430.422 562.124 301.647 441.158 185.319C385.782 132.181 309.819 98.033 227.154 89.097C213.111 87.6608 198.907 86.8629 185.023 86.8629ZM41.0775 813.235C-2.01056 813.235 -42.0665 804.458 -75.8986 786.746C-132.871 756.746 -170.692 701.854 -185.055 627.972C-200.535 548.505 -192.715 460.74 -162.873 380.795C-154.415 357.816 -144.042 335.636 -132.232 314.732C-101.273 260.158 -59.3017 214.999 -10.7878 184.361C49.5355 146.064 124.86 129.309 201.301 136.969C276.945 144.788 346.524 175.904 397.432 224.414C508.822 331.008 488.395 451.166 451.691 533.186C407.166 632.44 313.968 724.513 208.483 773.501C151.83 799.99 94.0598 813.235 41.0775 813.235ZM165.075 152.288C104.433 152.288 46.1842 168.404 -2.01059 198.883C-48.1308 228.084 -88.1867 271.009 -117.71 323.189C-129.041 343.136 -138.935 364.518 -147.074 386.699C-175.799 463.613 -183.3 548.026 -168.458 624.461C-154.894 694.035 -121.061 743.502 -68.0789 771.427C2.77698 808.607 103.635 803.661 201.62 758.023C303.755 710.63 393.761 621.748 436.53 526.165C471 449.251 490.31 336.593 386.101 237.02C337.906 191.064 271.678 161.543 199.705 154.202C188.056 152.926 176.565 152.288 165.075 152.288ZM37.5666 784.352C0.383209 784.352 -34.0872 776.693 -63.1318 761.374C-111.486 735.842 -143.563 689.247 -156.011 626.536C-169.256 559.196 -162.873 484.516 -137.818 416.379C-130.637 396.592 -122.019 377.444 -111.965 359.412C-85.7929 312.338 -50.0458 273.243 -8.55359 246.595C43.3116 212.925 107.944 197.925 173.374 204.148C237.687 210.212 297.052 236.382 340.779 277.552C414.826 348.082 431.423 438.879 388.814 540.207C351.631 628.451 271.2 709.513 178.8 751.64C131.084 773.342 82.4101 784.352 37.5666 784.352ZM144.808 217.712C92.1448 217.712 41.3966 232.074 -0.57431 259.201C-39.9919 284.573 -74.1432 321.913 -99.1981 366.752C-108.773 384.146 -117.231 402.496 -124.094 421.486C-148.191 487.07 -154.415 558.877 -141.648 623.504C-129.998 682.386 -101.273 724.353 -56.4292 748.13C3.57489 779.725 89.2722 775.895 172.895 737.917C260.667 697.864 340.14 618.078 375.409 534.303C415.943 437.921 400.942 355.263 330.884 288.562C289.552 249.467 233.218 224.893 172.097 218.989C163.001 218.191 153.904 217.712 144.808 217.712ZM34.2153 755.47C2.93658 755.47 -25.9484 749.087 -50.0458 736.162C-89.7825 714.939 -116.274 676.641 -126.806 625.099C-137.977 570.047 -132.871 508.612 -112.763 451.804C-106.858 435.049 -99.6768 418.932 -91.538 403.933C-70.1535 364.359 -40.4707 331.327 -6.00021 308.509C37.407 279.626 91.1873 266.222 145.606 270.849C198.907 275.318 248.06 296.381 284.286 330.37C345.407 387.656 359.45 460.421 326.097 546.909C296.254 624.302 228.59 694.194 149.436 729.3C110.338 746.853 70.6008 755.47 34.2153 755.47ZM124.7 282.977C80.0163 282.977 36.6091 295.583 0.861954 319.359C-32.0126 341.061 -60.0997 372.497 -80.5266 410.156C-88.3463 424.517 -95.2084 439.996 -100.794 456.113C-120.423 510.846 -125.211 569.888 -114.518 622.546C-104.784 670.737 -81.1649 705.205 -44.3007 724.832C4.85156 751.002 75.3883 748.289 144.489 717.651C219.494 684.301 286.201 615.525 314.447 542.441C345.566 461.379 332.64 393.401 275.828 340.104C241.676 308.189 195.077 288.243 144.648 283.934C137.946 283.296 131.243 282.977 124.7 282.977ZM30.864 726.747C5.64951 726.747 -17.8095 721.481 -37.1194 711.109C-68.7173 694.035 -89.1442 664.833 -97.7618 623.982C-106.699 581.217 -103.188 532.707 -87.7079 487.708C-83.0799 474.144 -77.4945 461.059 -71.2706 448.932C-54.6738 417.017 -31.3743 390.05 -3.60645 371.061C31.3427 346.965 74.4308 335.317 117.678 338.348C159.809 341.221 198.907 357.338 227.633 383.827C275.349 427.868 286.998 483.559 263.22 554.25C240.878 620.791 185.981 679.513 119.913 707.598C89.5914 720.204 59.1106 726.747 30.864 726.747ZM104.433 348.402C67.7282 348.402 31.8215 359.412 2.13864 379.837C-24.0334 397.869 -46.3753 423.56 -62.0147 453.879C-68.0789 465.527 -73.3452 477.974 -77.8136 491.059C-92.6551 534.303 -96.0063 580.738 -87.5483 621.589C-79.7287 659.248 -61.0572 686.056 -32.3318 701.534C5.96869 722.119 61.3448 720.523 115.763 697.386C179.119 670.418 231.782 614.089 253.326 550.42C275.508 484.197 264.816 432.177 220.611 391.486C193.641 366.593 156.777 351.433 117.04 348.721C112.731 348.561 108.582 348.402 104.433 348.402ZM27.6723 698.024C8.36249 698.024 -9.51109 694.035 -24.0334 686.056C-47.0137 673.45 -62.0147 652.067 -68.5577 622.546C-75.2603 591.909 -73.1857 556.484 -62.653 523.133C-59.3017 512.761 -55.4717 502.708 -51.0033 493.453C-39.194 469.038 -21.9588 448.134 -1.37225 432.975C24.9593 413.666 57.1956 403.773 89.5914 405.05C120.551 406.326 149.436 417.496 170.82 436.645C205.131 467.283 214.547 506.857 200.184 560.951C185.502 616.642 143.372 664.195 90.0702 685.258C69.0049 693.715 47.6205 698.024 27.6723 698.024ZM84.0059 413.666C55.2805 413.666 26.8744 422.922 3.57492 440.155C-16.0541 454.517 -32.3318 474.304 -43.5028 497.442C-47.8116 506.378 -51.6416 515.952 -54.6738 526.005C-64.8872 557.92 -66.8022 591.589 -60.4188 620.951C-54.5142 647.918 -40.9494 667.386 -20.0437 678.716C7.56454 693.715 47.6205 693.396 87.3572 677.599C138.105 657.493 178.321 612.015 192.364 559.037C205.77 508.452 197.152 471.751 165.554 443.506C145.606 425.634 118.636 415.262 89.4318 413.986C87.6764 413.667 85.7614 413.666 84.0059 413.666ZM24.7998 669.62C11.5542 669.62 -0.574326 666.748 -10.6282 661.163C-25.1505 653.025 -34.8852 639.62 -39.5132 621.27C-44.1411 602.281 -43.5028 580.738 -37.5981 558.877C-35.6831 551.696 -33.2893 544.835 -30.5764 538.292C-23.5546 521.378 -12.5432 506.537 1.18114 495.367C18.7355 480.846 40.2795 472.708 61.8236 472.389C81.7717 472.07 100.284 478.293 114.327 489.942C141.935 512.92 140.818 545.473 137.627 567.973C131.243 612.174 101.082 649.674 60.8661 663.397C48.4184 667.546 36.2899 669.62 24.7998 669.62ZM61.8236 478.612C41.7158 478.931 21.4485 486.591 5.0112 500.314C-7.91522 511.005 -18.2883 525.048 -24.8313 540.845C-27.3847 547.069 -29.6189 553.611 -31.5339 560.632C-37.1194 581.536 -37.7577 601.961 -33.4489 619.834C-29.2997 636.429 -20.6821 648.397 -7.59608 655.737C9.63913 665.312 33.8961 665.95 58.7914 657.333C96.7728 644.248 125.179 608.823 131.243 567.015C136.19 533.346 129.647 511.005 110.178 494.889C97.5707 484.038 80.3355 478.293 61.8236 478.612ZM22.5656 642.014C12.8308 642.014 4.05365 638.663 -2.17018 632.599C-8.23442 626.695 -15.0966 615.206 -12.3836 594.621C-11.9049 590.951 -11.1069 587.121 -10.1494 583.132C-4.56395 561.43 13.6288 543.399 33.8961 539.409C43.95 537.335 52.8868 539.09 60.0681 544.516C68.207 550.579 73.1541 561.111 74.75 574.834C78.8992 612.334 56.0785 636.589 31.3428 641.376C28.1511 641.855 25.2785 642.014 22.5656 642.014ZM-8.394 595.1C-10.309 610.1 -7.11731 621.908 0.702362 629.567C7.8837 636.589 18.8951 639.301 30.5448 637.067C60.7065 631.323 73.4733 601.642 70.6007 575.153C69.1645 562.547 64.6961 553.132 57.6743 547.867C51.4505 543.239 43.6308 541.803 34.6941 543.558C15.863 547.388 -0.893494 563.983 -6.15981 584.249C-7.2769 587.919 -8.07483 591.589 -8.394 595.1Z"
					fill="white" fill-opacity="0.1" />
			</svg>