<svg width="16" height="16" viewBox="0 0 16 16" fill="none" xmlns="http://www.w3.org/2000/svg">
  <g opacity="0.5">
    <path d="M14.0026 2.66667H11.9359C11.7812 1.91428 11.3718 1.23823 10.7768 0.752479C10.1817 0.266727 9.43741 0.000969683 8.66927 0L7.33594 0C6.5678 0.000969683 5.82348 0.266727 5.22844 0.752479C4.63339 1.23823 4.224 1.91428 4.06927 2.66667H2.0026C1.82579 2.66667 1.65622 2.7369 1.5312 2.86193C1.40618 2.98695 1.33594 3.15652 1.33594 3.33333C1.33594 3.51014 1.40618 3.67971 1.5312 3.80474C1.65622 3.92976 1.82579 4 2.0026 4H2.66927V12.6667C2.67033 13.5504 3.02186 14.3976 3.64675 15.0225C4.27164 15.6474 5.11887 15.9989 6.0026 16H10.0026C10.8863 15.9989 11.7336 15.6474 12.3585 15.0225C12.9834 14.3976 13.3349 13.5504 13.3359 12.6667V4H14.0026C14.1794 4 14.349 3.92976 14.474 3.80474C14.599 3.67971 14.6693 3.51014 14.6693 3.33333C14.6693 3.15652 14.599 2.98695 14.474 2.86193C14.349 2.7369 14.1794 2.66667 14.0026 2.66667ZM7.33594 1.33333H8.66927C9.08279 1.33384 9.48602 1.46225 9.82368 1.70096C10.1613 1.93967 10.4169 2.27699 10.5553 2.66667H5.44994C5.58833 2.27699 5.84387 1.93967 6.18153 1.70096C6.51919 1.46225 6.92242 1.33384 7.33594 1.33333ZM12.0026 12.6667C12.0026 13.1971 11.7919 13.7058 11.4168 14.0809C11.0417 14.456 10.533 14.6667 10.0026 14.6667H6.0026C5.47217 14.6667 4.96346 14.456 4.58839 14.0809C4.21332 13.7058 4.0026 13.1971 4.0026 12.6667V4H12.0026V12.6667Z" fill="black" />
    <path d="M6.66667 11.9993C6.84348 11.9993 7.01305 11.9291 7.13807 11.8041C7.26309 11.6791 7.33333 11.5095 7.33333 11.3327V7.33268C7.33333 7.15587 7.26309 6.9863 7.13807 6.86128C7.01305 6.73625 6.84348 6.66602 6.66667 6.66602C6.48985 6.66602 6.32029 6.73625 6.19526 6.86128C6.07024 6.9863 6 7.15587 6 7.33268V11.3327C6 11.5095 6.07024 11.6791 6.19526 11.8041C6.32029 11.9291 6.48985 11.9993 6.66667 11.9993Z" fill="black" />
    <path d="M9.33073 11.9993C9.50754 11.9993 9.67711 11.9291 9.80214 11.8041C9.92716 11.6791 9.9974 11.5095 9.9974 11.3327V7.33268C9.9974 7.15587 9.92716 6.9863 9.80214 6.86128C9.67711 6.73625 9.50754 6.66602 9.33073 6.66602C9.15392 6.66602 8.98435 6.73625 8.85933 6.86128C8.7343 6.9863 8.66406 7.15587 8.66406 7.33268V11.3327C8.66406 11.5095 8.7343 11.6791 8.85933 11.8041C8.98435 11.9291 9.15392 11.9993 9.33073 11.9993Z" fill="black" />
  </g>
</svg>