<svg width="20" height="20" viewBox="0 0 20 20" fill="none" xmlns="http://www.w3.org/2000/svg">
  <g opacity="0.25">
    <path d="M15.0018 4.99985C14.8455 4.84362 14.6336 4.75586 14.4126 4.75586C14.1917 4.75586 13.9797 4.84362 13.8235 4.99985L10.0018 8.82152L6.18013 4.99985C6.02386 4.84362 5.81194 4.75586 5.59097 4.75586C5.37 4.75586 5.15807 4.84362 5.0018 4.99985C4.84558 5.15612 4.75781 5.36804 4.75781 5.58901C4.75781 5.80998 4.84558 6.02191 5.0018 6.17818L8.82347 9.99985L5.0018 13.8215C4.84558 13.9778 4.75781 14.1897 4.75781 14.4107C4.75781 14.6317 4.84558 14.8436 5.0018 14.9998C5.15807 15.1561 5.37 15.2438 5.59097 15.2438C5.81194 15.2438 6.02386 15.1561 6.18013 14.9998L10.0018 11.1782L13.8235 14.9998C13.9797 15.1561 14.1917 15.2438 14.4126 15.2438C14.6336 15.2438 14.8455 15.1561 15.0018 14.9998C15.158 14.8436 15.2458 14.6317 15.2458 14.4107C15.2458 14.1897 15.158 13.9778 15.0018 13.8215L11.1801 9.99985L15.0018 6.17818C15.158 6.02191 15.2458 5.80998 15.2458 5.58901C15.2458 5.36804 15.158 5.15612 15.0018 4.99985Z" fill="black" />
  </g>
</svg>