<svg width="40" height="40" viewBox="0 0 40 40" fill="none" xmlns="http://www.w3.org/2000/svg">
						<path fill-rule="evenodd" clip-rule="evenodd"
							d="M20 0C8.95431 0 0 8.95431 0 20C0 31.0457 8.95431 40 20 40C31.0457 40 40 31.0457 40 20C40 8.95431 31.0457 0 20 0ZM26.2511 14.0933C26.9396 14.2822 27.4818 14.8389 27.6658 15.5458C28.0001 16.8269 28.0001 19.5 28.0001 19.5C28.0001 19.5 28.0001 22.173 27.6658 23.4542C27.4818 24.1611 26.9396 24.7178 26.2511 24.9068C25.0035 25.25 20.0001 25.25 20.0001 25.25C20.0001 25.25 14.9968 25.25 13.749 24.9068C13.0606 24.7178 12.5184 24.1611 12.3344 23.4542C12.0001 22.173 12.0001 19.5 12.0001 19.5C12.0001 19.5 12.0001 16.8269 12.3344 15.5458C12.5184 14.8389 13.0606 14.2822 13.749 14.0933C14.9968 13.75 20.0001 13.75 20.0001 13.75C20.0001 13.75 25.0035 13.75 26.2511 14.0933Z"
							fill="black" />
						<path fill-rule="evenodd" clip-rule="evenodd" d="M18.5 22V17L22.5 19.5001L18.5 22Z" fill="black" />
					</svg>