<svg className="header__logo" width="133" height="56" viewBox="0 0 133 56" fill="none"
          xmlns="http://www.w3.org/2000/svg">
          <path
            d="M19.1429 56C15.6407 56 12.3923 55.2818 9.63112 53.825C4.91076 51.3319 1.79433 46.7459 0.616779 40.5389C-0.641983 33.8702 0.0381563 26.5449 2.54552 19.8968C5.1544 12.9716 9.61082 7.27758 15.0925 3.86116C20.026 0.783267 26.1879 -0.51969 32.441 0.188216C38.6638 0.896122 44.3992 3.5226 48.5714 7.60588C55.8803 14.7362 57.3827 23.898 52.8045 33.3983C49.0688 41.175 41.5163 48.5208 33.1009 52.5733C28.3907 54.8509 23.5688 56 19.1429 56ZM29.1216 1.37832C24.2794 1.37832 19.6403 2.64024 15.7828 5.04101C10.5447 8.30353 6.28119 13.7616 3.78398 20.3995C1.37812 26.8014 0.718292 33.86 1.92629 40.2722C3.03278 46.1304 5.82438 50.2752 10.23 52.5938C16.0264 55.6512 24.5738 55.1587 32.5324 51.3217C40.6839 47.3923 47.9928 40.2824 51.6168 32.7725C54.652 26.4731 56.4387 17.1575 47.6578 8.60106C43.6887 4.73322 38.2273 2.22986 32.2888 1.55273C31.2432 1.43988 30.1773 1.37832 29.1216 1.37832Z"
            fill="black" />
          <path d="M76.4684 5.22461H73.1484V27.6211H76.4684V5.22461Z" fill="black" />
          <path
            d="M100.292 18.2645L105.632 27.6211H103.247C102.455 27.6211 101.724 27.1902 101.328 26.5028L96.8509 18.6646H89.1867V27.6211H85.8672V5.22461H86.9737H89.1867H98.0386C101.704 5.22461 104.678 8.23065 104.678 11.9446C104.688 14.8583 102.861 17.3308 100.292 18.2645ZM89.1968 16.4177H96.9422C99.3785 16.4177 101.369 14.4069 101.369 11.9343C101.369 9.46179 99.3785 7.45092 96.9422 7.45092H89.1968V16.4177Z"
            fill="black" />
          <path
            d="M118.28 23.0766C114.646 19.4037 114.646 13.4429 118.28 9.77004C121.915 6.09713 127.132 6.09713 130.767 9.77004L133 8.18997C128.503 3.64501 120.108 3.64501 115.621 8.18997C111.124 12.7349 111.124 20.1116 115.621 24.6669C120.118 29.2118 128.513 29.2118 133 24.6669L130.767 23.0869C127.132 26.7495 121.904 26.7495 118.28 23.0766Z"
            fill="black" />
          <path
            d="M131.294 45.5449H125.365V46.3759L130.147 46.3862L126.299 51.1466H127.426L131.274 46.3862V45.5449H131.294Z"
            fill="black" />
          <path
            d="M79.1487 50.2951H74.3058C74.5495 49.7924 75.0267 49.4231 75.7374 49.1871C76.4887 48.9819 77.0572 48.8383 77.443 48.7562C78.4786 48.4792 79.0065 47.9662 79.0065 47.2173C79.0065 46.6941 78.7629 46.2632 78.2755 45.9246C77.7882 45.586 77.1486 45.4219 76.377 45.4219C75.3211 45.4219 74.3363 45.7604 73.4327 46.4273L74.052 47.0531C74.7424 46.5196 75.514 46.2632 76.3567 46.2632C76.8542 46.2632 77.2501 46.3452 77.5242 46.5094C77.8085 46.6735 77.9405 46.889 77.9405 47.1557C77.9405 47.4122 77.7984 47.6174 77.5141 47.761C77.3313 47.8636 77.0471 47.956 76.6714 48.0586C75.9912 48.233 75.6358 48.3253 75.6054 48.3356C74.0317 48.8075 73.2195 49.7309 73.1484 51.1364H79.1487V50.2951Z"
            fill="black" />
          <path
            d="M105.206 49.2076H103.856V45.5449H102.881L98.9922 49.2076V50.0386H102.881V51.1364H103.856V50.0386H105.206V49.2076ZM100.038 49.1973L102.881 46.5093V49.2076L100.038 49.1973Z"
            fill="black" />
        </svg>