<svg width="100" height="100" viewBox="0 0 100 100" fill="none" xmlns="http://www.w3.org/2000/svg">
							<path fill-rule="evenodd" clip-rule="evenodd"
								d="M37.2563 78.6869C37.0815 78.6145 36.923 78.508 36.7899 78.3735C36.6569 78.2391 36.5521 78.0794 36.4815 77.9039C36.411 77.7284 36.3761 77.5406 36.3791 77.3515C36.382 77.1624 36.4227 76.9757 36.4987 76.8025C36.5747 76.6293 36.6845 76.473 36.8216 76.3427C36.9588 76.2125 37.1206 76.1109 37.2975 76.044C37.4744 75.9771 37.6629 75.9461 37.8519 75.953C38.0409 75.9598 38.2267 76.0043 38.3983 76.0838C50.719 81.4844 65.5671 77.7724 73.7493 66.4341C77.859 60.7592 79.7793 53.7901 79.1562 46.811C79.1261 46.4371 79.245 46.0664 79.4871 45.7798C79.7292 45.4931 80.0747 45.3138 80.4484 45.2809C80.8221 45.2479 81.1937 45.3641 81.4822 45.604C81.7706 45.8438 81.9526 46.188 81.9884 46.5615C82.6717 54.2214 80.5641 61.8702 76.0539 68.099C67.0645 80.5461 50.7711 84.6151 37.2563 78.6869Z"
								fill="black" />
							<path fill-rule="evenodd" clip-rule="evenodd"
								d="M29.3469 73.7372C25.0169 70.0627 21.749 65.2966 19.8821 59.9333C19.8206 59.757 19.7944 59.5703 19.805 59.3838C19.8157 59.1974 19.863 59.0149 19.9442 58.8467C20.0254 58.6786 20.1389 58.528 20.2782 58.4037C20.4176 58.2794 20.5801 58.1838 20.7564 58.1223C20.9327 58.0608 21.1194 58.0346 21.3058 58.0453C21.4923 58.0559 21.6748 58.1032 21.843 58.1844C22.0111 58.2656 22.1616 58.3791 22.2859 58.5185C22.4102 58.6578 22.5059 58.8203 22.5674 58.9966C24.2683 63.8821 27.2456 68.2234 31.1903 71.5701C31.4777 71.8143 31.6563 72.1627 31.6868 72.5386C31.7173 72.9145 31.5972 73.2872 31.353 73.5745C31.1087 73.8619 30.7604 74.0405 30.3845 74.071C30.0085 74.1015 29.6359 73.9815 29.3485 73.7372H29.3469Z"
								fill="black" />
							<path fill-rule="evenodd" clip-rule="evenodd"
								d="M23.3071 34.5098C23.148 34.4119 23.0098 34.2836 22.9004 34.1322C22.7909 33.9808 22.7124 33.8093 22.6693 33.6275C22.6261 33.4458 22.6193 33.2573 22.649 33.0729C22.6788 32.8885 22.7446 32.7117 22.8427 32.5527C23.2502 31.8935 23.6835 31.2454 24.1427 30.6083C33.3516 17.8579 50.2247 13.8979 63.9259 20.4721C64.0943 20.5529 64.2451 20.6661 64.3697 20.8051C64.4943 20.9442 64.5902 21.1064 64.6521 21.2826C64.714 21.4588 64.7407 21.6454 64.7304 21.8318C64.7202 22.0183 64.6734 22.2009 64.5926 22.3692C64.5118 22.5375 64.3986 22.6883 64.2595 22.8129C64.1205 22.9375 63.9582 23.0335 63.7821 23.0954C63.6059 23.1573 63.4193 23.1839 63.2328 23.1737C63.0464 23.1634 62.8638 23.1166 62.6955 23.0358C50.2168 17.046 34.8364 20.6569 26.4488 32.2732C26.0276 32.8544 25.6322 33.4452 25.2626 34.0454C25.0648 34.3663 24.7477 34.5954 24.381 34.6825C24.0143 34.7696 23.628 34.7075 23.3071 34.5098Z"
								fill="black" />
							<path fill-rule="evenodd" clip-rule="evenodd"
								d="M66.7124 45.1797C63.8867 43.1396 61.7295 40.3074 60.5135 37.0413C59.2975 33.7751 59.0775 30.2217 59.8811 26.8305C60.6848 23.4393 62.4761 20.3625 65.0285 17.9894C67.5809 15.6163 70.7796 14.0534 74.2203 13.4983C77.661 12.9433 81.189 13.4211 84.3582 14.8712C87.5273 16.3214 90.1952 18.6788 92.0244 21.6453C93.8537 24.6118 94.7622 28.0541 94.6349 31.537C94.5077 35.0198 93.3505 38.3867 91.3096 41.2118C88.5725 44.9978 84.4444 47.5424 79.8322 48.2864C75.22 49.0304 70.5011 47.913 66.7124 45.1797ZM89.0081 39.5469C90.7192 37.1776 91.6894 34.354 91.7958 31.4334C91.9022 28.5127 91.1401 25.626 89.6059 23.1385C88.0717 20.6509 85.8343 18.6741 83.1767 17.4582C80.519 16.2422 77.5605 15.8416 74.6752 16.307C71.7899 16.7725 69.1074 18.0831 66.9669 20.0731C64.8265 22.0631 63.3242 24.6432 62.6501 27.487C61.976 30.3308 62.1603 33.3106 63.1797 36.0497C64.1991 38.7888 66.0079 41.164 68.3773 42.8751C71.555 45.1679 75.513 46.1052 79.3816 45.4812C83.2501 44.8571 86.7126 42.7227 89.0081 39.5469Z"
								fill="black" />
							<path fill-rule="evenodd" clip-rule="evenodd"
								d="M9.29366 58.0251C6.85859 56.2667 4.99962 53.8256 3.9519 51.0107C2.90417 48.1958 2.71475 45.1334 3.40753 42.2108C4.10031 39.2881 5.64419 36.6366 7.84396 34.5915C10.0437 32.5463 12.8006 31.1994 15.7658 30.7211C18.7311 30.2428 21.7716 30.6546 24.5029 31.9044C27.2341 33.1541 29.5334 35.1857 31.11 37.7423C32.6866 40.2988 33.4696 43.2655 33.3601 46.2671C33.2506 49.2687 32.2535 52.1704 30.4948 54.6053C28.1356 57.8686 24.5774 60.0619 20.602 60.7031C16.6266 61.3444 12.5592 60.3811 9.29366 58.0251ZM28.1901 52.9404C29.6197 50.9615 30.4304 48.6031 30.5195 46.1635C30.6087 43.7238 29.9724 41.3126 28.6911 39.2346C27.4099 37.1566 25.5411 35.5052 23.3213 34.4893C21.1015 33.4734 18.6302 33.1386 16.2201 33.5272C13.81 33.9158 11.5692 35.0104 9.78122 36.6725C7.99321 38.3347 6.73823 40.4897 6.17503 42.8651C5.61183 45.2405 5.76571 47.7296 6.61717 50.0176C7.46863 52.3055 8.97944 54.2896 10.9585 55.7189C13.6125 57.634 16.9183 58.4171 20.1494 57.8961C23.3805 57.3751 26.2726 55.5927 28.1901 52.9404Z"
								fill="black" />
							<path fill-rule="evenodd" clip-rule="evenodd"
								d="M33.9361 62.4669C33.1179 60.7609 33.0879 58.5937 34.1841 56.8925C34.2097 56.8519 34.2376 56.8129 34.2678 56.7756L44.0501 44.5118V34.9174L42.927 34.1071C42.7446 33.9753 42.596 33.802 42.4936 33.6015C42.3911 33.4011 42.3378 33.1791 42.3379 32.954V29.3083C42.3379 28.9313 42.4876 28.5697 42.7542 28.3031C43.0209 28.0365 43.3825 27.8867 43.7595 27.8867H49.1016C49.4787 27.8867 49.8403 28.0365 50.1069 28.3031C50.3735 28.5697 50.5233 28.9313 50.5233 29.3083C50.5233 29.6854 50.3735 30.047 50.1069 30.3136C49.8403 30.5802 49.4787 30.73 49.1016 30.73H45.1859V32.229L46.309 33.0393C46.4914 33.1711 46.64 33.3444 46.7425 33.5449C46.8449 33.7453 46.8982 33.9673 46.8981 34.1924V45.0094C46.8964 45.332 46.785 45.6445 46.5822 45.8955L36.5535 58.4674L36.4113 58.7296C36.2462 59.1297 36.1685 59.5605 36.1835 59.9932C36.1985 60.4258 36.3058 60.8502 36.4982 61.238C36.7054 61.7053 37.0461 62.1009 37.4775 62.3752C37.9089 62.6495 38.4117 62.7902 38.9228 62.7796H48.8742C49.2512 62.7796 49.6128 62.9294 49.8794 63.196C50.146 63.4626 50.2958 63.8242 50.2958 64.2012C50.2958 64.5783 50.146 64.9399 49.8794 65.2065C49.6128 65.4731 49.2512 65.6229 48.8742 65.6229H38.9228C37.8759 65.6335 36.8481 65.3413 35.9633 64.7814C35.0786 64.2214 34.3746 63.4177 33.9361 62.4669Z"
								fill="black" />
							<path fill-rule="evenodd" clip-rule="evenodd"
								d="M48.4633 64.2012C48.4633 63.8242 48.6131 63.4626 48.8797 63.196C49.1463 62.9294 49.5079 62.7796 49.8849 62.7796H59.8458C60.3569 62.7902 60.8597 62.6495 61.2911 62.3752C61.7225 62.1009 62.0632 61.7053 62.2704 61.238C62.4624 60.8501 62.5694 60.4257 62.5844 59.9931C62.5994 59.5606 62.522 59.1298 62.3573 58.7296L62.2151 58.4674L52.1864 45.8939C51.9836 45.643 51.8722 45.3305 51.8705 45.0078V34.1908C51.8705 33.9656 51.9241 33.7435 52.0269 33.5431C52.1296 33.3426 52.2785 33.1694 52.4612 33.0377L53.5843 32.2274V30.73H49.6638C49.2868 30.73 48.9252 30.5802 48.6586 30.3136C48.392 30.047 48.2422 29.6854 48.2422 29.3083C48.2422 28.9313 48.392 28.5697 48.6586 28.3031C48.9252 28.0365 49.2868 27.8867 49.6638 27.8867H55.0059C55.383 27.8867 55.7446 28.0365 56.0112 28.3031C56.2778 28.5697 56.4275 28.9313 56.4275 29.3083V32.9556C56.4275 33.1808 56.3739 33.4029 56.2712 33.6033C56.1685 33.8038 56.0196 33.977 55.8368 34.1087L54.7137 34.919V44.5134L64.4976 56.7772C64.5278 56.8145 64.5558 56.8535 64.5813 56.8941C65.6776 58.5953 65.6476 60.7625 64.8294 62.4684C63.9874 64.2234 62.2467 65.6276 59.841 65.6276H49.8802C49.6935 65.627 49.5088 65.5896 49.3365 65.5176C49.1643 65.4456 49.0079 65.3403 48.8763 65.2079C48.7448 65.0754 48.6406 64.9184 48.5697 64.7456C48.4988 64.5729 48.4627 64.3879 48.4633 64.2012Z"
								fill="black" />
							<path fill-rule="evenodd" clip-rule="evenodd"
								d="M48.2719 55.5151C45.5235 54.7506 43.3184 53.6623 40.7389 53.7618C40.3619 53.7763 39.9945 53.6403 39.7177 53.3839C39.4409 53.1276 39.2772 52.7717 39.2628 52.3947C39.2483 52.0176 39.3842 51.6503 39.6406 51.3735C39.897 51.0966 40.2529 50.933 40.6299 50.9186C43.8096 50.7969 46.3259 52.0243 49.0349 52.7746C51.4927 53.4585 54.1448 53.765 57.89 52.1427C58.2346 52.0013 58.6209 52.0007 58.9659 52.1412C59.3109 52.2817 59.587 52.5519 59.7348 52.8939C59.8826 53.2358 59.8902 53.6221 59.7562 53.9696C59.6221 54.3171 59.357 54.5981 59.0178 54.7522C54.5413 56.6935 51.2005 56.3318 48.2719 55.5151Z"
								fill="black" />
							<path fill-rule="evenodd" clip-rule="evenodd"
								d="M65.5378 89.922C63.6541 88.5631 62.1076 86.7895 61.0179 84.7382C59.9281 82.6869 59.3242 80.4127 59.2527 78.091C59.2405 77.714 59.3787 77.3475 59.6367 77.0723C59.8947 76.7971 60.2515 76.6357 60.6285 76.6236C61.0055 76.6114 61.372 76.7495 61.6472 77.0076C61.9224 77.2656 62.0838 77.6223 62.0959 77.9994C62.1697 80.3207 62.8971 82.5742 64.1945 84.5005C65.4919 86.4269 67.3066 87.948 69.43 88.889C71.5534 89.8299 73.8992 90.1525 76.1978 89.8197C78.4963 89.4869 80.6543 88.5121 82.4235 87.0075C84.1928 85.5028 85.5015 83.5294 86.1991 81.3142C86.8968 79.0989 86.9552 76.7317 86.3674 74.4848C85.7797 72.2379 84.5698 70.2024 82.8768 68.6125C81.1838 67.0225 79.0765 65.9426 76.7971 65.497C76.427 65.425 76.1006 65.2088 75.8898 64.8962C75.6791 64.5835 75.6011 64.1999 75.6732 63.8298C75.7452 63.4596 75.9614 63.1333 76.274 62.9225C76.5867 62.7118 76.9703 62.6338 77.3405 62.7059C79.5694 63.1411 81.6723 64.0708 83.4944 65.4263C85.3165 66.7819 86.8113 68.5288 87.8689 70.5386C88.9265 72.5483 89.5198 74.7697 89.6053 77.0391C89.6907 79.3085 89.2661 81.5682 88.3627 83.6517C87.4592 85.7353 86.0999 87.5897 84.3849 89.0784C82.6699 90.5672 80.6429 91.6523 78.453 92.2539C76.2632 92.8556 73.9662 92.9584 71.7313 92.5548C69.4965 92.1513 67.3806 91.2516 65.5394 89.922H65.5378Z"
								fill="black" />
							<path fill-rule="evenodd" clip-rule="evenodd"
								d="M53.0829 19.6007C52.6314 18.1337 52.4865 16.5896 52.6575 15.0642C52.8284 13.5389 53.3115 12.0651 54.0766 10.7346C54.8417 9.40398 55.8724 8.24511 57.1047 7.33006C58.337 6.41502 59.7444 5.76339 61.2393 5.41572C62.7343 5.06805 64.2849 5.03179 65.7944 5.3092C67.304 5.5866 68.7403 6.17173 70.014 7.02817C71.2877 7.88461 72.3715 8.99403 73.198 10.2874C74.0244 11.5807 74.5759 13.0304 74.8179 14.546C74.8532 14.7329 74.8506 14.9249 74.8103 15.1108C74.77 15.2966 74.6928 15.4725 74.5834 15.628C74.4739 15.7835 74.3343 15.9155 74.1729 16.0161C74.0115 16.1167 73.8316 16.1839 73.6438 16.2137C73.456 16.2435 73.2641 16.2353 73.0794 16.1896C72.8948 16.1439 72.7213 16.0617 72.5691 15.9477C72.4168 15.8337 72.289 15.6904 72.1931 15.5261C72.0973 15.3619 72.0354 15.1801 72.011 14.9914C71.8324 13.8593 71.4223 12.7761 70.8065 11.8094C70.1907 10.8427 69.3824 10.0133 68.4318 9.37285C67.4813 8.73239 66.409 8.29465 65.2818 8.08692C64.1546 7.87919 62.9967 7.90593 61.8804 8.16547C60.764 8.42502 59.713 8.9118 58.7931 9.59546C57.8731 10.2791 57.1039 11.145 56.5334 12.1391C55.9629 13.1331 55.6033 14.2341 55.4771 15.3733C55.3509 16.5125 55.4607 17.6655 55.7998 18.7603C55.9006 19.1177 55.8577 19.5003 55.6801 19.8264C55.5025 20.1525 55.2044 20.3961 54.8495 20.5053C54.4946 20.6144 54.1111 20.5804 53.781 20.4105C53.4509 20.2405 53.2003 19.9482 53.0829 19.5959V19.6007Z"
								fill="black" />
							<path fill-rule="evenodd" clip-rule="evenodd"
								d="M85.7803 29.6887C85.2179 25.8077 83.253 23.6437 80.5077 22.2379C80.1912 22.0558 79.9569 21.7589 79.8533 21.4088C79.7497 21.0587 79.7849 20.6821 79.9514 20.3572C80.1179 20.0323 80.4031 19.7839 80.7478 19.6635C81.0925 19.5431 81.4703 19.5599 81.8029 19.7105C85.278 21.4907 87.8859 24.3972 88.5951 29.2828C88.6493 29.6561 88.5531 30.0356 88.3275 30.3379C88.1019 30.6402 87.7655 30.8405 87.3922 30.8948C87.019 30.949 86.6394 30.8528 86.3371 30.6272C86.0348 30.4016 85.8345 30.0652 85.7803 29.6919V29.6887Z"
								fill="black" />
							<path fill-rule="evenodd" clip-rule="evenodd"
								d="M80.898 77.12C80.4747 74.2088 79.0151 72.6039 76.9491 71.5504C76.6326 71.3683 76.3983 71.0714 76.2947 70.7213C76.1911 70.3712 76.2263 69.9946 76.3928 69.6697C76.5593 69.3448 76.8445 69.0964 77.1892 68.976C77.5339 68.8556 77.9117 68.8724 78.2443 69.023C81.037 70.4526 83.141 72.7998 83.7033 76.7172C83.7345 76.9038 83.728 77.0948 83.6843 77.279C83.6407 77.4631 83.5607 77.6367 83.4491 77.7895C83.3374 77.9423 83.1964 78.0713 83.0343 78.1689C82.8721 78.2665 82.6922 78.3308 82.5049 78.3579C82.3176 78.385 82.1268 78.3745 81.9436 78.3269C81.7604 78.2793 81.5886 78.1956 81.4382 78.0808C81.2878 77.9659 81.1618 77.8222 81.0677 77.658C80.9736 77.4938 80.9132 77.3125 80.8901 77.1247L80.898 77.12Z"
								fill="black" />
							<path fill-rule="evenodd" clip-rule="evenodd"
								d="M24.0328 45.4891C23.6094 42.5779 22.1499 40.9731 20.0838 39.9195C19.7673 39.7374 19.533 39.4406 19.4295 39.0905C19.3259 38.7403 19.3611 38.3638 19.5276 38.0389C19.6941 37.7139 19.9793 37.4655 20.324 37.3451C20.6687 37.2247 21.0465 37.2416 21.3791 37.3922C24.1718 38.8217 26.2758 41.169 26.8381 45.0863C26.8692 45.273 26.8628 45.464 26.8191 45.6481C26.7754 45.8323 26.6954 46.0058 26.5838 46.1586C26.4722 46.3115 26.3312 46.4404 26.169 46.538C26.0069 46.6356 25.8269 46.6999 25.6397 46.727C25.4524 46.7542 25.2615 46.7436 25.0784 46.696C24.8952 46.6485 24.7234 46.5648 24.573 46.4499C24.4226 46.3351 24.2966 46.1913 24.2025 46.0272C24.1084 45.863 24.048 45.6817 24.0249 45.4938L24.0328 45.4891Z"
								fill="black" />
						</svg>