<svg width="100" height="100" viewBox="0 0 100 100" fill="none" xmlns="http://www.w3.org/2000/svg">
							<path fill-rule="evenodd" clip-rule="evenodd"
								d="M31.3182 84.1348C21.2515 76.8687 17.2947 64.2713 20.5044 52.9803C20.5044 52.9598 20.5249 52.9155 20.5328 52.895C26.0519 37.2759 34.0619 25.5536 41.3501 13.8235C43.1745 10.887 45.408 8.92673 48.0112 8.8667C50.6396 8.8051 52.8715 10.688 54.6454 13.5186C55.6026 15.0393 56.5615 16.5531 57.5219 18.06C57.624 18.2177 57.6939 18.394 57.7274 18.5788C57.761 18.7636 57.7577 18.9533 57.7175 19.1368C57.6774 19.3203 57.6013 19.4941 57.4936 19.648C57.3859 19.8019 57.2488 19.9329 57.0901 20.0336C56.9315 20.1342 56.7545 20.2023 56.5694 20.2341C56.3842 20.2659 56.1946 20.2607 56.0115 20.2188C55.8284 20.1769 55.6554 20.0991 55.5025 19.9899C55.3497 19.8807 55.2199 19.7423 55.1209 19.5827C54.1636 18.0758 53.2033 16.5588 52.2397 15.0319C50.6285 12.4698 49.1659 11.6831 48.0712 11.7147C46.9513 11.74 45.4365 12.6293 43.759 15.3289C37.3174 25.6958 30.5411 35.731 25.3363 48.2984L23.2244 53.8017L22.7664 55.683C21.7764 60.562 22.2133 65.6228 24.0246 70.2599C25.836 74.8971 28.9451 78.9141 32.9799 81.8302C44.5614 90.2021 60.7521 87.5831 69.116 76.0015C71.1722 73.1609 72.6279 69.931 73.3943 66.509C74.1607 63.087 74.2217 59.5448 73.5735 56.0984L72.8801 53.2757L71.4585 49.5541C69.9753 45.8705 68.372 42.4238 66.6834 39.1288C66.5237 38.795 66.5004 38.4122 66.6184 38.0615C66.7364 37.7109 66.9865 37.4201 67.3155 37.2508C67.6445 37.0816 68.0265 37.0473 68.3803 37.1552C68.7342 37.2631 69.0321 37.5047 69.2107 37.8287C71.6377 42.5281 73.7629 47.3773 75.5733 52.3469L75.597 52.4164C76.9021 56.6601 77.2045 61.1488 76.4803 65.5292C75.7562 69.9096 74.0252 74.0622 71.4237 77.66C62.1405 90.5212 44.1728 93.4166 31.3182 84.1348Z"
								fill="black" />
							<path fill-rule="evenodd" clip-rule="evenodd"
								d="M43.6451 68.649C41.7709 67.9088 40.1582 66.6294 39.0111 64.9727C37.864 63.3159 37.2339 61.3561 37.2006 59.3413C37.1673 57.3264 37.7322 55.3469 38.8239 53.6531C39.9156 51.9593 41.4851 50.6273 43.3339 49.8255C45.1826 49.0238 47.2276 48.7882 49.2102 49.1488C51.1928 49.5093 53.024 50.4496 54.4722 51.8509C55.9203 53.2522 56.9204 55.0514 57.346 57.0211C57.7716 58.9908 57.6035 61.0425 56.863 62.9166C55.8695 65.429 53.9192 67.444 51.4406 68.5189C48.9621 69.5938 46.1582 69.6406 43.6451 68.649ZM54.2188 61.8725C54.753 60.5215 54.8745 59.0424 54.568 57.6223C54.2615 56.2022 53.5407 54.9049 52.4969 53.8944C51.4531 52.8839 50.133 52.2057 48.7037 51.9455C47.2744 51.6853 45.8001 51.8548 44.4671 52.4326C43.1342 53.0104 42.0025 53.9705 41.2152 55.1915C40.4279 56.4125 40.0204 57.8395 40.0442 59.2921C40.068 60.7447 40.522 62.1576 41.3488 63.3522C42.1756 64.5468 43.338 65.4693 44.6892 66.0032C46.5007 66.7181 48.522 66.6845 50.3088 65.91C52.0957 65.1355 53.502 63.6833 54.2188 61.8725Z"
								fill="black" />
							<path fill-rule="evenodd" clip-rule="evenodd"
								d="M43.1897 43.0073C42.8951 41.9991 42.9061 40.9262 43.2213 39.9243C43.5364 38.9223 44.1415 38.0363 44.9602 37.3783C45.7789 36.7203 46.7743 36.3198 47.8206 36.2276C48.8669 36.1353 49.917 36.3554 50.8382 36.8599C51.7594 37.3645 52.5103 38.1309 52.9959 39.0623C53.4816 39.9936 53.6801 41.048 53.5665 42.0922C53.4529 43.1364 53.0321 44.1234 52.3576 44.9285C51.683 45.7336 50.7848 46.3205 49.7766 46.6151C48.4247 47.0093 46.9717 46.8507 45.7366 46.1742C44.5016 45.4978 43.5855 44.3587 43.1897 43.0073ZM48.9789 43.8856C49.4474 43.7488 49.8648 43.4761 50.1783 43.1021C50.4918 42.7281 50.6873 42.2695 50.7402 41.7843C50.793 41.2992 50.7009 40.8092 50.4752 40.3765C50.2496 39.9437 49.9007 39.5876 49.4727 39.3531C49.0447 39.1187 48.5567 39.0164 48.0706 39.0593C47.5845 39.1022 47.122 39.2883 46.7416 39.5941C46.3612 39.8998 46.0801 40.3115 45.9337 40.7771C45.7873 41.2427 45.7823 41.7412 45.9193 42.2096C46.1032 42.8373 46.5288 43.3663 47.1024 43.6805C47.6761 43.9947 48.351 44.0685 48.9789 43.8856Z"
								fill="black" />
							<path fill-rule="evenodd" clip-rule="evenodd"
								d="M60.7365 73.8991C59.7278 73.6063 58.8286 73.021 58.1526 72.2172C57.4766 71.4134 57.054 70.4271 56.9385 69.3832C56.8229 68.3393 57.0195 67.2845 57.5034 66.3523C57.9873 65.4201 58.7367 64.6523 59.6569 64.146C60.5772 63.6397 61.6268 63.4177 62.6733 63.5079C63.7197 63.5982 64.7158 63.9968 65.5357 64.6532C66.3557 65.3096 66.9625 66.1944 67.2796 67.1957C67.5966 68.197 67.6097 69.2699 67.317 70.2786C66.9242 71.6312 66.0103 72.7724 64.7763 73.4513C63.5423 74.1302 62.0892 74.2913 60.7365 73.8991ZM64.5875 69.4856C64.7231 69.017 64.7167 68.5186 64.5691 68.0536C64.4215 67.5886 64.1393 67.1777 63.7583 66.873C63.3773 66.5683 62.9144 66.3834 62.4283 66.3417C61.9422 66.3 61.4547 66.4033 61.0273 66.6387C60.5999 66.874 60.2519 67.2307 60.0273 67.6638C59.8026 68.0969 59.7114 68.5869 59.7651 69.0718C59.8189 69.5567 60.0151 70.0148 60.3292 70.3882C60.6432 70.7616 61.0609 71.0335 61.5295 71.1695C62.1583 71.3516 62.8337 71.2766 63.4071 70.9608C63.9806 70.645 64.4052 70.1144 64.5875 69.4856Z"
								fill="black" />
							<path fill-rule="evenodd" clip-rule="evenodd"
								d="M50.1317 58.664C49.4904 57.2203 48.5363 56.6295 47.3232 56.3862C46.9535 56.3119 46.6284 56.0937 46.4196 55.7797C46.2107 55.4657 46.1352 55.0816 46.2096 54.7119C46.2839 54.3421 46.5021 54.0171 46.8161 53.8083C47.1301 53.5994 47.5142 53.5239 47.8839 53.5982C49.9058 54.0042 51.6749 55.1352 52.7301 57.5078C52.8834 57.8523 52.8936 58.2437 52.7583 58.5958C52.6231 58.9479 52.3536 59.2318 52.009 59.3851C51.6644 59.5384 51.2731 59.5486 50.921 59.4134C50.5689 59.2782 50.285 59.0086 50.1317 58.664Z"
								fill="black" />
							<path fill-rule="evenodd" clip-rule="evenodd"
								d="M57.78 67.6803L54.9604 65.9301C54.6402 65.7311 54.4121 65.413 54.3263 65.0459C54.2406 64.6787 54.3042 64.2925 54.5031 63.9722C54.7021 63.6519 55.0202 63.4238 55.3874 63.338C55.7546 63.2523 56.1408 63.3159 56.461 63.5149L59.2727 65.2635C59.437 65.3592 59.5805 65.4869 59.6946 65.639C59.8087 65.7911 59.8911 65.9646 59.937 66.1491C59.9829 66.3337 59.9912 66.5255 59.9616 66.7134C59.932 66.9012 59.8651 67.0812 59.7647 67.2427C59.6643 67.4042 59.5325 67.5439 59.3771 67.6535C59.2218 67.7632 59.046 67.8406 58.8602 67.8811C58.6744 67.9216 58.4824 67.9244 58.2955 67.8894C58.1086 67.8544 57.9306 67.7822 57.7721 67.6772L57.78 67.6803Z"
								fill="black" />
							<path fill-rule="evenodd" clip-rule="evenodd"
								d="M46.543 49.2056V45.8884C46.543 45.5114 46.6927 45.1498 46.9593 44.8832C47.2259 44.6166 47.5876 44.4668 47.9646 44.4668C48.3416 44.4668 48.7032 44.6166 48.9698 44.8832C49.2364 45.1498 49.3862 45.5114 49.3862 45.8884V49.2056C49.3862 49.5827 49.2364 49.9443 48.9698 50.2109C48.7032 50.4775 48.3416 50.6273 47.9646 50.6273C47.5876 50.6273 47.2259 50.4775 46.9593 50.2109C46.6927 49.9443 46.543 49.5827 46.543 49.2056Z"
								fill="black" />
							<path fill-rule="evenodd" clip-rule="evenodd"
								d="M75.8713 23.5213C75.4101 20.3495 73.8179 18.5929 71.5702 17.443C71.2537 17.2609 71.0194 16.9641 70.9158 16.6139C70.8122 16.2638 70.8474 15.8872 71.0139 15.5623C71.1804 15.2374 71.4656 14.989 71.8103 14.8686C72.155 14.7482 72.5328 14.765 72.8654 14.9156C75.8429 16.4415 78.078 18.9389 78.6846 23.1169C78.7157 23.3036 78.7092 23.4946 78.6656 23.6787C78.6219 23.8629 78.5419 24.0364 78.4303 24.1893C78.3187 24.3421 78.1776 24.4711 78.0155 24.5687C77.8534 24.6663 77.6734 24.7305 77.4861 24.7577C77.2988 24.7848 77.108 24.7743 76.9248 24.7267C76.7417 24.6791 76.5699 24.5954 76.4195 24.4806C76.2691 24.3657 76.1431 24.222 76.049 24.0578C75.9548 23.8936 75.8945 23.7123 75.8713 23.5245V23.5213Z"
								fill="black" />
							<path fill-rule="evenodd" clip-rule="evenodd"
								d="M27.64 70.2786C27.3473 69.2699 27.3604 68.197 27.6775 67.1957C27.9945 66.1944 28.6014 65.3096 29.4213 64.6532C30.2412 63.9968 31.2374 63.5982 32.2838 63.5079C33.3302 63.4177 34.3799 63.6397 35.3001 64.146C36.2203 64.6523 36.9697 65.4201 37.4536 66.3523C37.9375 67.2845 38.1341 68.3393 38.0185 69.3832C37.903 70.4271 37.4805 71.4134 36.8044 72.2172C36.1284 73.021 35.2292 73.6063 34.2205 73.8991C32.8678 74.2913 31.4147 74.1302 30.1807 73.4513C28.9467 72.7724 28.0328 71.6312 27.64 70.2786ZM33.4276 71.1695C33.8961 71.0335 34.3138 70.7616 34.6278 70.3882C34.9419 70.0148 35.1382 69.5567 35.1919 69.0718C35.2457 68.5869 35.1544 68.0969 34.9298 67.6638C34.7051 67.2307 34.3571 66.874 33.9297 66.6387C33.5023 66.4033 33.0148 66.3 32.5287 66.3417C32.0426 66.3834 31.5797 66.5683 31.1987 66.873C30.8177 67.1777 30.5355 67.5886 30.3879 68.0536C30.2403 68.5186 30.2339 69.017 30.3695 69.4856C30.5522 70.1142 30.9769 70.6445 31.5502 70.9602C32.1236 71.2759 32.7988 71.3512 33.4276 71.1695Z"
								fill="black" />
							<path fill-rule="evenodd" clip-rule="evenodd"
								d="M35.2272 67.2249C35.0286 66.9046 34.9652 66.5185 35.0511 66.1515C35.137 65.7845 35.3651 65.4666 35.6853 65.2678L38.497 63.5208C38.8172 63.3218 39.2035 63.2581 39.5706 63.3439C39.9378 63.4297 40.2559 63.6578 40.4549 63.9781C40.6539 64.2983 40.7175 64.6845 40.6317 65.0517C40.546 65.4189 40.3178 65.737 39.9976 65.936L37.1859 67.683C37.0273 67.7816 36.8507 67.848 36.6664 67.8784C36.4821 67.9088 36.2935 67.9025 36.1116 67.8599C35.9297 67.8174 35.758 67.7394 35.6063 67.6305C35.4545 67.5215 35.3257 67.3837 35.2272 67.2249Z"
								fill="black" />
							<path fill-rule="evenodd" clip-rule="evenodd"
								d="M24.9238 92.0725C24.824 91.7091 24.8726 91.321 25.0589 90.9934C25.2452 90.6658 25.554 90.4255 25.9173 90.3255C29.1794 89.4209 31.9922 87.3428 33.8152 84.4904C33.9143 84.3303 34.0441 84.1914 34.1973 84.0818C34.3504 83.9723 34.5238 83.8942 34.7073 83.8522C34.8909 83.8102 35.081 83.8051 35.2665 83.8372C35.4521 83.8692 35.6294 83.9379 35.7882 84.039C35.947 84.1402 36.0842 84.2719 36.1917 84.4265C36.2992 84.5811 36.3749 84.7555 36.4144 84.9396C36.4539 85.1238 36.4565 85.3139 36.4219 85.499C36.3873 85.6841 36.3163 85.8605 36.213 86.0179C34.0096 89.4667 30.6077 91.9779 26.6629 93.0677C26.3004 93.165 25.9141 93.115 25.5882 92.9286C25.2624 92.7422 25.0236 92.4344 24.9238 92.0725Z"
								fill="black" />
							<path fill-rule="evenodd" clip-rule="evenodd"
								d="M17.5482 92.9579C14.6517 92.0898 12.0492 90.4433 10.0242 88.1978C7.99918 85.9522 6.62951 83.1939 6.06442 80.2234C5.49934 77.2529 5.76055 74.1843 6.81958 71.352C7.87861 68.5198 9.69482 66.0326 12.0702 64.1617C12.2808 63.9911 12.5009 63.8258 12.7305 63.6657C13.0383 63.4566 13.4158 63.3764 13.782 63.4425C14.1482 63.5086 14.4738 63.7157 14.6891 64.0192C14.9043 64.3228 14.992 64.6986 14.9332 65.0661C14.8745 65.4335 14.674 65.7633 14.3748 65.9846C14.1931 66.1141 14.0115 66.2515 13.8283 66.3937C11.8618 67.9427 10.3582 70.0019 9.48146 72.3467C8.60473 74.6915 8.3885 77.232 8.8563 79.6913C9.32409 82.1505 10.458 84.4342 12.1344 86.2934C13.8108 88.1525 15.9653 89.5158 18.3632 90.2346C18.7168 90.349 19.0116 90.5973 19.1844 90.9263C19.3572 91.2553 19.3943 91.6389 19.2877 91.9949C19.1811 92.351 18.9394 92.6511 18.6143 92.8311C18.2891 93.0111 17.9065 93.0566 17.5482 92.9579Z"
								fill="black" />
							<path fill-rule="evenodd" clip-rule="evenodd"
								d="M12.1649 25.0187C10.9317 23.4533 10.1904 21.5573 10.0347 19.5705C9.87902 17.5838 10.3159 15.5955 11.2902 13.857C12.2645 12.1186 13.7324 10.7081 15.5083 9.80389C17.2842 8.8997 19.2883 8.54242 21.2673 8.77723C23.2462 9.01203 25.1111 9.82839 26.6261 11.1231C28.1411 12.4177 29.2381 14.1326 29.7786 16.0507C30.319 17.9689 30.2785 20.0042 29.6623 21.8994C29.046 23.7946 27.8816 25.4644 26.3163 26.6978C24.2167 28.3507 21.5466 29.1024 18.893 28.7875C16.2395 28.4726 13.8194 27.1171 12.1649 25.0187ZM24.5567 24.4643C25.6802 23.5789 26.5161 22.3802 26.9584 21.0198C27.4008 19.6594 27.4298 18.1984 27.0419 16.8215C26.6539 15.4446 25.8664 14.2137 24.7789 13.2843C23.6914 12.355 22.3528 11.769 20.9322 11.6005C19.5117 11.4319 18.0731 11.6884 16.7983 12.3375C15.5236 12.9865 14.4699 13.999 13.7705 15.2469C13.0712 16.4948 12.7575 17.9221 12.8693 19.3482C12.981 20.7743 13.5132 22.1353 14.3984 23.259C15.5861 24.7652 17.3231 25.7383 19.2278 25.9646C21.1325 26.1909 23.0491 25.6518 24.5567 24.4659V24.4643Z"
								fill="black" />
							<path fill-rule="evenodd" clip-rule="evenodd"
								d="M22.0232 17.9796C21.7862 17.0176 21.2902 16.5816 20.5747 16.2989C20.3982 16.2324 20.2368 16.1314 20.0997 16.0019C19.9626 15.8725 19.8527 15.717 19.7763 15.5446C19.6999 15.3722 19.6585 15.1863 19.6546 14.9978C19.6507 14.8092 19.6844 14.6218 19.7537 14.4464C19.8229 14.271 19.9264 14.1111 20.058 13.9761C20.1897 13.8411 20.3469 13.7336 20.5204 13.6599C20.694 13.5862 20.8805 13.5478 21.0691 13.5469C21.2577 13.546 21.4445 13.5826 21.6188 13.6546C23.1005 14.2391 24.3041 15.3558 24.778 17.3003C24.868 17.6665 24.8089 18.0534 24.6137 18.376C24.4185 18.6986 24.1032 18.9305 23.737 19.0205C23.3709 19.1106 22.9839 19.0515 22.6614 18.8563C22.3388 18.6611 22.1069 18.3457 22.0169 17.9796H22.0232Z"
								fill="black" />
							<path fill-rule="evenodd" clip-rule="evenodd"
								d="M71.7016 81.868C70.5124 80.3613 69.6851 78.6017 69.2833 76.7248C69.2046 76.3559 69.2755 75.9708 69.4807 75.6543C69.6858 75.3378 70.0083 75.1157 70.3771 75.037C70.746 74.9582 71.1311 75.0292 71.4476 75.2343C71.7641 75.4395 71.9862 75.762 72.0649 76.1308C72.5038 78.1735 73.5883 80.0207 75.1581 81.3994C76.7278 82.778 78.6995 83.615 80.7817 83.7866C82.8639 83.9582 84.946 83.4553 86.7202 82.3522C88.4945 81.2491 89.8668 79.6044 90.6341 77.6611C91.4015 75.7179 91.5232 73.5793 90.9814 71.5616C90.4395 69.5438 89.2628 67.754 87.6253 66.4566C85.9877 65.1592 83.9761 64.4232 81.8879 64.3573C79.7997 64.2915 77.7458 64.8993 76.0297 66.0909C75.8764 66.1975 75.7036 66.2729 75.5212 66.3127C75.3388 66.3526 75.1503 66.3561 74.9665 66.3231C74.7827 66.2901 74.6072 66.2212 74.45 66.1204C74.2929 66.0195 74.1571 65.8888 74.0505 65.7355C73.9438 65.5822 73.8685 65.4094 73.8286 65.2269C73.7888 65.0445 73.7853 64.856 73.8183 64.6722C73.8513 64.4884 73.9201 64.3129 74.021 64.1558C74.1218 63.9986 74.2526 63.8628 74.4059 63.7562C76.4221 62.3559 78.8041 61.5765 81.2582 61.5139C83.7122 61.4513 86.1308 62.1083 88.2159 63.404C90.3009 64.6996 91.9611 66.5772 92.9918 68.8052C94.0224 71.0332 94.3785 73.5141 94.016 75.942C93.6535 78.3699 92.5883 80.6387 90.9517 82.4684C89.3152 84.2982 87.1789 85.6089 84.8064 86.239C82.4338 86.869 79.9287 86.7909 77.6 86.0142C75.2714 85.2375 73.2209 83.7961 71.7016 81.868Z"
								fill="black" />
							<path fill-rule="evenodd" clip-rule="evenodd"
								d="M85.9565 73.7176C85.3246 71.1903 83.9125 69.9013 82.0075 69.1494C81.6567 69.011 81.3752 68.7388 81.225 68.3928C81.0748 68.0468 81.0682 67.6553 81.2067 67.3044C81.3452 66.9536 81.6173 66.6721 81.9633 66.5219C82.3093 66.3717 82.7008 66.3651 83.0516 66.5036C85.7243 67.5588 87.852 69.5175 88.7192 73.0368C88.8095 73.403 88.7506 73.79 88.5555 74.1127C88.3605 74.4355 88.0452 74.6675 87.679 74.7578C87.3129 74.8481 86.9259 74.7892 86.6031 74.5941C86.2804 74.3991 86.0483 74.0838 85.9581 73.7176H85.9565Z"
								fill="black" />
							<path fill-rule="evenodd" clip-rule="evenodd"
								d="M57.3392 33.8475C55.5163 31.5339 54.4204 28.7316 54.1901 25.7952C53.9598 22.8587 54.6055 19.9199 56.0454 17.3503C57.4854 14.7808 59.6549 12.696 62.2797 11.3595C64.9045 10.0231 67.8666 9.49497 70.7916 9.84204C73.7165 10.1891 76.4728 11.3957 78.712 13.3093C80.9511 15.223 82.5726 17.7576 83.3712 20.5928C84.1698 23.4279 84.1098 26.4362 83.1988 29.2373C82.2877 32.0383 80.5665 34.5063 78.2528 36.3291C75.1499 38.772 71.204 39.883 67.2823 39.4176C63.3607 38.9523 59.7842 36.9488 57.3392 33.8475ZM76.4932 34.0955C78.3652 32.6207 79.7578 30.624 80.4949 28.3577C81.2321 26.0914 81.2807 23.6574 80.6346 21.3635C79.9884 19.0697 78.6765 17.0189 76.8648 15.4706C75.0532 13.9223 72.823 12.9461 70.4565 12.6653C68.09 12.3845 65.6934 12.8118 63.5697 13.8931C61.446 14.9744 59.6907 16.6613 58.5257 18.7402C57.3607 20.8192 56.8384 23.197 57.0247 25.5728C57.2111 27.9487 58.0978 30.2159 59.5727 32.0878C61.5511 34.5967 64.4446 36.2174 67.6174 36.5939C70.7902 36.9704 73.9826 36.0717 76.4932 34.0955Z"
								fill="black" />
							<path fill-rule="evenodd" clip-rule="evenodd"
								d="M10.8185 63.5268C9.25501 61.5422 8.3992 59.0922 8.38685 56.5657C8.37451 54.0392 9.20634 51.581 10.7503 49.5811C12.2943 47.5813 14.462 46.1545 16.9093 45.527C19.3567 44.8996 21.9435 45.1076 24.2591 46.118C24.4304 46.1926 24.5852 46.3001 24.7149 46.4345C24.8445 46.569 24.9465 46.7276 25.0148 46.9014C25.0832 47.0753 25.1166 47.2608 25.1132 47.4476C25.1099 47.6343 25.0698 47.8186 24.9952 47.9898C24.9206 48.161 24.813 48.3159 24.6786 48.4456C24.5442 48.5753 24.3856 48.6772 24.2118 48.7455C24.038 48.8139 23.8524 48.8473 23.6656 48.844C23.4789 48.8406 23.2946 48.8005 23.1234 48.7259C21.9076 48.1951 20.5843 47.9565 19.2596 48.0292C17.9349 48.1018 16.6457 48.4837 15.4952 49.1443C14.3447 49.8048 13.3648 50.7257 12.6342 51.833C11.9036 52.9404 11.4425 54.2034 11.2878 55.5211C11.1331 56.8387 11.2891 58.1742 11.7435 59.4207C12.1978 60.6672 12.9377 61.7899 13.904 62.6989C14.8702 63.608 16.036 64.2781 17.3078 64.6555C18.5796 65.033 19.9222 65.1074 21.2279 64.8726C21.5978 64.8093 21.9778 64.8949 22.2849 65.1106C22.592 65.3264 22.8013 65.6548 22.8672 66.0243C22.9331 66.3938 22.8502 66.7743 22.6366 67.083C22.423 67.3916 22.0961 67.6032 21.727 67.6717C19.7038 68.0345 17.62 67.8405 15.6986 67.1104C13.7771 66.3803 12.0903 65.1416 10.8185 63.5268Z"
								fill="black" />
						</svg>