<svg width="100" height="100" viewBox="0 0 100 100" fill="none" xmlns="http://www.w3.org/2000/svg">
							<path fill-rule="evenodd" clip-rule="evenodd"
								d="M42.6926 81.6766C42.3375 81.5495 42.0475 81.2865 41.8863 80.9456C41.7252 80.6046 41.7061 80.2136 41.8333 79.8586C41.9604 79.5035 42.2233 79.2135 42.5643 79.0524C42.9052 78.8912 43.2963 78.8721 43.6513 78.9993C48.7775 80.8357 54.3089 81.2323 59.6446 80.146C60.9782 79.8769 62.2921 79.5186 63.5777 79.0735C63.9311 78.9604 64.3148 78.9899 64.6467 79.1558C64.9786 79.3217 65.2325 79.6108 65.3542 79.9613C65.4759 80.3119 65.4557 80.6961 65.2979 81.032C65.1401 81.3678 64.8572 81.6287 64.5097 81.7588C63.104 82.247 61.667 82.6396 60.2085 82.934C54.3645 84.1218 48.3069 83.687 42.6926 81.6766Z"
								fill="black" />
							<path fill-rule="evenodd" clip-rule="evenodd"
								d="M34.2242 77.169C27.667 72.3447 23.1453 65.2478 21.5434 57.2663C17.9577 39.5103 29.4618 22.1997 47.2147 18.6077C64.9676 15.0157 82.2813 26.5246 85.8733 44.279C87.2822 51.2062 86.4053 58.4036 83.3744 64.7899C83.2946 64.9586 83.1823 65.11 83.0439 65.2353C82.9056 65.3607 82.7439 65.4575 82.5681 65.5204C82.3923 65.5832 82.2058 65.6108 82.0194 65.6016C81.8329 65.5924 81.6501 65.5466 81.4813 65.4667C81.3126 65.3869 81.1612 65.2745 81.0358 65.1362C80.9105 64.9978 80.8137 64.8361 80.7508 64.6603C80.688 64.4845 80.6603 64.2981 80.6696 64.1116C80.6788 63.9252 80.7246 63.7423 80.8045 63.5736C83.5729 57.7412 84.3739 51.1679 83.087 44.8414C79.8125 28.6254 63.9946 18.1196 47.777 21.3941C31.5595 24.6686 21.0695 40.4817 24.3361 56.6993C25.799 63.9882 29.9288 70.469 35.9175 74.8739C36.2219 75.0984 36.4246 75.4347 36.481 75.8087C36.5375 76.1827 36.443 76.5638 36.2184 76.8681C35.9939 77.1725 35.6576 77.3752 35.2836 77.4316C34.9096 77.488 34.5285 77.3936 34.2242 77.169Z"
								fill="black" />
							<path fill-rule="evenodd" clip-rule="evenodd"
								d="M5.05251 58.3257C3.91039 55.2704 3.61482 51.9632 4.19701 48.7538C4.7792 45.5444 6.21748 42.5518 8.35999 40.0923C10.5025 37.6328 13.2697 35.7978 16.369 34.781C19.4683 33.7643 22.7846 33.6036 25.9677 34.3161C26.1516 34.3552 26.3261 34.4305 26.4807 34.5375C26.6354 34.6445 26.7673 34.7811 26.8688 34.9395C26.9703 35.0978 27.0394 35.2747 27.072 35.46C27.1046 35.6452 27.1002 35.8351 27.0589 36.0186C27.0176 36.2021 26.9403 36.3755 26.8315 36.529C26.7227 36.6824 26.5846 36.8127 26.4251 36.9123C26.2655 37.012 26.0878 37.079 25.9022 37.1094C25.7166 37.1399 25.5268 37.1332 25.3438 37.0898C23.0928 36.5887 20.7576 36.6043 18.5135 37.1352C16.2694 37.6662 14.1748 38.6988 12.3871 40.1554C10.5993 41.6121 9.16493 43.4549 8.19162 45.5455C7.21831 47.6361 6.73138 49.92 6.76745 52.2258C6.80353 54.5316 7.36171 56.7992 8.39994 58.8583C9.43817 60.9174 10.9295 62.7145 12.7619 64.1145C14.5943 65.5145 16.7202 66.4811 18.9798 66.9416C21.2394 67.4021 23.574 67.3445 25.8082 66.7733C26.1733 66.679 26.5608 66.7336 26.8857 66.9252C27.2105 67.1167 27.4459 67.4294 27.5402 67.7945C27.6344 68.1596 27.5798 68.5472 27.3883 68.872C27.1968 69.1968 26.8841 69.4322 26.519 69.5265C22.1894 70.6364 17.6023 70.1067 13.6397 68.039C9.67708 65.9714 6.61866 62.5119 5.05251 58.3257Z"
								fill="black" />
							<path fill-rule="evenodd" clip-rule="evenodd"
								d="M11.5837 21.2076C11.0921 19.4313 11.1383 17.5491 11.7163 15.799C12.2943 14.0489 13.3783 12.5095 14.8312 11.3755C16.2841 10.2414 18.0406 9.56356 19.8787 9.4277C21.7167 9.29184 23.5538 9.70404 25.1576 10.6122C26.7614 11.5203 28.06 12.8836 28.8891 14.5297C29.7181 16.1758 30.0405 18.0307 29.8154 19.86C29.5903 21.6893 28.8279 23.4108 27.6245 24.8068C26.4211 26.2028 24.8308 27.2106 23.0546 27.7029C21.875 28.0298 20.6424 28.1211 19.4275 27.9716C18.2125 27.8221 17.0388 27.4347 15.9736 26.8316C14.9084 26.2284 13.9724 25.4213 13.2192 24.4563C12.466 23.4913 11.9102 22.3874 11.5837 21.2076ZM22.2964 24.9623C23.5306 24.62 24.6357 23.9195 25.4718 22.9493C26.3079 21.9791 26.8375 20.7828 26.9937 19.5116C27.15 18.2404 26.9257 16.9514 26.3495 15.8076C25.7732 14.6638 24.8708 13.7165 23.7562 13.0856C22.6416 12.4547 21.365 12.1684 20.0877 12.2629C18.8104 12.3575 17.5899 12.8286 16.5804 13.6168C15.5708 14.405 14.8177 15.4748 14.4161 16.691C14.0145 17.9071 13.9826 19.2151 14.3243 20.4494C14.5513 21.2693 14.9376 22.0364 15.4611 22.707C15.9846 23.3775 16.6351 23.9384 17.3754 24.3575C18.1157 24.7765 18.9314 25.0457 19.7758 25.1494C20.6201 25.2532 21.4766 25.1896 22.2964 24.9623Z"
								fill="black" />
							<path fill-rule="evenodd" clip-rule="evenodd"
								d="M37.1689 71.1549C37.0044 71.0666 36.8589 70.9467 36.7407 70.8021C36.6225 70.6575 36.534 70.4911 36.4802 70.3123C36.4263 70.1335 36.4083 69.9458 36.427 69.76C36.4457 69.5742 36.5008 69.3939 36.5892 69.2294L39.1529 64.6597L38.9776 64.546C33.3969 60.5828 32.1143 54.1555 36.1975 47.6445C40.4087 40.9218 50.2558 34.1549 66.5713 29.3214C67.9929 28.8996 69.0275 30.6767 67.9644 31.705C56.8189 42.4856 46.787 56.2879 39.0944 70.591C38.9133 70.9206 38.6091 71.1649 38.2482 71.2706C37.8873 71.3763 37.4992 71.3347 37.1689 71.1549ZM61.8515 33.839L61.6856 33.8958C49.15 38.4087 41.8192 44.0209 38.6064 49.1483C35.5199 54.0734 36.1927 58.5594 39.8479 61.6269L40.6235 62.1703L42.8759 58.4646C48.4582 49.6379 54.8555 41.2472 61.7757 33.9116L61.8515 33.839Z"
								fill="black" />
							<path fill-rule="evenodd" clip-rule="evenodd"
								d="M40.9273 65.7241C40.6643 65.4597 40.5158 65.1024 40.5137 64.7295C40.5116 64.3565 40.6562 63.9976 40.9163 63.7303C41.1764 63.4629 41.5311 63.3085 41.904 63.3003C42.2769 63.2921 42.6381 63.4308 42.9097 63.6865C48.6815 69.3066 55.3884 68.8217 60.2203 63.3895C65.1944 57.7931 68.3062 46.7218 65.5909 31.0081C65.5266 30.6365 65.6126 30.2546 65.8299 29.9464C66.0471 29.6382 66.3779 29.4289 66.7495 29.3646C67.1211 29.3003 67.503 29.3862 67.8113 29.6035C68.1195 29.8208 68.3287 30.1516 68.3931 30.5232C71.1905 46.7123 68.1135 58.7977 62.3465 65.2834C56.4293 71.935 47.8506 72.4658 40.9273 65.7241Z"
								fill="black" />
							<path fill-rule="evenodd" clip-rule="evenodd"
								d="M62.8813 81.2085C62.0876 78.3419 62.1617 75.3044 63.0943 72.48C64.0269 69.6555 65.7761 67.1711 68.1207 65.3408C70.4653 63.5104 73.3 62.4165 76.2664 62.1972C79.2327 61.9779 82.1974 62.6431 84.7857 64.1088C87.3739 65.5745 89.4695 67.7747 90.8073 70.4313C92.1451 73.0879 92.665 76.0815 92.3015 79.0336C91.9379 81.9858 90.7072 84.7638 88.7648 87.0164C86.8224 89.269 84.2557 90.8951 81.3892 91.689C77.5451 92.7519 73.4363 92.245 69.9658 90.2798C66.4953 88.3146 63.9471 85.0518 62.8813 81.2085ZM80.631 88.9485C82.9563 88.3054 85.0388 86.9871 86.6149 85.1604C88.191 83.3336 89.19 81.0805 89.4855 78.686C89.781 76.2915 89.3596 73.8632 88.2749 71.7081C87.1901 69.553 85.4906 67.7681 83.3913 66.579C81.292 65.3899 78.8872 64.8501 76.4811 65.0279C74.075 65.2056 71.7756 66.0929 69.8738 67.5776C67.9721 69.0623 66.5533 71.0776 65.797 73.3687C65.0407 75.6597 64.9808 78.1236 65.6249 80.4487C66.4898 83.5644 68.556 86.2095 71.3695 87.8032C74.183 89.3968 77.514 89.8087 80.631 88.9485Z"
								fill="black" />
							<path fill-rule="evenodd" clip-rule="evenodd"
								d="M49.4095 64.8488C49.0393 64.8057 48.7007 64.6188 48.4669 64.3286C48.2331 64.0383 48.1226 63.6678 48.1592 63.2969C48.1959 62.926 48.3768 62.5843 48.6629 62.3454C48.949 62.1065 49.3176 61.9896 49.6891 62.0198C51.9273 62.2409 53.7122 61.4164 55.2981 59.7183C56.9346 57.965 58.3104 55.316 59.5488 52.0463C59.6856 51.6981 59.9541 51.4179 60.2961 51.2664C60.6381 51.1149 61.0261 51.1042 61.3759 51.2368C61.7257 51.3694 62.0091 51.6346 62.1647 51.9747C62.3204 52.3149 62.3356 52.7027 62.2072 53.0541C60.9278 56.4312 59.394 59.4956 57.3753 61.658C55.3013 63.8774 52.6792 65.1647 49.4095 64.8488Z"
								fill="black" />
							<path fill-rule="evenodd" clip-rule="evenodd"
								d="M29.6384 41.1812C29.4683 41.1043 29.315 40.9946 29.1873 40.8584C29.0596 40.7222 28.96 40.5622 28.8941 40.3875C28.8282 40.2128 28.7975 40.0268 28.8035 39.8402C28.8095 39.6536 28.8522 39.47 28.9291 39.2999C33.393 29.4339 41.8232 24.1597 53.2688 23.0208C53.456 22.9995 53.6455 23.0157 53.8264 23.0683C54.0073 23.1209 54.1759 23.209 54.3224 23.3273C54.469 23.4457 54.5905 23.592 54.68 23.7577C54.7696 23.9234 54.8252 24.1053 54.8439 24.2927C54.8625 24.4802 54.8437 24.6695 54.7886 24.8496C54.7334 25.0297 54.643 25.197 54.5226 25.3419C54.4022 25.4868 54.2543 25.6063 54.0873 25.6935C53.9204 25.7807 53.7377 25.8338 53.55 25.8498C42.94 26.905 35.5002 31.6737 31.5196 40.472C31.4427 40.6421 31.3329 40.7954 31.1968 40.9231C31.0606 41.0508 30.9006 41.1504 30.7259 41.2162C30.5512 41.2821 30.3653 41.3129 30.1787 41.3069C29.9921 41.3009 29.8085 41.2582 29.6384 41.1812Z"
								fill="black" />
							<path fill-rule="evenodd" clip-rule="evenodd"
								d="M81.5211 38.4138C81.5151 38.037 81.6591 37.6733 81.9212 37.4026C82.1833 37.1319 82.5421 36.9763 82.9189 36.9701C84.836 36.9403 86.7054 36.3678 88.3104 35.3189C89.9153 34.27 91.1901 32.7877 91.9869 31.0437C92.7836 29.2998 93.0698 27.3658 92.8122 25.4659C92.5546 23.566 91.7637 21.778 90.5312 20.3093C89.2988 18.8405 87.6753 17.7512 85.8489 17.1676C84.0226 16.584 82.0683 16.53 80.2125 17.0119C78.3567 17.4938 76.6756 18.4918 75.3639 19.8903C74.0523 21.2887 73.1639 23.0303 72.8017 24.9131C72.7687 25.0987 72.6992 25.2759 72.597 25.4344C72.4949 25.5928 72.3623 25.7294 72.2069 25.8361C72.0515 25.9428 71.8764 26.0176 71.6919 26.056C71.5073 26.0944 71.317 26.0958 71.1319 26.0599C70.9468 26.0241 70.7707 25.9519 70.6139 25.8473C70.457 25.7428 70.3225 25.6082 70.2181 25.4512C70.1138 25.2942 70.0417 25.118 70.0061 24.9329C69.9705 24.7478 69.972 24.5574 70.0106 24.3729C70.4763 21.9652 71.6146 19.7387 73.2937 17.9514C74.9727 16.1641 77.1239 14.889 79.4978 14.2741C81.8718 13.6591 84.3715 13.7293 86.7071 14.4766C89.0428 15.2239 91.119 16.6177 92.695 18.4965C94.2711 20.3753 95.2826 22.6622 95.6123 25.0923C95.9421 27.5223 95.5765 29.9961 94.5581 32.2269C93.5396 34.4578 91.9099 36.3544 89.8578 37.697C87.8057 39.0397 85.4152 39.7735 82.9632 39.8133C82.5864 39.8188 82.2229 39.6745 81.9524 39.412C81.682 39.1496 81.5269 38.7906 81.5211 38.4138Z"
								fill="black" />
							<path fill-rule="evenodd" clip-rule="evenodd"
								d="M85.1697 79.076C84.9832 79.0655 84.8007 79.0184 84.6324 78.9373C84.4641 78.8562 84.3135 78.7427 84.1891 78.6033C84.0647 78.464 83.9689 78.3015 83.9074 78.1251C83.8458 77.9487 83.8196 77.7619 83.8303 77.5754C84.0008 74.5837 82.8699 72.6787 81.0313 71.2145C80.8801 71.0998 80.7535 70.9561 80.6588 70.7918C80.564 70.6274 80.5031 70.4458 80.4797 70.2576C80.4562 70.0693 80.4707 69.8783 80.5222 69.6957C80.5737 69.5132 80.6612 69.3428 80.7795 69.1946C80.8979 69.0463 81.0448 68.9233 81.2115 68.8327C81.3781 68.7421 81.5612 68.6858 81.75 68.6671C81.9387 68.6484 82.1293 68.6676 82.3105 68.7237C82.4917 68.7797 82.6599 68.8715 82.8051 68.9936C85.2898 70.9775 86.8978 73.7323 86.6703 77.7365C86.6598 77.9231 86.6128 78.1057 86.5317 78.274C86.4506 78.4422 86.3371 78.5929 86.1977 78.7173C86.0583 78.8417 85.8958 78.9374 85.7194 78.999C85.5431 79.0605 85.3562 79.0867 85.1697 79.076Z"
								fill="black" />
							<path fill-rule="evenodd" clip-rule="evenodd"
								d="M87.8081 27.2535C87.3769 24.2886 85.8889 22.6522 83.7928 21.5797C83.4763 21.3976 83.242 21.1007 83.1385 20.7506C83.0349 20.4005 83.07 20.0239 83.2366 19.699C83.4031 19.3741 83.6882 19.1257 84.0329 19.0053C84.3776 18.8849 84.7554 18.9017 85.088 19.0523C87.9186 20.5008 90.0447 22.8781 90.6165 26.8476C90.6563 27.0376 90.6567 27.2338 90.6177 27.424C90.5787 27.6143 90.5011 27.7945 90.3898 27.9536C90.2785 28.1127 90.1357 28.2473 89.9704 28.3491C89.805 28.4509 89.6206 28.5177 89.4284 28.5455C89.2362 28.5733 89.0404 28.5614 88.853 28.5106C88.6656 28.4598 88.4906 28.3711 88.3387 28.25C88.1869 28.129 88.0616 27.9781 87.9703 27.8067C87.879 27.6353 87.8238 27.4471 87.8081 27.2535Z"
								fill="black" />
						</svg>