<svg width="100" height="100" viewBox="0 0 100 100" fill="none" xmlns="http://www.w3.org/2000/svg">
							<path fill-rule="evenodd" clip-rule="evenodd"
								d="M31.7256 32.5046C31.3986 32.3176 31.1592 32.0084 31.06 31.645C30.9607 31.2816 31.0098 30.8937 31.1964 30.5665C34.7252 24.3824 38.4846 18.6075 42.0544 12.8626C43.8788 9.92612 46.1124 7.96586 48.7155 7.90584C51.344 7.84266 53.5775 9.72551 55.3498 12.5577C56.307 14.0794 57.2653 15.5926 58.2246 17.0974C58.3247 17.2551 58.3927 17.4309 58.4249 17.6148C58.457 17.7988 58.4526 17.9873 58.4119 18.1695C58.3712 18.3517 58.295 18.5242 58.1877 18.677C58.0803 18.8298 57.9439 18.96 57.7862 19.06C57.6286 19.1601 57.4528 19.2282 57.2688 19.2603C57.0849 19.2925 56.8964 19.288 56.7142 19.2473C56.5319 19.2066 56.3595 19.1304 56.2067 19.0231C56.0539 18.9157 55.9237 18.7793 55.8237 18.6217C54.8664 17.1148 53.906 15.5978 52.9425 14.0709C51.3313 11.5088 49.8686 10.7222 48.7755 10.7538C47.6556 10.7807 46.1392 11.6684 44.4617 14.3695C40.8508 20.1807 37.1514 25.8577 33.6574 31.9818C33.4693 32.306 33.1609 32.5428 32.7991 32.6407C32.4373 32.7387 32.0515 32.6897 31.7256 32.5046Z"
								fill="black" />
							<path fill-rule="evenodd" clip-rule="evenodd"
								d="M25.838 77.0992C23.1932 73.5544 21.4001 69.4482 20.5975 65.0989C19.7949 60.7496 20.0044 56.2739 21.2098 52.0186C21.2171 51.9897 21.2261 51.9612 21.2367 51.9333C22.0496 49.6324 22.9132 47.412 23.8272 45.2722C23.8951 45.0936 23.9982 44.9305 24.1306 44.7927C24.2629 44.6548 24.4216 44.545 24.5973 44.4699C24.773 44.3948 24.962 44.3559 25.1531 44.3555C25.3442 44.3551 25.5334 44.3932 25.7094 44.4675C25.8854 44.5419 26.0446 44.651 26.1775 44.7883C26.3104 44.9255 26.4143 45.0882 26.4829 45.2665C26.5516 45.4449 26.5835 45.6352 26.5769 45.8261C26.5704 46.0171 26.5253 46.2048 26.4446 46.3779C25.778 47.9459 25.1367 49.5555 24.5206 51.2067L23.933 52.8289L23.7482 53.5161C22.806 57.2575 22.709 61.1618 23.4642 64.9455C24.2194 68.7291 25.8078 72.297 28.1142 75.3901C28.2307 75.5392 28.3163 75.71 28.3659 75.8926C28.4155 76.0752 28.4282 76.2658 28.4032 76.4534C28.3782 76.6409 28.3159 76.8216 28.2202 76.9848C28.1245 77.148 27.9971 77.2904 27.8456 77.4038C27.6941 77.5171 27.5215 77.5991 27.3379 77.6448C27.1543 77.6906 26.9635 77.6993 26.7765 77.6703C26.5895 77.6413 26.4102 77.5753 26.249 77.4762C26.0879 77.377 25.9481 77.2467 25.838 77.0929V77.0992Z"
								fill="black" />
							<path fill-rule="evenodd" clip-rule="evenodd"
								d="M32.7233 83.6648C32.4112 83.453 32.1959 83.1259 32.125 82.7555C32.054 82.385 32.1332 82.0016 32.345 81.6895C32.5567 81.3774 32.8838 81.1622 33.2542 81.0913C33.6247 81.0203 34.0081 81.0994 34.3202 81.3112C45.8511 89.1364 61.6106 86.4117 69.8228 75.0403C71.8791 72.1997 73.3348 68.9699 74.1012 65.5479C74.8676 62.126 74.9286 58.5838 74.2804 55.1376L73.587 52.3148L72.1654 48.5934C70.6821 44.9098 69.0805 41.4631 67.3903 38.1681C67.2306 37.8344 67.2073 37.4516 67.3253 37.1009C67.4433 36.7503 67.6934 36.4595 68.0224 36.2902C68.3514 36.121 68.7333 36.0867 69.0872 36.1946C69.4411 36.3025 69.739 36.5441 69.9176 36.8681C72.3434 41.5665 74.4675 46.4145 76.277 51.3829L76.3007 51.4524C77.6058 55.696 77.9082 60.1847 77.1841 64.565C76.4599 68.9454 74.729 73.0979 72.1275 76.6957C63.0117 89.326 45.5242 92.3493 32.7233 83.6648Z"
								fill="black" />
							<path fill-rule="evenodd" clip-rule="evenodd"
								d="M76.5784 22.5602C76.1171 19.3884 74.5249 17.6319 72.2772 16.482C71.9607 16.2999 71.7264 16.0031 71.6228 15.653C71.5193 15.3028 71.5544 14.9263 71.7209 14.6014C71.8875 14.2764 72.1726 14.028 72.5173 13.9076C72.862 13.7872 73.2398 13.8041 73.5724 13.9547C76.5515 15.479 78.7851 17.9779 79.3916 22.1559C79.4227 22.3425 79.4163 22.5335 79.3726 22.7177C79.3289 22.9018 79.2489 23.0754 79.1373 23.2282C79.0257 23.381 78.8847 23.51 78.7226 23.6076C78.5604 23.7052 78.3805 23.7695 78.1932 23.7966C78.0059 23.8237 77.815 23.8132 77.6319 23.7656C77.4487 23.718 77.2769 23.6343 77.1265 23.5195C76.9761 23.4046 76.8502 23.2609 76.756 23.0967C76.6619 22.9325 76.6015 22.7512 76.5784 22.5634V22.5602Z"
								fill="black" />
							<path fill-rule="evenodd" clip-rule="evenodd"
								d="M17.7567 43.163C16.5235 41.5976 15.7822 39.7016 15.6265 37.7149C15.4708 35.7282 15.9077 33.7399 16.882 32.0015C17.8563 30.263 19.3242 28.8526 21.1001 27.9484C22.876 27.0442 24.8801 26.687 26.8591 26.9218C28.838 27.1566 30.7029 27.9729 32.2179 29.2675C33.7329 30.5622 34.83 32.277 35.3704 34.1951C35.9108 36.1133 35.8703 38.1486 35.2541 40.0437C34.6378 41.9389 33.4734 43.6087 31.9081 44.8421C29.8085 46.495 27.1385 47.2466 24.4849 46.9317C21.8313 46.6168 19.4113 45.2613 17.7567 43.163ZM30.1485 42.6085C31.2721 41.7232 32.1079 40.5245 32.5503 39.1642C32.9926 37.8038 33.0217 36.3428 32.6337 34.9659C32.2458 33.589 31.4582 32.3581 30.3707 31.4288C29.2832 30.4995 27.9446 29.9135 26.524 29.7449C25.1035 29.5764 23.6649 29.8329 22.3901 30.4819C21.1153 31.131 20.0617 32.1435 19.3623 33.3913C18.6629 34.6392 18.3493 36.0664 18.4611 37.4926C18.5729 38.9187 19.105 40.2796 19.9902 41.4033C21.1779 42.9096 22.9151 43.8827 24.8199 44.1087C26.7247 44.3347 28.6413 43.7951 30.1485 42.6085Z"
								fill="black" />
							<path fill-rule="evenodd" clip-rule="evenodd"
								d="M27.6103 36.1211C27.3734 35.1591 26.8774 34.7216 26.1619 34.4404C25.811 34.3019 25.5295 34.0298 25.3793 33.6838C25.2291 33.3378 25.2225 32.9463 25.361 32.5954C25.4995 32.2446 25.7716 31.9631 26.1176 31.8129C26.4636 31.6627 26.8551 31.6561 27.2059 31.7946C28.6876 32.379 29.8912 33.4958 30.3651 35.4403C30.4554 35.8064 30.3965 36.1934 30.2014 36.5162C30.1048 36.676 29.9778 36.8152 29.8274 36.9259C29.677 37.0365 29.5062 37.1165 29.325 37.1612C28.9588 37.2515 28.5718 37.1926 28.2491 36.9975C27.9263 36.8025 27.6943 36.4872 27.604 36.1211H27.6103Z"
								fill="black" />
							<path fill-rule="evenodd" clip-rule="evenodd"
								d="M72.4076 80.9044C71.2178 79.3987 70.3904 77.6395 69.9892 75.7629C69.9178 75.3971 69.9929 75.018 70.1983 74.707C70.4038 74.3961 70.7231 74.1783 71.0875 74.1004C71.4519 74.0226 71.8324 74.0909 72.1469 74.2908C72.4614 74.4906 72.6849 74.806 72.7692 75.169C73.2082 77.2115 74.2927 79.0585 75.8624 80.4371C77.4321 81.8157 79.4037 82.6526 81.4857 82.8242C83.5678 82.9959 85.6498 82.493 87.4241 81.3901C89.1983 80.2871 90.5706 78.6426 91.3381 76.6996C92.1056 74.7566 92.2275 72.6181 91.6859 70.6005C91.1444 68.5828 89.9679 66.7929 88.3306 65.4953C86.6933 64.1978 84.6819 63.4615 82.5939 63.3953C80.5058 63.3291 78.4518 63.9364 76.7356 65.1276C76.5824 65.2343 76.4097 65.3098 76.2273 65.3498C76.0449 65.3898 75.8565 65.3934 75.6727 65.3606C75.4889 65.3277 75.3134 65.259 75.1562 65.1583C74.9989 65.0576 74.8631 64.927 74.7564 64.7738C74.6496 64.6206 74.5741 64.4479 74.5342 64.2655C74.4942 64.0831 74.4905 63.8947 74.5234 63.7109C74.5562 63.5271 74.625 63.3516 74.7257 63.1944C74.8264 63.0371 74.957 62.9013 75.1102 62.7946C77.1263 61.3939 79.5083 60.614 81.9624 60.551C84.4165 60.488 86.8354 61.1448 88.9207 62.4402C91.006 63.7356 92.6665 65.6131 93.6974 67.8411C94.7284 70.069 95.0846 72.55 94.7223 74.978C94.3599 77.406 93.2948 79.6749 91.6583 81.5048C90.0218 83.3346 87.8854 84.6455 85.5128 85.2756C83.1401 85.9058 80.6349 85.8276 78.3061 85.0509C75.9774 84.2741 73.9269 82.8327 72.4076 80.9044Z"
								fill="black" />
							<path fill-rule="evenodd" clip-rule="evenodd"
								d="M86.6596 72.7546C86.0357 70.2273 84.6157 68.9384 82.7107 68.1865C82.3598 68.048 82.0783 67.7759 81.9281 67.4299C81.778 67.0839 81.7714 66.6924 81.9098 66.3415C82.0483 65.9907 82.3205 65.7092 82.6665 65.559C83.0125 65.4088 83.4039 65.4022 83.7548 65.5407C86.4274 66.5958 88.5551 68.5545 89.4223 72.0738C89.5126 72.44 89.4537 72.827 89.2587 73.1497C89.0636 73.4725 88.7483 73.7045 88.3822 73.7948C88.016 73.8851 87.629 73.8262 87.3062 73.6311C86.9835 73.4361 86.7515 73.1208 86.6612 72.7546H86.6596Z"
								fill="black" />
							<path fill-rule="evenodd" clip-rule="evenodd"
								d="M58.0423 32.8862C56.2194 30.5726 55.1235 27.7704 54.8933 24.834C54.663 21.8976 55.3086 18.9588 56.7486 16.3893C58.1885 13.8198 60.358 11.735 62.9828 10.3986C65.6076 9.06212 68.5698 8.53404 71.4947 8.8811C74.4196 9.22816 77.1759 10.4348 79.4151 12.3484C81.6543 14.2619 83.2757 16.7965 84.0743 19.6316C84.873 22.4667 84.813 25.475 83.9019 28.276C82.9908 31.077 81.2697 33.545 78.956 35.3677C75.8529 37.8102 71.9071 38.9209 67.9855 38.4556C64.064 37.9902 60.4876 35.9871 58.0423 32.8862ZM77.1979 33.1342C79.0696 31.6593 80.4621 29.6625 81.199 27.3963C81.9359 25.1301 81.9844 22.6962 81.3381 20.4025C80.6918 18.1088 79.3799 16.0582 77.5683 14.5101C75.7566 12.9619 73.5266 11.9858 71.1601 11.705C68.7937 11.4243 66.3972 11.8515 64.2736 12.9328C62.15 14.0141 60.3947 15.7007 59.2297 17.7796C58.0646 19.8584 57.5422 22.236 57.7284 24.6117C57.9146 26.9875 58.8011 29.2546 60.2759 31.1266C62.2548 33.6351 65.1485 35.2556 68.3214 35.632C71.4943 36.0085 74.6869 35.1101 77.1979 33.1342Z"
								fill="black" />
							<path fill-rule="evenodd" clip-rule="evenodd"
								d="M6.76137 60.4182C5.50838 58.3695 4.78325 56.0419 4.65095 53.644C4.51865 51.2462 4.98332 48.8529 6.00331 46.6788C7.02331 44.5047 8.56676 42.6175 10.4954 41.1865C12.424 39.7555 14.6774 38.8254 17.0539 38.4794C17.4272 38.4256 17.8065 38.5222 18.1085 38.7481C18.4105 38.974 18.6105 39.3106 18.6643 39.6838C18.7181 40.0571 18.6215 40.4365 18.3956 40.7385C18.1697 41.0405 17.8331 41.2404 17.4599 41.2942C14.4794 41.7236 11.7803 43.2886 9.927 45.662C8.07371 48.0354 7.20972 51.0334 7.51572 54.029C7.82171 57.0247 9.27395 59.7861 11.5688 61.7358C13.8637 63.6854 16.8235 64.6724 19.8292 64.4904C20.2063 64.4694 20.5762 64.5991 20.8576 64.8509C21.139 65.1027 21.3089 65.456 21.3298 65.833C21.3508 66.21 21.2211 66.5799 20.9693 66.8614C20.7175 67.1428 20.3642 67.3126 19.9872 67.3336C17.363 67.4868 14.7465 66.9244 12.4171 65.7065C10.0877 64.4885 8.13286 62.6607 6.76137 60.4182Z"
								fill="black" />
							<path fill-rule="evenodd" clip-rule="evenodd"
								d="M34.5776 71.6463C32.8314 69.427 31.6594 66.8113 31.1653 64.031C30.6712 61.2506 30.8704 58.3913 31.7451 55.7062C32.6198 53.0212 34.1431 50.5933 36.1801 48.6374C38.2171 46.6816 40.7049 45.2582 43.4233 44.4933C43.6031 44.4429 43.7911 44.4284 43.9766 44.4507C44.162 44.4729 44.3413 44.5315 44.5041 44.623C44.6669 44.7146 44.8101 44.8373 44.9255 44.9841C45.0409 45.131 45.1262 45.2992 45.1766 45.479C45.227 45.6588 45.2415 45.8469 45.2192 46.0323C45.197 46.2177 45.1384 46.397 45.0469 46.5598C44.9554 46.7226 44.8326 46.8658 44.6858 46.9812C44.5389 47.0966 44.3708 47.1819 44.1909 47.2323C40.8505 48.1701 37.9636 50.2878 36.0659 53.1924C34.1682 56.097 33.3885 59.5913 33.8715 63.0271C34.3545 66.4629 36.0673 69.6069 38.6923 71.8758C41.3172 74.1446 44.6761 75.3843 48.1456 75.3648C51.6151 75.3453 54.9598 74.068 57.5591 71.7698C60.1584 69.4716 61.8358 66.3086 62.2802 62.8676C62.7245 59.4266 61.9056 55.9412 59.9754 53.0581C58.0452 50.175 55.1347 48.0899 51.784 47.1897C51.6036 47.1415 51.4345 47.0582 51.2864 46.9446C51.1382 46.831 51.0138 46.6894 50.9204 46.5277C50.8269 46.3661 50.7663 46.1876 50.7418 46.0025C50.7173 45.8174 50.7295 45.6293 50.7778 45.449C50.826 45.2686 50.9093 45.0995 51.0229 44.9514C51.1365 44.8032 51.2781 44.6788 51.4398 44.5854C51.6014 44.4919 51.7798 44.4313 51.9649 44.4068C52.15 44.3823 52.3381 44.3946 52.5185 44.4428C55.1443 45.1471 57.5654 46.4651 59.5823 48.2881C61.5992 50.1111 63.1542 52.3871 64.1195 54.9287C65.0847 57.4702 65.4325 60.2047 65.1342 62.907C64.836 65.6093 63.9001 68.2021 62.4038 70.4719C60.9075 72.7418 58.8935 74.6238 56.5275 75.9631C54.1616 77.3023 51.5114 78.0605 48.7951 78.1751C46.0788 78.2898 43.3741 77.7577 40.9037 76.6226C38.4333 75.4876 36.2678 73.782 34.5855 71.6463H34.5776Z"
								fill="black" />
							<path fill-rule="evenodd" clip-rule="evenodd"
								d="M50.7209 45.5916V37.1172C50.7212 36.8922 50.7749 36.6705 50.8776 36.4703C50.9803 36.2701 51.1291 36.0971 51.3116 35.9656L52.6053 35.0321V33.1714H48.154C47.777 33.1714 47.4154 33.0216 47.1488 32.755C46.8822 32.4884 46.7324 32.1268 46.7324 31.7497C46.7324 31.3727 46.8822 31.0111 47.1488 30.7445C47.4154 30.4779 47.777 30.3281 48.154 30.3281H54.0269C54.4039 30.3281 54.7656 30.4779 55.0322 30.7445C55.2988 31.0111 55.4485 31.3727 55.4485 31.7497V35.7587C55.4485 35.984 55.3949 36.206 55.2922 36.4065C55.1894 36.607 55.0406 36.7802 54.8578 36.9118L53.5641 37.8453V45.5853C53.5641 45.9623 53.4143 46.3239 53.1477 46.5905C52.8811 46.8571 52.5195 47.0069 52.1425 47.0069C51.7654 47.0069 51.4038 46.8571 51.1372 46.5905C50.8706 46.3239 50.7209 45.9623 50.7209 45.5853V45.5916Z"
								fill="black" />
							<path fill-rule="evenodd" clip-rule="evenodd"
								d="M42.7438 45.5916V37.8517L41.4501 36.9181C41.2674 36.7865 41.1185 36.6133 41.0158 36.4128C40.913 36.2123 40.8594 35.9903 40.8594 35.765V31.7497C40.8594 31.3727 41.0091 31.0111 41.2758 30.7445C41.5424 30.4779 41.904 30.3281 42.281 30.3281H48.1539C48.5309 30.3281 48.8925 30.4779 49.1591 30.7445C49.4257 31.0111 49.5755 31.3727 49.5755 31.7497C49.5755 32.1268 49.4257 32.4884 49.1591 32.755C48.8925 33.0216 48.5309 33.1714 48.1539 33.1714H43.7026V35.0321L44.9963 35.9656C45.1789 36.0971 45.3276 36.2701 45.4303 36.4703C45.533 36.6705 45.5867 36.8922 45.587 37.1172V45.5916C45.587 45.9686 45.4373 46.3302 45.1707 46.5968C44.9041 46.8635 44.5425 47.0132 44.1654 47.0132C43.7884 47.0132 43.4268 46.8635 43.1602 46.5968C42.8936 46.3302 42.7438 45.9686 42.7438 45.5916Z"
								fill="black" />
							<path fill-rule="evenodd" clip-rule="evenodd"
								d="M32.3938 61.7209C32.2289 61.6334 32.0828 61.5142 31.964 61.3702C31.8451 61.2262 31.7558 61.0602 31.7011 60.8817C31.6464 60.7032 31.6274 60.5157 31.6451 60.3298C31.6629 60.144 31.7171 59.9634 31.8046 59.7985C31.8922 59.6336 32.0113 59.4876 32.1553 59.3687C32.2993 59.2499 32.4653 59.1605 32.6438 59.1058C32.8223 59.0511 33.0098 59.0321 33.1957 59.0499C33.3815 59.0676 33.5621 59.1218 33.727 59.2094C36.0963 60.473 38.3378 60.7194 40.5729 60.473C42.8664 60.2203 45.1173 59.4542 47.5735 58.6549C52.3707 57.0927 57.814 55.431 63.8211 59.2662C64.1389 59.4694 64.3629 59.7905 64.4439 60.1589C64.5249 60.5272 64.4563 60.9127 64.2531 61.2304C64.05 61.5482 63.7289 61.7722 63.3605 61.8532C62.9921 61.9343 62.6067 61.8656 62.2889 61.6624C57.5091 58.6091 53.2853 59.7875 48.4534 61.3576C46.0919 62.1268 43.5314 63.0067 40.8856 63.2989C38.1814 63.5974 35.3508 63.2926 32.3938 61.7209Z"
								fill="black" />
						</svg>