<svg width="100" height="100" viewBox="0 0 100 100" fill="none" xmlns="http://www.w3.org/2000/svg">
							<path fill-rule="evenodd" clip-rule="evenodd"
								d="M70.6486 60.1759C68.1861 58.397 66.3065 55.9279 65.2472 53.0809C64.188 50.2338 63.9968 47.1366 64.6977 44.1808C65.3987 41.2251 66.9604 38.5435 69.1853 36.4753C71.4102 34.407 74.1984 33.0449 77.1975 32.5612C80.1965 32.0775 83.2716 32.4939 86.0339 33.7578C88.7963 35.0217 91.1219 37.0762 92.7166 39.6617C94.3113 42.2472 95.1036 45.2475 94.9932 48.2832C94.8828 51.3189 93.8747 54.2538 92.0964 56.7166C89.7103 60.0185 86.1106 62.2377 82.0887 62.8863C78.0668 63.535 73.9519 62.5601 70.6486 60.1759ZM89.7902 55.0549C91.2399 53.0477 92.0618 50.6558 92.152 48.1815C92.2422 45.7072 91.5966 43.2618 90.2969 41.1544C88.9972 39.047 87.1018 37.3724 84.8503 36.3423C82.5988 35.3122 80.0924 34.9728 77.648 35.3672C75.2037 35.7615 72.9312 36.8718 71.1179 38.5577C69.3046 40.2436 68.032 42.4294 67.461 44.8385C66.89 47.2477 67.0463 49.7721 67.91 52.0925C68.7737 54.4129 70.3061 56.425 72.3135 57.8744C75.0053 59.8171 78.3584 60.6113 81.6356 60.0826C84.9128 59.5539 87.846 57.7455 89.7902 55.0549Z"
								fill="black" />
							<path fill-rule="evenodd" clip-rule="evenodd"
								d="M38.2008 65.1632C34.2094 62.2826 31.4788 57.9772 30.5745 53.1387C29.6701 48.3002 30.6614 43.2992 33.343 39.1715C36.0246 35.0437 40.191 32.1054 44.9794 30.965C49.7679 29.8247 54.8116 30.5696 59.0658 33.0456C59.3841 33.2391 59.6136 33.5497 59.7052 33.9107C59.7968 34.2717 59.7431 34.6542 59.5556 34.976C59.3681 35.2978 59.0618 35.5332 58.7026 35.6315C58.3434 35.7298 57.96 35.6833 57.6347 35.5019C55.1511 34.0583 52.3307 33.2955 49.4581 33.2903C46.5854 33.2851 43.7623 34.0378 41.2735 35.4723C38.7847 36.9069 36.7184 38.9725 35.2831 41.4608C33.8478 43.9492 33.0943 46.7721 33.0986 49.6446C33.103 52.5172 33.865 55.3378 35.3078 57.8218C36.7507 60.3058 38.8232 62.3652 41.3163 63.7922C43.8094 65.2192 46.6349 65.9633 49.5075 65.9495C52.3801 65.9356 55.1982 65.1642 57.6774 63.7132C57.8387 63.6159 58.0177 63.5517 58.204 63.5242C58.3903 63.4967 58.5803 63.5065 58.7628 63.553C58.9453 63.5996 59.1167 63.6819 59.2671 63.7953C59.4175 63.9086 59.5439 64.0508 59.639 64.2134C59.734 64.376 59.7957 64.5559 59.8206 64.7426C59.8455 64.9293 59.8331 65.119 59.784 65.3009C59.735 65.4827 59.6503 65.653 59.5348 65.8018C59.4194 65.9507 59.2755 66.0751 59.1116 66.1678C55.9032 68.0432 52.2192 68.9466 48.5072 68.7683C44.7951 68.59 41.2147 67.3376 38.2008 65.1632Z"
								fill="black" />
							<path fill-rule="evenodd" clip-rule="evenodd"
								d="M85.1538 35.3266C85.0037 35.2156 84.8769 35.076 84.7808 34.916C84.6846 34.7559 84.6209 34.5785 84.5933 34.3938C84.5657 34.2091 84.5748 34.0208 84.62 33.8397C84.6652 33.6585 84.7457 33.488 84.8568 33.3379C85.4169 32.5784 85.7976 31.7018 85.9702 30.774C86.1429 29.8463 86.1031 28.8914 85.8538 27.9812C85.6045 27.071 85.1521 26.2292 84.5307 25.5189C83.9094 24.8086 83.1351 24.2484 82.2661 23.8803C81.3971 23.5122 80.4561 23.3458 79.5135 23.3936C78.571 23.4414 77.6516 23.7022 76.8243 24.1563C75.997 24.6105 75.2834 25.2462 74.7371 26.0157C74.1908 26.7852 73.826 27.6685 73.67 28.5992C73.6397 28.7834 73.5733 28.9598 73.4747 29.1184C73.3761 29.2769 73.2473 29.4145 73.0956 29.5233C72.9438 29.632 72.7722 29.7098 72.5904 29.7522C72.4085 29.7947 72.2202 29.8009 72.036 29.7705C71.8517 29.7401 71.6753 29.6737 71.5168 29.5751C71.3582 29.4766 71.2206 29.3477 71.1119 29.196C71.0031 29.0443 70.9253 28.8726 70.8829 28.6908C70.8405 28.509 70.8343 28.3206 70.8647 28.1364C71.0886 26.7795 71.6175 25.4912 72.4115 24.3684C73.2055 23.2456 74.244 22.3176 75.4487 21.6543C76.6534 20.9911 77.9929 20.6098 79.3663 20.5393C80.7397 20.4688 82.1112 20.7108 83.3775 21.2472C84.6438 21.7836 85.7719 22.6003 86.6768 23.6359C87.5816 24.6715 88.2397 25.8989 88.6014 27.2256C88.9631 28.5524 89.0191 29.944 88.765 31.2955C88.5109 32.647 87.9534 33.9233 87.1346 35.0281C86.9107 35.3292 86.5767 35.5296 86.2057 35.5855C85.8346 35.6414 85.4565 35.5484 85.1538 35.3266Z"
								fill="black" />
							<path fill-rule="evenodd" clip-rule="evenodd"
								d="M86.8914 47.7713C86.4175 44.0308 84.5599 41.9189 81.9409 40.5226C81.7731 40.4365 81.624 40.3179 81.5025 40.1736C81.3809 40.0294 81.2893 39.8624 81.233 39.6824C81.1766 39.5024 81.1566 39.313 81.1741 39.1252C81.1917 38.9374 81.2465 38.7549 81.3352 38.5885C81.424 38.4221 81.545 38.275 81.6912 38.1558C81.8374 38.0366 82.0058 37.9477 82.1867 37.8942C82.3676 37.8408 82.5573 37.8238 82.7448 37.8444C82.9323 37.865 83.1139 37.9227 83.2788 38.0142C86.626 39.7975 89.1044 42.6613 89.7126 47.4111C89.7362 47.5963 89.7232 47.7844 89.6741 47.9646C89.6251 48.1448 89.541 48.3136 89.4268 48.4613C89.3125 48.609 89.1703 48.7327 89.0082 48.8255C88.8461 48.9182 88.6673 48.9781 88.4821 49.0017C88.108 49.0495 87.7302 48.9467 87.4319 48.7159C87.1336 48.4852 86.9392 48.1454 86.8914 47.7713Z"
								fill="black" />
							<path fill-rule="evenodd" clip-rule="evenodd"
								d="M9.63577 80.7259C8.55007 76.798 9.06826 72.5998 11.0764 69.0539C13.0846 65.5079 16.4185 62.9043 20.3455 61.8151C20.7089 61.7146 21.0974 61.7626 21.4255 61.9484C21.7536 62.1343 21.9944 62.4429 22.0949 62.8063C22.1954 63.1698 22.1475 63.5582 21.9616 63.8863C21.7757 64.2144 21.4671 64.4552 21.1037 64.5557C18.9078 65.1645 16.9195 66.3608 15.3532 68.016C13.7869 69.6711 12.7019 71.7222 12.2151 73.9483C11.7283 76.1745 11.8582 78.4912 12.5907 80.649C13.3232 82.8068 14.6306 84.7239 16.3721 86.1936C18.1135 87.6633 20.223 88.63 22.4732 88.9896C24.7235 89.3491 27.0291 89.0878 29.1419 88.2339C31.2546 87.38 33.0943 85.9658 34.4627 84.1437C35.8312 82.3216 36.6765 80.1607 36.9077 77.8937C36.9218 77.7043 36.9738 77.5196 37.0605 77.3506C37.1472 77.1816 37.267 77.0317 37.4126 76.9097C37.5582 76.7878 37.7268 76.6962 37.9084 76.6405C38.09 76.5848 38.2809 76.5661 38.4699 76.5854C38.6589 76.6047 38.8421 76.6617 39.0087 76.753C39.1752 76.8443 39.3218 76.9681 39.4398 77.117C39.5577 77.2659 39.6446 77.4369 39.6953 77.62C39.7461 77.803 39.7596 77.9944 39.7351 78.1827C39.3718 81.7474 37.7744 85.073 35.2189 87.5847C32.6635 90.0963 29.3107 91.6361 25.7402 91.9378C22.1698 92.2394 18.6062 91.284 15.6655 89.2367C12.7249 87.1895 10.592 84.179 9.63577 80.7259Z"
								fill="black" />
							<path fill-rule="evenodd" clip-rule="evenodd"
								d="M61.0558 77.3863C60.8929 77.0467 60.8715 76.6564 60.9962 76.301C61.1209 75.9456 61.3815 75.6542 61.7208 75.4908C67.8886 72.5084 72.8141 67.4561 75.6387 61.2145C75.7941 60.871 76.0796 60.6033 76.4325 60.4703C76.7853 60.3373 77.1764 60.3499 77.52 60.5053C77.8635 60.6607 78.1312 60.9463 78.2642 61.2991C78.3972 61.6519 78.3846 62.0431 78.2292 62.3866C75.1294 69.2367 69.7237 74.7815 62.9545 78.0544C62.786 78.1354 62.6031 78.1824 62.4164 78.1927C62.2298 78.203 62.0429 78.1763 61.8665 78.1142C61.6901 78.0522 61.5277 77.9559 61.3886 77.831C61.2495 77.7061 61.1364 77.555 61.0558 77.3863Z"
								fill="black" />
							<path fill-rule="evenodd" clip-rule="evenodd"
								d="M30.2944 75.1666C15.9674 64.8204 12.7371 44.7929 23.085 30.4645C33.433 16.1362 53.4593 12.9075 67.7879 23.2553C71.479 25.9173 74.5576 29.3384 76.8169 33.2888C77.0041 33.6162 77.0537 34.0046 76.9546 34.3685C76.8555 34.7324 76.6159 35.0421 76.2885 35.2293C75.9611 35.4166 75.5727 35.4661 75.2088 35.367C74.8449 35.2679 74.5352 35.0283 74.348 34.7009C72.2877 31.1016 69.4804 27.9852 66.115 25.5615C53.0612 16.133 34.8105 19.0758 25.3834 32.131C15.9563 45.1862 18.907 63.4335 31.9529 72.862C38.0481 77.2745 45.6167 79.152 53.0675 78.0999C53.2524 78.0741 53.4407 78.0849 53.6214 78.1318C53.8021 78.1787 53.9719 78.2608 54.1209 78.3733C54.2699 78.4858 54.3953 78.6265 54.49 78.7875C54.5846 78.9485 54.6466 79.1265 54.6724 79.3114C54.6982 79.4963 54.6874 79.6846 54.6405 79.8653C54.5936 80.046 54.5115 80.2157 54.399 80.3648C54.2865 80.5138 54.1457 80.6392 53.9848 80.7338C53.8238 80.8285 53.6457 80.8904 53.4608 80.9163C45.2857 82.0681 36.9822 80.0073 30.2944 75.1666Z"
								fill="black" />
							<path fill-rule="evenodd" clip-rule="evenodd"
								d="M8.4216 31.6201C6.81424 29.7366 5.69184 27.4886 5.15217 25.072C4.61251 22.6554 4.67195 20.1435 5.32533 17.7551C5.9787 15.3668 7.20619 13.1744 8.90084 11.369C10.5955 9.56367 12.7059 8.20006 15.0482 7.39701C17.3905 6.59396 19.8937 6.37584 22.3396 6.76164C24.7855 7.14744 27.1 8.12547 29.0814 9.61051C31.0628 11.0955 32.651 13.0426 33.7076 15.2819C34.7643 17.5212 35.2573 19.985 35.1437 22.4585C35.1352 22.6452 35.0901 22.8284 35.0108 22.9976C34.9315 23.1668 34.8196 23.3188 34.6816 23.4448C34.5435 23.5708 34.3821 23.6683 34.2063 23.7319C34.0306 23.7955 33.844 23.8239 33.6574 23.8154C33.4707 23.8069 33.2875 23.7617 33.1182 23.6824C32.949 23.6031 32.7971 23.4912 32.6711 23.3532C32.5451 23.2152 32.4475 23.0537 32.3839 22.8779C32.3203 22.7022 32.292 22.5157 32.3005 22.329C32.3914 20.319 31.9895 18.3172 31.1299 16.498C30.2703 14.6788 28.9789 13.0974 27.3683 11.8914C25.7578 10.6854 23.8768 9.89137 21.8891 9.57854C19.9015 9.2657 17.8675 9.44352 15.9643 10.0965C14.0612 10.7495 12.3465 11.8578 10.9696 13.325C9.59269 14.7922 8.59537 16.5737 8.06445 18.5145C7.53354 20.4552 7.48514 22.4964 7.92346 24.4601C8.36178 26.4238 9.27355 28.2506 10.5793 29.7814C10.7175 29.9203 10.8254 30.0863 10.8964 30.2689C10.9674 30.4515 10.9999 30.6467 10.9918 30.8425C10.9837 31.0382 10.9353 31.2302 10.8495 31.4063C10.7638 31.5824 10.6425 31.7389 10.4934 31.866C10.3443 31.993 10.1705 32.0879 9.98304 32.1446C9.79553 32.2014 9.59832 32.2187 9.40378 32.1956C9.20924 32.1726 9.02157 32.1095 8.85256 32.0105C8.68354 31.9114 8.53682 31.7785 8.4216 31.6201Z"
								fill="black" />
							<path fill-rule="evenodd" clip-rule="evenodd"
								d="M11.1919 44.9291C9.9629 44.0395 8.93856 42.897 8.18776 41.5786C7.43696 40.2602 6.97708 38.7963 6.83902 37.2854C6.70097 35.7745 6.88793 34.2515 7.38735 32.8188C7.88678 31.3862 8.6871 30.077 9.73451 28.9793C10.7819 27.8817 12.0522 27.0209 13.4599 26.4549C14.8676 25.8889 16.3801 25.6308 17.8959 25.6979C19.4116 25.765 20.8954 26.1558 22.2476 26.844C23.5998 27.5322 24.789 28.5018 25.7353 29.6878C25.9627 29.9834 26.0649 30.3565 26.0197 30.7267C25.9746 31.0969 25.7858 31.4345 25.494 31.6668C25.2023 31.8991 24.8309 32.0075 24.46 31.9685C24.0891 31.9295 23.7483 31.7463 23.5112 31.4585C22.6668 30.3974 21.56 29.5751 20.3003 29.0731C19.0406 28.571 17.6716 28.4065 16.3288 28.5958C14.986 28.7852 13.7159 29.3219 12.6442 30.1527C11.5724 30.9836 10.7362 32.0798 10.2181 33.333C9.70012 34.5863 9.51826 35.953 9.69056 37.2981C9.86287 38.6432 10.3834 39.92 11.2006 41.0021C12.0178 42.0843 13.1033 42.9344 14.3499 43.4683C15.5965 44.0022 16.9608 44.2014 18.308 44.0461C18.4942 44.0231 18.6832 44.0371 18.864 44.0874C19.0448 44.1377 19.2138 44.2233 19.3613 44.3393C19.5088 44.4552 19.632 44.5993 19.7236 44.763C19.8152 44.9268 19.8734 45.1071 19.895 45.2935C19.9166 45.4799 19.9011 45.6687 19.8493 45.8491C19.7975 46.0295 19.7106 46.1978 19.5934 46.3444C19.4763 46.491 19.3313 46.613 19.1668 46.7032C19.0023 46.7935 18.8216 46.8503 18.635 46.8704C15.9983 47.1798 13.3416 46.4868 11.1919 44.9291Z"
								fill="black" />
							<path fill-rule="evenodd" clip-rule="evenodd"
								d="M26.0353 19.1787C25.0638 16.4776 23.35 15.2297 21.1828 14.6232C21.0029 14.5731 20.8347 14.488 20.6877 14.3729C20.5407 14.2578 20.4178 14.1149 20.3261 13.9523C20.2343 13.7897 20.1755 13.6106 20.153 13.4253C20.1304 13.24 20.1446 13.052 20.1947 12.8722C20.2448 12.6923 20.3298 12.5241 20.4449 12.3771C20.5601 12.2302 20.703 12.1073 20.8656 12.0155C21.0282 11.9238 21.2072 11.865 21.3926 11.8424C21.5779 11.8199 21.7659 11.8341 21.9457 11.8842C24.9138 12.7119 27.3953 14.5584 28.7096 18.2167C28.7793 18.3937 28.8127 18.5829 28.808 18.7731C28.8032 18.9633 28.7603 19.1506 28.6818 19.3239C28.6033 19.4972 28.4909 19.653 28.3511 19.7821C28.2113 19.9111 28.047 20.0108 27.868 20.0752C27.6889 20.1396 27.4988 20.1674 27.3088 20.157C27.1189 20.1466 26.9329 20.0981 26.762 20.0145C26.5911 19.9309 26.4387 19.8138 26.3139 19.6703C26.1891 19.5267 26.0943 19.3595 26.0353 19.1787Z"
								fill="black" />
							<path fill-rule="evenodd" clip-rule="evenodd"
								d="M74.4487 87.6833C73.2153 86.1179 72.4738 84.2219 72.318 82.2351C72.1621 80.2483 72.599 78.2599 73.5733 76.5214C74.5476 74.7828 76.0155 73.3722 77.7915 72.468C79.5675 71.5638 81.5717 71.2065 83.5508 71.4413C85.5298 71.6761 87.3948 72.4926 88.9099 73.7873C90.4249 75.0821 91.5219 76.7971 92.0623 78.7153C92.6026 80.6336 92.562 82.669 91.9455 84.5642C91.329 86.4593 90.1644 88.1291 88.5988 89.3624C86.4994 91.0152 83.8296 91.7667 81.1762 91.4519C78.5228 91.137 76.1031 89.7815 74.4487 87.6833ZM86.8391 87.1288C87.963 86.2436 88.7991 85.045 89.2416 83.6846C89.6842 82.3242 89.7134 80.8631 89.3255 79.4861C88.9377 78.1091 88.1502 76.878 87.0627 75.9486C85.9752 75.0191 84.6364 74.4331 83.2158 74.2645C81.7951 74.0959 80.3564 74.3524 79.0815 75.0015C77.8067 75.6506 76.7529 76.6632 76.0536 77.9112C75.3543 79.1592 75.0407 80.5866 75.1526 82.0128C75.2645 83.439 75.7968 84.8 76.6823 85.9236C77.8699 87.4294 79.6068 88.4022 81.5113 88.6282C83.4158 88.8542 85.3321 88.3149 86.8391 87.1288Z"
								fill="black" />
							<path fill-rule="evenodd" clip-rule="evenodd"
								d="M84.3065 80.6448C84.0696 79.6828 83.572 79.2469 82.8581 78.9641C82.6798 78.899 82.5164 78.799 82.3774 78.6698C82.2385 78.5405 82.1268 78.3848 82.0489 78.2118C81.9711 78.0387 81.9287 77.8518 81.9242 77.6621C81.9198 77.4724 81.9533 77.2837 82.0229 77.1072C82.0925 76.9307 82.1967 76.7699 82.3295 76.6343C82.4622 76.4987 82.6207 76.391 82.7957 76.3176C82.9707 76.2442 83.1587 76.2066 83.3484 76.207C83.5382 76.2074 83.7259 76.2458 83.9006 76.3199C85.3823 76.9043 86.5859 78.0211 87.0598 79.9656C87.1499 80.3317 87.0908 80.7186 86.8956 81.0412C86.7004 81.3638 86.385 81.5957 86.0189 81.6857C85.6527 81.7758 85.2658 81.7167 84.9432 81.5215C84.6206 81.3263 84.3888 81.0109 84.2987 80.6448H84.3065Z"
								fill="black" />
						</svg>