<svg width="100" height="100" viewBox="0 0 100 100" fill="none" xmlns="http://www.w3.org/2000/svg">
							<path fill-rule="evenodd" clip-rule="evenodd"
								d="M30.5576 83.9869C26.7778 81.2651 23.7206 77.6607 21.652 73.4874C21.4844 73.1496 21.4579 72.759 21.5783 72.4016C21.6988 72.0442 21.9562 71.7492 22.2941 71.5817C22.6319 71.4141 23.0226 71.3876 23.38 71.508C23.7374 71.6284 24.0323 71.8859 24.1998 72.2238C26.0636 75.9827 28.8177 79.2291 32.2225 81.6807C32.3762 81.7891 32.5068 81.9269 32.6068 82.0861C32.7068 82.2453 32.7742 82.4228 32.8051 82.6083C32.8361 82.7937 32.83 82.9835 32.7871 83.1666C32.7442 83.3496 32.6654 83.5224 32.5553 83.6748C32.4452 83.8272 32.306 83.9563 32.1456 84.0545C31.9853 84.1527 31.8071 84.2182 31.6213 84.247C31.4355 84.2759 31.2459 84.2677 31.0633 84.2227C30.8807 84.1778 30.7088 84.0971 30.5576 83.9853V83.9869Z"
								fill="black" />
							<path fill-rule="evenodd" clip-rule="evenodd"
								d="M39.7353 88.3961C39.3786 88.2902 39.0776 88.0485 38.897 87.7231C38.7165 87.3978 38.6707 87.0145 38.7696 86.6558C38.8684 86.297 39.104 85.9913 39.4257 85.8043C39.7474 85.6173 40.1296 85.5639 40.4903 85.6556C44.7219 86.8227 49.1809 86.8944 53.4478 85.864C57.7148 84.8335 61.6496 82.7348 64.8822 79.7652C68.1148 76.7955 70.5391 73.0525 71.9271 68.8881C73.315 64.7237 73.6211 60.2747 72.8164 55.9595L72.123 53.1383L69.9779 47.6635C64.7305 35.1991 58.1169 25.4373 51.4858 14.8904C49.8746 12.3283 48.4119 11.5417 47.3173 11.5733C46.1973 11.5986 44.6825 12.4863 43.005 15.1874C40.969 18.4634 38.9771 21.5847 36.9284 24.8923C36.7277 25.2083 36.4105 25.4324 36.0456 25.516C35.6808 25.5995 35.2977 25.5358 34.9795 25.3387C34.6613 25.1415 34.4337 24.8268 34.3461 24.4629C34.2585 24.099 34.318 23.7152 34.5116 23.3949C36.5193 20.152 38.6185 16.857 40.5898 13.6868C42.4143 10.7503 44.6478 8.79008 47.2509 8.73006C49.8793 8.66688 52.1113 10.5497 53.8852 13.3819C61.4024 25.333 69.1581 36.6554 74.8066 52.2159L74.8304 52.2854C76.3403 57.2069 76.5 62.4438 75.2928 67.4482C74.0857 72.4526 71.5559 77.0407 67.9682 80.7325C64.3804 84.4244 59.8666 87.0844 54.8988 88.4342C49.9309 89.784 44.6917 89.7742 39.7289 88.4056L39.7353 88.3961Z"
								fill="black" />
							<path fill-rule="evenodd" clip-rule="evenodd"
								d="M18.6797 59.4012C18.7782 57.1781 19.1349 54.974 19.7427 52.8333C19.7427 52.8128 19.7633 52.767 19.7712 52.748C21.3741 48.2303 23.2478 43.8131 25.3819 39.5206C25.4648 39.3534 25.5799 39.204 25.7206 39.0812C25.8613 38.9584 26.0248 38.8645 26.2017 38.8049C26.3787 38.7453 26.5657 38.7211 26.752 38.7337C26.9383 38.7464 27.1203 38.7956 27.2876 38.8786C27.4549 38.9615 27.6042 39.0766 27.727 39.2173C27.8498 39.358 27.9437 39.5215 28.0034 39.6984C28.063 39.8754 28.0872 40.0624 28.0746 40.2487C28.0619 40.435 28.0127 40.617 27.9297 40.7843C26.1187 44.4317 24.4975 48.1703 23.0725 51.9851L22.4707 53.65L22.2843 54.3418C21.8554 56.0401 21.6008 57.7777 21.5245 59.5276C21.5077 59.9046 21.3419 60.2596 21.0635 60.5143C20.785 60.7691 20.4167 60.9028 20.0397 60.886C19.6626 60.8693 19.3077 60.7034 19.053 60.425C18.7982 60.1465 18.6645 59.7783 18.6812 59.4012H18.6797Z"
								fill="black" />
							<path fill-rule="evenodd" clip-rule="evenodd"
								d="M41.6498 69.0316C40.0171 67.8511 38.7712 66.2131 38.0695 64.3245C37.3678 62.436 37.2418 60.3818 37.7076 58.4216C38.1733 56.4615 39.2099 54.6835 40.6861 53.3125C42.1623 51.9414 44.012 51.0389 46.0011 50.719C47.9903 50.3992 50.0296 50.6764 51.8612 51.5155C53.6928 52.3546 55.2345 53.7181 56.2913 55.4334C57.3481 57.1487 57.8724 59.1388 57.7981 61.1522C57.7239 63.1655 57.0542 65.1116 55.874 66.7444C54.2903 68.9329 51.9024 70.4032 49.2352 70.8321C46.5681 71.261 43.8397 70.6134 41.6498 69.0316ZM53.5678 65.0732C54.4189 63.8958 54.9017 62.4925 54.955 61.0407C55.0084 59.589 54.63 58.154 53.8676 56.9173C53.1053 55.6807 51.9933 54.6979 50.6723 54.0934C49.3513 53.4889 47.8807 53.2898 46.4465 53.5212C45.0123 53.7527 43.679 54.4044 42.6152 55.3938C41.5515 56.3832 40.805 57.6659 40.4704 59.0796C40.1359 60.4933 40.2281 61.9745 40.7355 63.3358C41.2429 64.697 42.1427 65.8772 43.321 66.727C44.8998 67.8645 46.8654 68.3293 48.7864 68.0192C50.7075 67.7092 52.427 66.6496 53.5678 65.0732Z"
								fill="black" />
							<path fill-rule="evenodd" clip-rule="evenodd"
								d="M55.7801 31.5419C53.496 27.4349 50.9371 23.4102 48.1981 19.3191C48.0944 19.1635 48.0223 18.989 47.986 18.8056C47.9497 18.6222 47.95 18.4334 47.9867 18.25C48.0233 18.0667 48.0957 17.8924 48.1998 17.737C48.3038 17.5817 48.4375 17.4483 48.593 17.3446C48.7486 17.2409 48.923 17.1688 49.1065 17.1325C49.2899 17.0963 49.4787 17.0964 49.662 17.1331C49.8454 17.1698 50.0197 17.2422 50.1751 17.3463C50.3304 17.4503 50.4638 17.5839 50.5675 17.7395C53.3255 21.8622 55.9381 25.9533 58.2711 30.1629C58.367 30.3263 58.4293 30.5073 58.4542 30.6951C58.4792 30.883 58.4663 31.074 58.4164 31.2568C58.3665 31.4396 58.2806 31.6106 58.1637 31.7597C58.0467 31.9088 57.9011 32.033 57.7355 32.1251C57.5698 32.2171 57.3874 32.2751 57.199 32.2957C57.0106 32.3162 56.8201 32.2989 56.6385 32.2447C56.4569 32.1905 56.2879 32.1005 56.1416 31.9801C55.9953 31.8597 55.8746 31.7112 55.7864 31.5434L55.7801 31.5419Z"
								fill="black" />
							<path fill-rule="evenodd" clip-rule="evenodd"
								d="M31.5292 51.1774C30.4605 50.4045 29.6449 49.3321 29.1854 48.0958C28.726 46.8595 28.6433 45.5148 28.9479 44.2315C29.2525 42.9482 29.9308 41.7841 30.8969 40.8861C31.8629 39.9882 33.0735 39.3968 34.3756 39.1867C35.6777 38.9766 37.0128 39.1573 38.2123 39.7058C39.4118 40.2543 40.4217 41.146 41.1145 42.2684C41.8072 43.3907 42.1518 44.6932 42.1045 46.0113C42.0572 47.3294 41.6202 48.6038 40.8488 49.6736C40.3358 50.3846 39.6878 50.9875 38.9418 51.4479C38.1957 51.9084 37.3662 52.2172 36.5007 52.3569C35.6352 52.4965 34.7506 52.4642 33.8976 52.2619C33.0446 52.0595 32.2398 51.691 31.5292 51.1774ZM38.5363 48.0182C38.9796 47.4047 39.231 46.6734 39.2588 45.9169C39.2865 45.1605 39.0893 44.4128 38.692 43.7684C38.2948 43.124 37.7154 42.6119 37.0272 42.2968C36.3389 41.9817 35.5726 41.8778 34.8252 41.9982C34.0779 42.1186 33.383 42.4579 32.8285 42.9732C32.274 43.4885 31.8848 44.1566 31.71 44.8932C31.5353 45.6297 31.5829 46.4015 31.8468 47.111C32.1107 47.8205 32.579 48.4358 33.1926 48.8791C34.0165 49.4723 35.0422 49.7141 36.0443 49.5511C37.0464 49.3882 37.9428 48.834 38.5363 48.0103V48.0182Z"
								fill="black" />
							<path fill-rule="evenodd" clip-rule="evenodd"
								d="M58.9128 56.3622C58.0613 55.7474 57.4112 54.8939 57.0447 53.9096C56.6782 52.9253 56.6118 51.8544 56.854 50.8324C57.0961 49.8104 57.6359 48.8831 58.405 48.1679C59.1741 47.4526 60.138 46.9814 61.1749 46.814C62.2118 46.6466 63.275 46.7904 64.2302 47.2272C65.1853 47.664 65.9895 48.3743 66.541 49.2681C67.0925 50.162 67.3666 51.1993 67.3286 52.2489C67.2905 53.2985 66.9421 54.3133 66.3274 55.1649C65.5021 56.3059 64.2579 57.0729 62.8678 57.2973C61.4776 57.5218 60.0552 57.1855 58.9128 56.3622ZM64.0228 53.5C64.3084 53.1044 64.4702 52.6329 64.4879 52.1453C64.5056 51.6577 64.3783 51.1757 64.1221 50.7604C63.8659 50.3451 63.4923 50.0151 63.0486 49.8121C62.6048 49.6092 62.1109 49.5423 61.6292 49.6201C61.1475 49.6978 60.6996 49.9167 60.3422 50.2489C59.9849 50.5812 59.734 51.012 59.6215 51.4868C59.5089 51.9616 59.5397 52.4591 59.7099 52.9164C59.8801 53.3738 60.1821 53.7703 60.5777 54.056C61.1084 54.4388 61.7693 54.5952 62.4153 54.491C63.0612 54.3867 63.6394 54.0303 64.0228 53.5Z"
								fill="black" />
							<path fill-rule="evenodd" clip-rule="evenodd"
								d="M31.6621 76.4789C30.8106 75.8639 30.1606 75.0102 29.7943 74.0259C29.428 73.0415 29.3619 71.9706 29.6042 70.9486C29.8465 69.9266 30.3865 68.9995 31.1557 68.2843C31.925 67.5692 32.889 67.0982 33.9259 66.931C34.9628 66.7638 36.0261 66.9078 36.9812 67.3449C37.9363 67.7819 38.7403 68.4923 39.2916 69.3863C39.8429 70.2803 40.1168 71.3177 40.0785 72.3673C40.0402 73.417 39.6916 74.4317 39.0766 75.2831C38.6683 75.8485 38.1526 76.3279 37.559 76.694C36.9654 77.06 36.3055 77.3056 35.617 77.4166C34.9284 77.5277 34.2248 77.502 33.5462 77.3411C32.8676 77.1802 32.2274 76.8872 31.6621 76.4789ZM36.7719 73.6183C37.0576 73.2226 37.2195 72.7512 37.2372 72.2635C37.2549 71.7759 37.1276 71.2939 36.8714 70.8786C36.6152 70.4633 36.2416 70.1333 35.7978 69.9304C35.3541 69.7274 34.8601 69.6605 34.3784 69.7383C33.8966 69.816 33.4488 70.0349 33.0914 70.3672C32.734 70.6994 32.4833 71.1302 32.3707 71.605C32.2582 72.0798 32.289 72.5774 32.4592 73.0347C32.6294 73.492 32.9314 73.8886 33.3269 74.1743C33.8576 74.557 34.5186 74.7135 35.1645 74.6092C35.8105 74.505 36.3886 74.1485 36.7719 73.6183Z"
								fill="black" />
							<path fill-rule="evenodd" clip-rule="evenodd"
								d="M55.5164 78.1161C54.6648 77.5013 54.0146 76.6478 53.6482 75.6635C53.2817 74.6792 53.2154 73.6083 53.4575 72.5863C53.6996 71.5643 54.2394 70.637 55.0085 69.9218C55.7776 69.2065 56.7415 68.7354 57.7784 68.5679C58.8152 68.4005 59.8785 68.5443 60.8336 68.9811C61.7888 69.4179 62.593 70.1282 63.1445 71.022C63.696 71.9159 63.9701 72.9532 63.9321 74.0028C63.8941 75.0524 63.5456 76.0672 62.9309 76.9188C62.106 78.0602 60.8617 78.8274 59.4714 79.0519C58.0811 79.2764 56.6586 78.9398 55.5164 78.1161ZM60.6262 75.2555C60.9119 74.8599 61.0738 74.3884 61.0915 73.9008C61.1092 73.4131 60.9819 72.9312 60.7257 72.5159C60.4695 72.1006 60.0959 71.7706 59.6521 71.5676C59.2084 71.3647 58.7144 71.2978 58.2327 71.3756C57.7509 71.4533 57.3031 71.6722 56.9457 72.0044C56.5883 72.3367 56.3376 72.7675 56.225 73.2423C56.1125 73.7171 56.1432 74.2146 56.3134 74.6719C56.4836 75.1293 56.7857 75.5258 57.1812 75.8115C57.7129 76.1932 58.3742 76.3484 59.02 76.243C59.6659 76.1375 60.2436 75.7801 60.6262 75.2492V75.2555Z"
								fill="black" />
							<path fill-rule="evenodd" clip-rule="evenodd"
								d="M50.3995 60.9592C50.1325 59.3955 49.3554 58.5899 48.2402 58.0591C47.9003 57.896 47.639 57.6044 47.514 57.2486C47.389 56.8929 47.4104 56.502 47.5736 56.1621C47.7368 55.8221 48.0283 55.5609 48.3841 55.4359C48.7398 55.3109 49.1308 55.3323 49.4707 55.4955C51.3299 56.3879 52.7657 57.9201 53.2016 60.4806C53.239 60.6672 53.2385 60.8594 53.2002 61.0458C53.1619 61.2322 53.0866 61.409 52.9787 61.5657C52.8708 61.7225 52.7325 61.8559 52.5721 61.9583C52.4117 62.0606 52.2323 62.1297 52.0447 62.1614C51.8571 62.1931 51.6651 62.1869 51.4799 62.143C51.2947 62.0991 51.1203 62.0185 50.9668 61.906C50.8134 61.7934 50.6841 61.6512 50.5867 61.4878C50.4892 61.3243 50.4256 61.143 50.3995 60.9545V60.9592Z"
								fill="black" />
							<path fill-rule="evenodd" clip-rule="evenodd"
								d="M40.6372 54.9051L37.5617 51.0399C37.4433 50.894 37.3551 50.7261 37.302 50.5458C37.2489 50.3656 37.2322 50.1766 37.2526 49.9899C37.273 49.8031 37.3302 49.6222 37.4209 49.4577C37.5117 49.2932 37.634 49.1483 37.7811 49.0314C37.9282 48.9145 38.097 48.8279 38.2777 48.7766C38.4585 48.7254 38.6476 48.7104 38.8341 48.7327C39.0207 48.7549 39.201 48.8139 39.3646 48.9063C39.5282 48.9987 39.6719 49.1225 39.7874 49.2708L42.8612 53.136C43.0821 53.4321 43.179 53.8025 43.1315 54.1688C43.084 54.5351 42.8957 54.8686 42.6066 55.0985C42.3175 55.3284 41.9504 55.4368 41.5827 55.4008C41.2151 55.3647 40.876 55.1869 40.6372 54.9051Z"
								fill="black" />
							<path fill-rule="evenodd" clip-rule="evenodd"
								d="M54.8146 71.2585L52.7533 68.668C52.5361 68.3715 52.4422 68.0024 52.4912 67.6381C52.5403 67.2738 52.7285 66.9427 53.0165 66.7142C53.3044 66.4858 53.6697 66.3777 54.0356 66.4127C54.4015 66.4477 54.7395 66.6231 54.9789 66.902L57.0403 69.4941C57.2705 69.7897 57.3747 70.1641 57.3303 70.5361C57.286 70.908 57.0965 71.2474 56.8033 71.4805C56.5101 71.7136 56.1367 71.8216 55.7643 71.7809C55.3919 71.7402 55.0506 71.5542 54.8146 71.2633V71.2585Z"
								fill="black" />
							<path fill-rule="evenodd" clip-rule="evenodd"
								d="M54.6543 57.4238C54.4199 57.1288 54.3122 56.7528 54.3548 56.3784C54.3975 56.0041 54.587 55.6619 54.8818 55.4272L57.4723 53.3659C57.7674 53.1311 58.1438 53.0231 58.5185 53.0658C58.8932 53.1084 59.2357 53.2982 59.4705 53.5933C59.7053 53.8885 59.8133 54.2648 59.7706 54.6395C59.728 55.0143 59.5381 55.3567 59.243 55.5915L56.6509 57.645C56.3567 57.8801 55.9812 57.9889 55.6069 57.9474C55.2325 57.9059 54.89 57.7176 54.6543 57.4238Z"
								fill="black" />
							<path fill-rule="evenodd" clip-rule="evenodd"
								d="M36.8985 70.333C36.664 70.038 36.5563 69.6621 36.599 69.2877C36.6416 68.9133 36.8312 68.5712 37.1259 68.3365L39.718 66.2688C40.0136 66.0386 40.388 65.9344 40.76 65.9788C41.1319 66.0231 41.4714 66.2125 41.7045 66.5058C41.9376 66.799 42.0455 67.1724 42.0048 67.5448C41.9641 67.9171 41.7781 68.2584 41.4872 68.4944L38.8967 70.5479C38.6032 70.7842 38.2278 70.8943 37.8531 70.8541C37.4784 70.8138 37.135 70.6264 36.8985 70.333Z"
								fill="black" />
							<path fill-rule="evenodd" clip-rule="evenodd"
								d="M67.0147 79.1384C66.8921 78.988 66.8017 78.814 66.7489 78.6273C66.6961 78.4406 66.6821 78.245 66.7078 78.0527C66.7334 77.8604 66.7982 77.6753 66.8981 77.509C66.9979 77.3426 67.1308 77.1984 67.2885 77.0854C67.4462 76.9723 67.6254 76.8927 67.815 76.8515C68.0046 76.8102 68.2006 76.8083 68.391 76.8457C68.5813 76.8831 68.7621 76.959 68.922 77.0689C69.0819 77.1788 69.2177 77.3203 69.3209 77.4846C70.56 79.2138 72.2494 80.5703 74.2055 81.4064C76.1617 82.2425 78.3096 82.5264 80.4158 82.227C82.522 81.9277 84.5058 81.0567 86.1515 79.7086C87.7972 78.3606 89.0419 76.5872 89.7501 74.5812C90.4584 72.5752 90.6031 70.4134 90.1686 68.3309C89.734 66.2484 88.7368 64.325 87.2854 62.7696C85.8341 61.2142 83.9841 60.0866 81.9366 59.5092C79.8891 58.9318 77.7225 58.9268 75.6724 59.4948C75.3089 59.5953 74.9205 59.5474 74.5924 59.3615C74.2643 59.1756 74.0235 58.867 73.923 58.5036C73.8224 58.1402 73.8703 57.7517 74.0562 57.4236C74.2421 57.0955 74.5507 56.8547 74.9141 56.7542C77.4647 56.0475 80.1602 56.0534 82.7076 56.7715C85.255 57.4896 87.5568 58.8922 89.3627 60.8269C91.1687 62.7617 92.4097 65.1545 92.9509 67.7452C93.492 70.3359 93.3126 73.0254 92.4322 75.5213C91.5517 78.0172 90.0039 80.224 87.957 81.9018C85.9101 83.5795 83.4424 84.664 80.8222 85.0374C78.202 85.4108 75.5297 85.0587 73.0956 84.0195C70.6615 82.9803 68.5588 81.2938 67.0162 79.1431L67.0147 79.1384Z"
								fill="black" />
							<path fill-rule="evenodd" clip-rule="evenodd"
								d="M7.96769 31.0089C7.17357 28.142 7.2474 25.104 8.17994 22.279C9.11248 19.4541 10.8618 16.9692 13.2067 15.1384C15.5515 13.3077 18.3866 12.2135 21.3534 11.9941C24.3202 11.7747 27.2854 12.44 29.874 13.9059C32.4627 15.3718 34.5585 17.5723 35.8964 20.2294C37.2343 22.8864 37.7543 25.8805 37.3905 28.8331C37.0267 31.7856 35.7956 34.564 33.8527 36.8168C31.9099 39.0696 29.3426 40.6957 26.4756 41.4894C22.6315 42.5523 18.5227 42.0454 15.0522 40.0802C11.5817 38.1149 9.03355 34.8521 7.96769 31.0089ZM25.7174 38.7488C28.0423 38.1055 30.1241 36.7871 31.6997 34.9605C33.2753 33.1338 34.2738 30.881 34.5689 28.4868C34.8641 26.0927 34.4426 23.6648 33.3578 21.5102C32.273 19.3556 30.5736 17.5711 28.4746 16.3824C26.3756 15.1936 23.9711 14.6541 21.5654 14.8319C19.1597 15.0098 16.8607 15.8971 14.9593 17.3816C13.0579 18.8661 11.6395 20.8811 10.8834 23.1718C10.1272 25.4625 10.0673 27.926 10.7114 30.2507C11.5766 33.3661 13.6428 36.0108 16.4563 37.6042C19.2698 39.1975 22.6006 39.6092 25.7174 38.7488Z"
								fill="black" />
							<path fill-rule="evenodd" clip-rule="evenodd"
								d="M60.0654 85.8639C59.9646 85.5005 60.0124 85.1119 60.1981 84.7837C60.3838 84.4555 60.6923 84.2145 61.0558 84.1137C61.4192 84.013 61.8077 84.0607 62.1359 84.2465C62.4642 84.4322 62.7052 84.7407 62.8059 85.1041C63.2369 86.6446 64.1977 87.9836 65.5191 88.885C66.8405 89.7865 68.4377 90.1927 70.0292 90.0321C71.6207 89.8714 73.1045 89.1542 74.219 88.0068C75.3336 86.8594 76.0074 85.3554 76.1218 83.7599C76.1479 83.3829 76.3229 83.0317 76.608 82.7836C76.8931 82.5355 77.2651 82.4108 77.6421 82.437C78.0191 82.4632 78.3704 82.6381 78.6185 82.9232C78.8666 83.2083 78.9912 83.5803 78.965 83.9574C78.8089 86.2261 77.8555 88.3665 76.2732 90C74.691 91.6334 72.582 92.6546 70.3194 92.8828C68.0568 93.1111 65.7864 92.5317 63.9098 91.2472C62.0332 89.9626 60.6714 88.0558 60.0654 85.8639Z"
								fill="black" />
							<path fill-rule="evenodd" clip-rule="evenodd"
								d="M69.1902 27.1398C68.7114 25.4098 68.7563 23.5766 69.3193 21.8721C69.8823 20.1676 70.9382 18.6683 72.3533 17.5639C73.7684 16.4594 75.4791 15.7994 77.2693 15.6672C79.0595 15.5351 80.8487 15.9367 82.4107 16.8214C83.9726 17.7061 85.2372 19.034 86.0444 20.6374C86.8516 22.2407 87.1653 24.0474 86.9457 25.829C86.7261 27.6106 85.9832 29.2871 84.8108 30.6465C83.6385 32.0059 82.0894 32.9871 80.3594 33.466C78.0394 34.1071 75.5598 33.8008 73.4655 32.6146C71.3711 31.4284 69.8334 29.4592 69.1902 27.1398ZM79.6012 30.7255C80.7898 30.3967 81.8541 29.7228 82.6596 28.789C83.4652 27.8552 83.9757 26.7035 84.1266 25.4796C84.2775 24.2557 84.0621 23.0145 83.5076 21.913C82.953 20.8115 82.0843 19.8992 81.0112 19.2915C79.9381 18.6838 78.7089 18.408 77.479 18.4989C76.2492 18.5899 75.0739 19.0436 74.1019 19.8025C73.1299 20.5615 72.4049 21.5916 72.0184 22.7627C71.6319 23.9338 71.6014 25.1932 71.9308 26.3816C72.3719 27.975 73.4278 29.3279 74.8661 30.143C76.3045 30.9582 78.0076 31.1688 79.6012 30.7286V30.7255Z"
								fill="black" />
							<path fill-rule="evenodd" clip-rule="evenodd"
								d="M7.09632 70.0965C6.57139 68.1968 6.6215 66.1842 7.24032 64.313C7.85914 62.4419 9.01891 60.7962 10.5729 59.5841C12.127 58.3721 14.0054 57.648 15.971 57.5034C17.9365 57.3589 19.9008 57.8004 21.6154 58.7721C23.33 59.7438 24.718 61.2021 25.6039 62.9626C26.4898 64.7231 26.8339 66.7067 26.5925 68.6627C26.3511 70.6187 25.5351 72.4592 24.2478 73.9515C22.9605 75.4438 21.2596 76.5209 19.3602 77.0466C16.8123 77.7505 14.0891 77.4138 11.7894 76.1105C9.48967 74.8072 7.80159 72.644 7.09632 70.0965ZM18.602 74.3013C19.9592 73.9248 21.1743 73.1543 22.0937 72.0872C23.0131 71.0202 23.5954 69.7045 23.7671 68.3065C23.9388 66.9085 23.6922 65.491 23.0584 64.2332C22.4246 62.9754 21.432 61.9337 20.2063 61.2399C18.9805 60.5461 17.5766 60.2313 16.172 60.3353C14.7673 60.4393 13.4251 60.9575 12.3149 61.8243C11.2047 62.6911 10.3764 63.8675 9.93478 65.205C9.49315 66.5425 9.458 67.9808 9.83375 69.3383C10.3386 71.159 11.5459 72.7047 13.1902 73.6354C14.8345 74.5661 16.7811 74.8056 18.602 74.3013Z"
								fill="black" />
							<path fill-rule="evenodd" clip-rule="evenodd"
								d="M28.4491 25.4762C28.0179 22.5113 26.5315 20.8749 24.4354 19.8023C24.1189 19.6203 23.8846 19.3234 23.781 18.9733C23.6775 18.6231 23.7126 18.2466 23.8791 17.9217C24.0457 17.5967 24.3309 17.3483 24.6756 17.2279C25.0203 17.1076 25.3981 17.1244 25.7307 17.275C28.5613 18.7235 30.6858 21.1007 31.2592 25.0702C31.2896 25.2565 31.2825 25.447 31.2385 25.6305C31.1945 25.8141 31.1143 25.987 31.0027 26.1392C30.8912 26.2915 30.7505 26.42 30.5887 26.5173C30.427 26.6145 30.2474 26.6786 30.0606 26.7058C29.8738 26.7329 29.6836 26.7226 29.5008 26.6755C29.3181 26.6283 29.1465 26.5452 28.9962 26.431C28.8459 26.3169 28.7198 26.1739 28.6254 26.0105C28.5309 25.8471 28.4699 25.6665 28.446 25.4793L28.4491 25.4762Z"
								fill="black" />
							<path fill-rule="evenodd" clip-rule="evenodd"
								d="M84.7592 70.0116C84.3295 67.0468 82.8415 65.4103 80.7454 64.3378C80.5701 64.2584 80.4126 64.1442 80.2827 64.0022C80.1528 63.8601 80.0531 63.6932 79.9896 63.5115C79.9262 63.3297 79.9003 63.137 79.9135 62.945C79.9267 62.753 79.9788 62.5656 80.0666 62.3943C80.1544 62.223 80.2761 62.0713 80.4243 61.9485C80.5724 61.8256 80.744 61.7341 80.9286 61.6795C81.1132 61.6249 81.3069 61.6083 81.498 61.6309C81.6892 61.6534 81.8739 61.7145 82.0407 61.8105C84.8713 63.2589 86.9974 65.6362 87.5692 69.6057C87.6235 69.9789 87.5272 70.3585 87.3016 70.6608C87.076 70.9631 86.7396 71.1634 86.3663 71.2176C85.9931 71.2719 85.6135 71.1756 85.3112 70.9501C85.0089 70.7245 84.8086 70.3881 84.7544 70.0148L84.7592 70.0116Z"
								fill="black" />
							<path fill-rule="evenodd" clip-rule="evenodd"
								d="M79.439 25.0889C79.2811 24.0226 78.7882 23.4919 78.0442 23.1112C77.8689 23.0318 77.7115 22.9177 77.5816 22.7756C77.4517 22.6336 77.352 22.4666 77.2885 22.2849C77.2251 22.1032 77.1991 21.9105 77.2123 21.7184C77.2256 21.5264 77.2776 21.3391 77.3654 21.1678C77.4532 20.9965 77.5749 20.8448 77.7231 20.7219C77.8712 20.599 78.0428 20.5075 78.2274 20.4529C78.412 20.3983 78.6058 20.3818 78.7969 20.4043C78.9881 20.4268 79.1727 20.4879 79.3395 20.5839C80.818 21.3405 81.9521 22.6168 82.2523 24.6829C82.2996 25.0527 82.1997 25.4263 81.9742 25.7231C81.7487 26.02 81.4157 26.2164 81.0468 26.2701C80.6778 26.3237 80.3025 26.2303 80.0018 26.01C79.7011 25.7896 79.499 25.46 79.439 25.092V25.0889Z"
								fill="black" />
						</svg>