<svg width="100" height="100" viewBox="0 0 100 100" fill="none" xmlns="http://www.w3.org/2000/svg">
							<path fill-rule="evenodd" clip-rule="evenodd"
								d="M45.3068 77.8435C45.1176 77.833 44.9325 77.7848 44.7623 77.7017C44.5921 77.6186 44.4402 77.5023 44.3155 77.3597C44.1908 77.2171 44.0959 77.051 44.0364 76.8712C43.9768 76.6914 43.9537 76.5015 43.9686 76.3127C43.9834 76.1239 44.0359 75.9399 44.1228 75.7716C44.2097 75.6033 44.3294 75.4541 44.4748 75.3327C44.6202 75.2113 44.7884 75.1202 44.9696 75.0648C45.1507 75.0093 45.341 74.9906 45.5295 75.0097C50.1434 75.3778 54.7744 74.551 58.9759 72.609C63.1774 70.6671 66.8077 67.6755 69.517 63.9227C78.2268 51.8626 75.5083 35.0037 63.4482 26.2924C59.8016 23.6578 55.5534 21.9783 51.091 21.4071C46.6286 20.836 42.0943 21.3914 37.9017 23.0226C37.7271 23.0929 37.5403 23.1278 37.3521 23.1253C37.164 23.1229 36.9781 23.0831 36.8055 23.0082C36.6328 22.9334 36.4767 22.825 36.3462 22.6893C36.2158 22.5537 36.1135 22.3935 36.0455 22.218C35.9774 22.0426 35.9448 21.8554 35.9497 21.6672C35.9545 21.4791 35.9967 21.2938 36.0737 21.1221C36.1507 20.9503 36.2611 20.7956 36.3984 20.6669C36.5356 20.5382 36.6971 20.4379 36.8734 20.3721C41.5078 18.569 46.52 17.9553 51.4525 18.5869C56.3851 19.2184 61.0809 21.0752 65.1115 23.9878C78.4448 33.6232 81.4507 52.2622 71.8216 65.5876C68.8267 69.7356 64.8138 73.0423 60.1697 75.1889C55.5256 77.3356 50.4068 78.2498 45.3068 77.8435Z"
								fill="black" />
							<path fill-rule="evenodd" clip-rule="evenodd"
								d="M34.7081 74.9742C33.1373 74.2126 31.6367 73.3141 30.2237 72.2889C18.9944 64.181 15.0929 49.6867 19.8869 37.3502C20.0235 36.9987 20.2941 36.7159 20.6392 36.5639C20.9843 36.412 21.3756 36.4033 21.7271 36.5399C22.0786 36.6765 22.3614 36.9471 22.5134 37.2922C22.6654 37.6373 22.674 38.0286 22.5374 38.3801C18.1999 49.5414 21.735 62.6519 31.8885 69.9843C33.1669 70.9149 34.5248 71.731 35.9465 72.4232C36.2793 72.5913 36.5327 72.8834 36.6521 73.2366C36.7716 73.5898 36.7475 73.9758 36.5851 74.3114C36.4227 74.647 36.1349 74.9053 35.7838 75.0308C35.4327 75.1562 35.0464 75.1388 34.7081 74.9821V74.9742Z"
								fill="black" />
							<path fill-rule="evenodd" clip-rule="evenodd"
								d="M61.2839 84.1119C58.5056 82.1109 56.3735 79.3408 55.1504 76.1429C55.0157 75.7906 55.0265 75.3992 55.1804 75.0548C55.3343 74.7105 55.6187 74.4413 55.971 74.3067C56.3233 74.172 56.7147 74.1827 57.0591 74.3366C57.4034 74.4905 57.6726 74.7749 57.8073 75.1272C58.8828 77.9293 60.7863 80.3371 63.2645 82.0303C65.7427 83.7234 68.6778 84.6214 71.6791 84.6047C72.0562 84.6022 72.4188 84.7496 72.6871 85.0144C72.9555 85.2792 73.1077 85.6398 73.1102 86.0169C73.1127 86.3939 72.9654 86.7565 72.7005 87.0249C72.4357 87.2933 72.0751 87.4454 71.6981 87.448C67.9598 87.4746 64.3109 86.3057 61.2839 84.1119Z"
								fill="black" />
							<path fill-rule="evenodd" clip-rule="evenodd"
								d="M87.1526 74.5788C86.9699 74.5402 86.7967 74.4659 86.6427 74.3602C86.4888 74.2546 86.3572 74.1197 86.2554 73.9632C86.1536 73.8067 86.0836 73.6317 86.0495 73.4481C86.0153 73.2646 86.0177 73.0761 86.0564 72.8934C86.8467 69.159 86.1626 65.2635 84.1472 62.0218C82.1319 58.78 78.9412 56.4428 75.2425 55.4991C74.877 55.4065 74.5633 55.1725 74.3703 54.8486C74.1773 54.5247 74.1209 54.1374 74.2134 53.7718C74.306 53.4063 74.54 53.0926 74.864 52.8996C75.1879 52.7066 75.5752 52.6502 75.9407 52.7427C80.3529 53.8655 84.16 56.6511 86.5653 60.5167C88.9706 64.3823 89.7878 69.0283 88.8459 73.4826C88.8073 73.6661 88.7327 73.8401 88.6266 73.9946C88.5204 74.1492 88.3847 74.2812 88.2273 74.3831C88.07 74.485 87.894 74.5547 87.7095 74.5883C87.5251 74.6219 87.3358 74.6187 87.1526 74.5788Z"
								fill="black" />
							<path fill-rule="evenodd" clip-rule="evenodd"
								d="M12.8591 35.8427C10.253 33.9609 8.26343 31.3485 7.14206 28.3359C6.02069 25.3233 5.81787 22.0459 6.55925 18.918C7.30063 15.7902 8.95291 12.9524 11.3071 10.7636C13.6613 8.57485 16.6118 7.13338 19.7853 6.62148C22.9587 6.10957 26.2128 6.55024 29.1358 7.88776C32.0588 9.22528 34.5196 11.3996 36.2068 14.1357C37.8941 16.8718 38.7321 20.0468 38.6149 23.2591C38.4976 26.4715 37.4304 29.577 35.5482 32.1828C33.024 35.6759 29.216 38.0237 24.9613 38.71C20.7066 39.3963 16.3536 38.3649 12.8591 35.8427ZM33.2451 30.5179C34.7978 28.3679 35.6781 25.8057 35.7746 23.1554C35.8712 20.5051 35.1796 17.8857 33.7874 15.6284C32.3953 13.3712 30.365 11.5774 27.9534 10.474C25.5418 9.37059 22.8571 9.00707 20.2389 9.42945C17.6207 9.85183 15.1865 11.0411 13.2442 12.8469C11.3019 14.6527 9.93871 16.9939 9.32699 19.5745C8.71528 22.155 8.88252 24.859 9.80757 27.3445C10.7326 29.83 12.3739 31.9854 14.524 33.5381C17.4076 35.6185 20.9992 36.469 24.5096 35.9027C28.02 35.3364 31.162 33.3996 33.2451 30.5179Z"
								fill="black" />
							<path fill-rule="evenodd" clip-rule="evenodd"
								d="M32.1226 61.5336C31.9564 61.4484 31.8087 61.3312 31.6878 61.1889C31.5668 61.0465 31.4752 60.8818 31.4179 60.704C31.3607 60.5262 31.3391 60.3389 31.3543 60.1527C31.3695 59.9666 31.4213 59.7853 31.5066 59.6191L46.4336 30.4759C46.5138 30.3016 46.6284 30.1454 46.7706 30.0166C46.9127 29.8878 47.0795 29.7891 47.2608 29.7264C47.4421 29.6638 47.6342 29.6384 47.8255 29.652C48.0168 29.6655 48.2035 29.7176 48.3741 29.8052C48.5448 29.8928 48.696 30.014 48.8186 30.1616C48.9412 30.3091 49.0326 30.4799 49.0874 30.6637C49.1423 30.8476 49.1593 31.0406 49.1376 31.2312C49.1158 31.4217 49.0558 31.606 48.961 31.7727L34.0355 60.916C33.8637 61.2515 33.5657 61.505 33.207 61.6208C32.8482 61.7366 32.4582 61.7053 32.1226 61.5336Z"
								fill="black" />
							<path fill-rule="evenodd" clip-rule="evenodd"
								d="M61.3628 60.916L46.4358 31.7727C46.341 31.606 46.2809 31.4217 46.2592 31.2312C46.2374 31.0406 46.2545 30.8476 46.3093 30.6637C46.3641 30.4799 46.4556 30.3091 46.5782 30.1616C46.7008 30.014 46.8519 29.8928 47.0226 29.8052C47.1933 29.7176 47.3799 29.6655 47.5712 29.652C47.7626 29.6384 47.9547 29.6638 48.136 29.7264C48.3173 29.7891 48.484 29.8878 48.6262 30.0166C48.7683 30.1454 48.8829 30.3016 48.9631 30.4759L63.8901 59.6191C63.985 59.7859 64.045 59.9701 64.0668 60.1607C64.0885 60.3513 64.0715 60.5443 64.0166 60.7281C63.9618 60.9119 63.8703 61.0827 63.7478 61.2303C63.6252 61.3778 63.474 61.499 63.3033 61.5866C63.1327 61.6742 62.946 61.7263 62.7547 61.7398C62.5634 61.7534 62.3712 61.7281 62.1899 61.6654C62.0086 61.6028 61.8419 61.504 61.6997 61.3752C61.5576 61.2464 61.443 61.0902 61.3628 60.916Z"
								fill="black" />
							<path fill-rule="evenodd" clip-rule="evenodd"
								d="M35.9473 52.8025C35.9473 52.4254 36.097 52.0638 36.3637 51.7972C36.6303 51.5306 36.9918 51.3809 37.3689 51.3809H58.739C59.1161 51.3809 59.4776 51.5306 59.7443 51.7972C60.0109 52.0638 60.1606 52.4254 60.1606 52.8025C60.1606 53.1795 60.0109 53.5411 59.7443 53.8077C59.4776 54.0743 59.1161 54.2241 58.739 54.2241H37.3689C36.9918 54.2241 36.6303 54.0743 36.3637 53.8077C36.097 53.5411 35.9473 53.1795 35.9473 52.8025Z"
								fill="black" />
							<path fill-rule="evenodd" clip-rule="evenodd"
								d="M74.7518 92.1552C72.8171 90.7579 71.3401 88.8183 70.5077 86.5816C69.6753 84.345 69.5249 81.9117 70.0755 79.5895C70.626 77.2673 71.8528 75.1605 73.6007 73.5356C75.3486 71.9107 77.5391 70.8406 79.8952 70.4606C82.2513 70.0806 84.6672 70.4078 86.8373 71.4009C89.0074 72.3939 90.8343 74.0082 92.087 76.0396C93.3397 78.0709 93.9618 80.4281 93.8748 82.8131C93.7878 85.1981 92.9954 87.5036 91.598 89.4383C89.7235 92.0314 86.8961 93.7742 83.7373 94.2836C80.5784 94.7931 77.3465 94.0275 74.7518 92.1552ZM89.2934 87.7734C90.3615 86.2946 90.967 84.5323 91.0335 82.7093C91.0999 80.8863 90.6243 79.0846 89.6668 77.5319C88.7092 75.9792 87.3128 74.7454 85.654 73.9864C83.9952 73.2274 82.1486 72.9773 80.3476 73.2678C78.5467 73.5583 76.8724 74.3764 75.5364 75.6185C74.2004 76.8605 73.2627 78.4709 72.842 80.2459C72.4212 82.0209 72.5363 83.8808 73.1726 85.5904C73.8089 87.3001 74.9378 88.7826 76.4167 89.8506C78.4002 91.2814 80.8705 91.8663 83.2849 91.4768C85.6994 91.0873 87.8605 89.7553 89.2934 87.7734Z"
								fill="black" />
							<path fill-rule="evenodd" clip-rule="evenodd"
								d="M10.2235 90.7462C8.28893 89.3488 6.81221 87.4091 5.98004 85.1725C5.14787 82.9358 4.99762 80.5026 5.54828 78.1806C6.09894 75.8585 7.32579 73.7519 9.07369 72.1271C10.8216 70.5023 13.012 69.4323 15.368 69.0523C17.7241 68.6724 20.1398 68.9996 22.3099 69.9926C24.4799 70.9856 26.3068 72.5998 27.5595 74.631C28.8121 76.6623 29.4344 79.0194 29.3475 81.4042C29.2606 83.7891 28.4684 86.0947 27.0712 88.0294C25.1967 90.6229 22.369 92.366 19.2098 92.8754C16.0505 93.3849 12.8182 92.619 10.2235 90.7462ZM24.7666 86.3645C25.8345 84.8856 26.4398 83.1233 26.5062 81.3004C26.5725 79.4775 26.0968 77.6759 25.1392 76.1234C24.1817 74.5708 22.7852 73.3371 21.1265 72.5781C19.4678 71.8192 17.6213 71.5692 15.8205 71.8596C14.0197 72.1501 12.3454 72.968 11.0094 74.2099C9.67342 75.4519 8.73569 77.0621 8.31481 78.837C7.89393 80.6119 8.00879 82.4717 8.64486 84.1813C9.28094 85.8909 10.4097 87.3735 11.8883 88.4416C13.8712 89.8738 16.3416 90.4601 18.7565 90.0714C21.1714 89.6828 23.3332 88.3512 24.7666 86.3692V86.3645Z"
								fill="black" />
							<path fill-rule="evenodd" clip-rule="evenodd"
								d="M29.6116 21.921C29.1677 18.446 27.4539 16.4999 25.0308 15.2062C24.8606 15.1216 24.7092 15.0037 24.5853 14.8596C24.4615 14.7154 24.3679 14.5479 24.3099 14.3669C24.252 14.1859 24.2309 13.9951 24.2479 13.8058C24.265 13.6166 24.3198 13.4326 24.4091 13.2649C24.4985 13.0972 24.6206 12.9491 24.7681 12.8294C24.9157 12.7096 25.0858 12.6207 25.2683 12.5678C25.4509 12.515 25.6422 12.4992 25.8309 12.5216C26.0196 12.5439 26.2019 12.6039 26.3671 12.6979C29.5263 14.3801 31.8625 17.0828 32.4358 21.5593C32.4838 21.9334 32.3812 22.3112 32.1506 22.6097C31.92 22.9081 31.5802 23.1028 31.2061 23.1507C30.832 23.1987 30.4542 23.0961 30.1557 22.8655C29.8573 22.6349 29.6627 22.2951 29.6147 21.921H29.6116Z"
								fill="black" />
							<path fill-rule="evenodd" clip-rule="evenodd"
								d="M67.8386 44.8827C66.8009 36.77 62.7208 32.1023 57.0327 29.0695C56.8626 28.9849 56.7111 28.867 56.5873 28.7229C56.4635 28.5787 56.3698 28.4111 56.3119 28.2302C56.2539 28.0492 56.2328 27.8584 56.2499 27.6691C56.2669 27.4799 56.3217 27.2959 56.4111 27.1282C56.5004 26.9605 56.6225 26.8124 56.7701 26.6926C56.9177 26.5729 57.0878 26.484 57.2703 26.4311C57.4528 26.3782 57.6441 26.3625 57.8329 26.3849C58.0216 26.4072 58.2039 26.4671 58.3691 26.5611C64.7869 29.9825 69.4925 35.4068 70.6598 44.521C70.6835 44.7062 70.6705 44.8943 70.6216 45.0745C70.5727 45.2548 70.4887 45.4236 70.3745 45.5714C70.1439 45.8698 69.8042 46.0644 69.4301 46.1124C69.056 46.1604 68.6781 46.0578 68.3797 45.8271C68.0812 45.5965 67.8866 45.2568 67.8386 44.8827Z"
								fill="black" />
							<path fill-rule="evenodd" clip-rule="evenodd"
								d="M85.8773 83.0077C85.6072 80.8927 84.5836 79.7333 83.1067 78.9466C82.7739 78.7692 82.5251 78.4669 82.4152 78.1061C82.3053 77.7452 82.3433 77.3556 82.5207 77.0227C82.6981 76.6899 83.0005 76.4411 83.3613 76.3312C83.7221 76.2213 84.1118 76.2593 84.4446 76.4367C86.656 77.6119 88.2988 79.5248 88.6984 82.6476C88.7462 83.0217 88.6434 83.3995 88.4126 83.6978C88.1818 83.9961 87.842 84.1905 87.4679 84.2382C87.0938 84.286 86.7161 84.1832 86.4178 83.9524C86.1195 83.7217 85.925 83.3818 85.8773 83.0077Z"
								fill="black" />
							<path fill-rule="evenodd" clip-rule="evenodd"
								d="M74.5028 27.045C72.5682 25.6476 71.0915 23.708 70.2593 21.4713C69.4272 19.2346 69.2769 16.8015 69.8276 14.4794C70.3782 12.1574 71.6051 10.0507 73.353 8.42593C75.1009 6.80113 77.2913 5.7311 79.6474 5.35117C82.0034 4.97124 84.4191 5.29846 86.5892 6.29146C88.7592 7.28446 90.5861 8.89865 91.8388 10.9299C93.0914 12.9611 93.7137 15.3182 93.6268 17.7031C93.5399 20.088 92.7477 22.3935 91.3505 24.3282C89.4757 26.9214 86.6481 28.6642 83.489 29.1736C80.3298 29.683 77.0977 28.9174 74.5028 27.045ZM89.0444 22.6665C90.1124 21.1876 90.718 19.4253 90.7844 17.6023C90.8509 15.7793 90.3752 13.9776 89.4177 12.4249C88.4601 10.8723 87.0637 9.63842 85.4049 8.87943C83.7461 8.12043 81.8995 7.87038 80.0986 8.16088C78.2977 8.45139 76.6233 9.2694 75.2873 10.5115C73.9513 11.7536 73.0137 13.3639 72.5929 15.1389C72.1721 16.9139 72.2872 18.7739 72.9235 20.4835C73.5598 22.1931 74.6887 23.6756 76.1676 24.7436C78.1512 26.174 80.6214 26.7587 83.0357 26.3692C85.4501 25.9798 87.6111 24.648 89.0444 22.6665Z"
								fill="black" />
							<path fill-rule="evenodd" clip-rule="evenodd"
								d="M85.6297 17.8882C85.3595 15.7732 84.3344 14.6138 82.8591 13.8271C82.6943 13.7394 82.5484 13.6201 82.4297 13.4759C82.311 13.3318 82.2219 13.1657 82.1674 12.9871C82.1129 12.8085 82.0941 12.621 82.1121 12.4351C82.1301 12.2493 82.1845 12.0688 82.2723 11.904C82.36 11.7392 82.4793 11.5933 82.6235 11.4746C82.7676 11.3559 82.9337 11.2668 83.1123 11.2123C83.2909 11.1578 83.4784 11.139 83.6643 11.157C83.8501 11.175 84.0306 11.2294 84.1954 11.3172C86.4068 12.4924 88.0511 14.4053 88.4492 17.5281C88.4776 17.7154 88.4683 17.9066 88.4218 18.0903C88.3753 18.274 88.2925 18.4466 88.1783 18.5978C88.0641 18.7491 87.9209 18.8759 87.757 18.971C87.593 19.0661 87.4118 19.1275 87.2238 19.1515C87.0358 19.1755 86.8449 19.1617 86.6624 19.1108C86.4798 19.06 86.3092 18.9732 86.1607 18.8555C86.0122 18.7378 85.8887 18.5916 85.7975 18.4255C85.7063 18.2594 85.6492 18.0767 85.6297 17.8882Z"
								fill="black" />
						</svg>