<svg width="100" height="100" viewBox="0 0 100 100" fill="none" xmlns="http://www.w3.org/2000/svg">
							<path fill-rule="evenodd" clip-rule="evenodd"
								d="M19.3168 63.5955C15.6341 56.212 14.9481 47.6908 17.4024 39.8133C17.4582 39.6351 17.5485 39.4697 17.6683 39.3264C17.788 39.1832 17.9348 39.0649 18.1002 38.9783C18.2657 38.8918 18.4466 38.8387 18.6325 38.8221C18.8185 38.8054 19.006 38.8256 19.1841 38.8814C19.3623 38.9372 19.5278 39.0275 19.671 39.1473C19.8143 39.267 19.9326 39.4138 20.0191 39.5793C20.1057 39.7447 20.1588 39.9256 20.1754 40.1116C20.192 40.2975 20.1719 40.485 20.1161 40.6631C17.8783 47.8376 18.5009 55.5994 21.8536 62.3255C21.9451 62.4934 22.0018 62.6781 22.0203 62.8684C22.0387 63.0588 22.0186 63.2509 21.9611 63.4333C21.9036 63.6157 21.8099 63.7846 21.6856 63.9299C21.5612 64.0752 21.4089 64.1939 21.2376 64.279C21.0663 64.364 20.8796 64.4137 20.6887 64.4249C20.4978 64.4361 20.3066 64.4087 20.1265 64.3443C19.9465 64.2799 19.7812 64.1798 19.6408 64.0501C19.5003 63.9203 19.3874 63.7635 19.3089 63.5892L19.3168 63.5955Z"
								fill="black" />
							<path fill-rule="evenodd" clip-rule="evenodd"
								d="M36.1052 78.975C35.9316 78.9063 35.7732 78.8041 35.6391 78.6742C35.5049 78.5444 35.3977 78.3893 35.3235 78.218C35.1736 77.872 35.1673 77.4807 35.3059 77.13C35.4446 76.7794 35.7169 76.4982 36.0629 76.3483C36.4089 76.1984 36.8003 76.1921 37.1509 76.3307C49.1968 81.0932 63.3988 77.3022 71.3251 66.3257C80.7015 53.3447 77.7729 35.1969 64.792 25.8221C54.3178 18.2575 40.4775 18.6998 30.5972 25.9801C30.2933 26.2036 29.913 26.2972 29.5401 26.2403C29.1671 26.1834 28.832 25.9807 28.6085 25.6768C28.385 25.3729 28.2914 24.9926 28.3483 24.6196C28.4052 24.2467 28.6079 23.9116 28.9118 23.6881C39.7572 15.7002 54.9527 15.2073 66.4584 23.5159C80.7125 33.8116 83.927 53.7364 73.6313 67.9906C64.9262 80.0459 49.331 84.2034 36.1052 78.975Z"
								fill="black" />
							<path fill-rule="evenodd" clip-rule="evenodd"
								d="M76.2979 42.8265C76.2728 42.6413 76.2844 42.4531 76.3321 42.2724C76.3798 42.0917 76.4626 41.9223 76.5759 41.7736C76.6891 41.625 76.8306 41.5002 76.9921 41.4063C77.1537 41.3124 77.3321 41.2513 77.5173 41.2264C80.3627 40.8396 83.0509 39.6916 85.2978 37.9035C87.5448 36.1155 89.2672 33.7538 90.283 31.0679C91.2989 28.382 91.5705 25.4716 91.0693 22.6442C90.568 19.8167 89.3125 17.177 87.4352 15.004C85.5579 12.8311 83.1287 11.2054 80.404 10.2987C77.6793 9.39206 74.7603 9.23807 71.9554 9.85302C69.1504 10.468 66.5636 11.829 64.4681 13.7924C62.3726 15.7558 60.8463 18.2487 60.0503 21.0078C59.9985 21.1872 59.9118 21.3547 59.7952 21.5006C59.6786 21.6465 59.5344 21.768 59.3709 21.8583C59.0406 22.0404 58.6515 22.0839 58.2891 21.9792C58.1097 21.9274 57.9422 21.8407 57.7963 21.7241C57.6504 21.6075 57.5288 21.4633 57.4386 21.2998C57.2564 20.9695 57.2129 20.5804 57.3176 20.218C58.2542 16.9634 60.0527 14.0222 62.5229 11.7055C64.9932 9.38871 68.0435 7.78238 71.3515 7.05626C74.6594 6.33015 78.1021 6.51122 81.3156 7.58036C84.5291 8.64949 87.394 10.567 89.6076 13.1301C91.8212 15.6932 93.3012 18.8068 93.8912 22.1417C94.4811 25.4766 94.1591 28.909 92.9592 32.076C91.7593 35.243 89.7261 38.0269 87.0744 40.1337C84.4227 42.2404 81.2511 43.5915 77.8948 44.0443C77.5216 44.0942 77.1439 43.994 76.8445 43.7657C76.5451 43.5373 76.3485 43.1996 76.2979 42.8265Z"
								fill="black" />
							<path fill-rule="evenodd" clip-rule="evenodd"
								d="M13.0967 39.503C11.151 38.0979 9.66566 36.1474 8.82852 33.8982C7.99138 31.6489 7.84004 29.202 8.39362 26.8667C8.94719 24.5314 10.1808 22.4128 11.9385 20.7786C13.6962 19.1445 15.899 18.0683 18.2684 17.6861C20.6377 17.3039 23.0672 17.6329 25.2496 18.6315C27.4319 19.6301 29.2692 21.2534 30.529 23.2961C31.7887 25.3389 32.4145 27.7094 32.327 30.1077C32.2395 32.5061 31.4429 34.8247 30.0377 36.7703C28.1527 39.378 25.3094 41.1307 22.1328 41.6431C18.9561 42.1555 15.706 41.3858 13.0967 39.503ZM27.733 35.1054C28.8091 33.6158 29.4193 31.8405 29.4864 30.0041C29.5535 28.1677 29.0746 26.3526 28.1101 24.7884C27.1456 23.2242 25.739 21.9812 24.068 21.2164C22.3971 20.4517 20.5369 20.1997 18.7226 20.4922C16.9084 20.7847 15.2217 21.6086 13.8758 22.8597C12.5298 24.1109 11.5851 25.733 11.1611 27.5211C10.7371 29.3091 10.8529 31.1828 11.4938 32.905C12.1346 34.6273 13.2718 36.1208 14.7615 37.1968C16.7593 38.6386 19.2478 39.2283 21.6802 38.8361C24.1125 38.444 26.2897 37.1021 27.733 35.1054Z"
								fill="black" />
							<path fill-rule="evenodd" clip-rule="evenodd"
								d="M38.7889 66.0029C36.4937 64.3434 34.7645 62.0182 33.8357 59.3426C32.9069 56.667 32.8235 53.7705 33.5968 51.0458L33.6095 51.0032L33.6237 50.9605C36.4195 43.0484 40.8329 37.2593 44.131 31.3738C44.4271 30.782 44.8604 30.2697 45.3947 29.8795C45.7752 29.6124 46.225 29.4614 46.6896 29.4449C47.1541 29.4283 47.6136 29.5469 48.0121 29.7863C48.6297 30.1417 49.1036 30.7246 49.4748 31.3406C53.0936 37.3588 57.1784 42.8715 60.0216 50.7141L60.0342 50.7489L60.0453 50.7836C60.8927 53.5458 60.8511 56.5045 59.9263 59.2418C59.0016 61.979 57.2404 64.3567 54.8914 66.0391C52.5424 67.7214 49.7244 68.6235 46.8351 68.6178C43.9458 68.6122 41.1313 67.6991 38.7889 66.0076V66.0029ZM55.7362 61.2325C56.6058 60.0311 57.2214 58.6651 57.5454 57.2178C57.8694 55.7706 57.895 54.2725 57.6206 52.815L57.3332 51.6398L56.2796 48.975C53.6749 42.8905 50.3388 38.2907 47.039 32.8017C46.9759 32.6974 46.9174 32.6106 46.8653 32.5395L46.7974 32.4542L46.7642 32.5C46.7216 32.5648 46.6742 32.6437 46.622 32.7385C43.5134 38.2923 40.0068 42.9726 37.3752 49.1661L36.3263 51.8625L36.0009 53.4642C35.6971 55.8768 36.2052 58.322 37.4451 60.4138C38.6851 62.5056 40.5863 64.125 42.8487 65.0165C45.1111 65.9079 47.6059 66.0207 49.9395 65.3369C52.2731 64.6532 54.3126 63.2119 55.7362 61.2404V61.2325Z"
								fill="black" />
							<path fill-rule="evenodd" clip-rule="evenodd"
								d="M19.1985 93.81C17.3729 93.5488 15.6056 92.9766 13.9733 92.1183C13.6419 91.9415 13.3939 91.6407 13.2835 91.2817C13.1731 90.9227 13.2093 90.5345 13.3842 90.2021C13.5591 89.8697 13.8584 89.62 14.2168 89.5075C14.5752 89.3951 14.9636 89.4291 15.297 89.602C18.1176 91.0903 21.3777 91.5201 24.4876 90.8137C27.5976 90.1072 30.3521 88.3113 32.253 85.7505C34.1539 83.1898 35.0757 80.0334 34.8517 76.8521C34.6278 73.6708 33.2728 70.6747 31.0318 68.4056C28.7909 66.1364 25.8119 64.7441 22.6336 64.4804C19.4554 64.2168 16.2877 65.0991 13.7034 66.9679C11.1191 68.8367 9.28892 71.5685 8.54373 74.6694C7.79854 77.7703 8.18759 81.0355 9.64051 83.8745C9.79663 84.2078 9.81741 84.5886 9.69847 84.9369C9.57953 85.2852 9.33015 85.5738 9.00277 85.742C8.6754 85.9102 8.29555 85.9449 7.94313 85.8387C7.59072 85.7326 7.29321 85.4939 7.11318 85.1729C5.45884 81.9446 4.93696 78.2542 5.63132 74.6938C6.32568 71.1335 8.19601 67.9096 10.9422 65.5395C13.6883 63.1695 17.151 61.7907 20.7747 61.6244C24.3983 61.4582 27.9727 62.5141 30.9244 64.6227C33.876 66.7314 36.0337 69.7705 37.0511 73.2523C38.0686 76.7341 37.8868 80.4568 36.535 83.823C35.1832 87.1892 32.7398 90.0036 29.5968 91.8147C26.4538 93.6258 22.7935 94.3285 19.2033 93.81H19.1985Z"
								fill="black" />
							<path fill-rule="evenodd" clip-rule="evenodd"
								d="M73.7915 93.0042C71.9609 91.6814 70.5637 89.8456 69.7766 87.7287C68.9894 85.6119 68.8477 83.3092 69.3692 81.1118C69.8908 78.9144 71.0523 76.921 72.7068 75.3837C74.3613 73.8464 76.4345 72.8343 78.6642 72.4753C80.894 72.1163 83.1801 72.4265 85.2335 73.3668C87.2869 74.3072 89.0154 75.8352 90.2003 77.7579C91.3852 79.6806 91.9733 81.9114 91.8904 84.1683C91.8074 86.4253 91.0571 88.6069 89.7342 90.4374C87.9598 92.8911 85.2837 94.5398 82.2942 95.0212C79.3046 95.5025 76.2463 94.777 73.7915 93.0042ZM87.4296 88.7678C88.4225 87.3927 88.9853 85.7541 89.047 84.0592C89.1086 82.3643 88.6663 80.6891 87.7759 79.2456C86.8855 77.802 85.5871 76.6549 84.0448 75.9493C82.5025 75.2437 80.7856 75.0113 79.1112 75.2814C77.4368 75.5516 75.8801 76.3122 74.6379 77.4671C73.3958 78.6219 72.524 80.1192 72.1328 81.7695C71.7416 83.4198 71.8486 85.1491 72.4401 86.7386C73.0317 88.3282 74.0814 89.7066 75.4564 90.6996C77.3005 92.0304 79.5977 92.5745 81.8429 92.2122C84.088 91.85 86.0975 90.6111 87.4296 88.7678Z"
								fill="black" />
							<path fill-rule="evenodd" clip-rule="evenodd"
								d="M83.368 83.9028C83.1484 82.1779 82.3223 81.2459 81.1186 80.6046C80.9508 80.5185 80.8018 80.3999 80.6802 80.2557C80.5587 80.1114 80.467 79.9445 80.4107 79.7644C80.3543 79.5844 80.3343 79.395 80.3519 79.2072C80.3694 79.0194 80.4242 78.837 80.513 78.6706C80.6017 78.5041 80.7227 78.357 80.8689 78.2378C81.0151 78.1186 81.1836 78.0297 81.3645 77.9762C81.5453 77.9228 81.7351 77.9059 81.9226 77.9265C82.11 77.9471 82.2916 78.0048 82.4565 78.0962C84.3884 79.1245 85.8384 80.8084 86.1891 83.5426C86.2127 83.7278 86.1997 83.9159 86.1506 84.0961C86.1016 84.2763 86.0175 84.4451 85.9033 84.5928C85.789 84.7405 85.6468 84.8642 85.4847 84.957C85.3226 85.0497 85.1438 85.1096 84.9586 85.1332C84.7734 85.1569 84.5853 85.1438 84.4051 85.0948C84.2249 85.0457 84.0561 84.9617 83.9084 84.8474C83.7607 84.7332 83.637 84.5909 83.5442 84.4288C83.4515 84.2668 83.3916 84.088 83.368 83.9028Z"
								fill="black" />
							<path fill-rule="evenodd" clip-rule="evenodd"
								d="M70.6625 46.5552C68.5996 36.4143 63.1485 30.8178 56.4084 27.6318C56.2356 27.5547 56.0799 27.4438 55.9505 27.3056C55.8211 27.1675 55.7206 27.0049 55.6549 26.8274C55.5892 26.6499 55.5595 26.4611 55.5677 26.272C55.576 26.0829 55.6219 25.8974 55.7027 25.7262C55.7836 25.5551 55.8979 25.4019 56.0387 25.2755C56.1796 25.1491 56.3444 25.0521 56.5232 24.9902C56.7021 24.9284 56.8915 24.9028 57.0804 24.9151C57.2693 24.9274 57.4538 24.9773 57.6231 25.0619C65.1293 28.6096 71.1964 34.9216 73.4473 45.9897C73.4916 46.1752 73.498 46.3677 73.4663 46.5558C73.4346 46.7439 73.3653 46.9236 73.2627 47.0844C73.16 47.2451 73.0261 47.3836 72.8689 47.4915C72.7116 47.5994 72.5343 47.6746 72.3474 47.7125C72.1605 47.7505 71.9678 47.7504 71.781 47.7124C71.5941 47.6743 71.4168 47.5991 71.2596 47.4911C71.1024 47.3831 70.9685 47.2446 70.8659 47.0838C70.7634 46.923 70.6942 46.7433 70.6625 46.5552Z"
								fill="black" />
							<path fill-rule="evenodd" clip-rule="evenodd"
								d="M29.1251 76.7642C28.2089 73.0443 26.0939 71.1267 23.2886 70.021C22.9397 69.8816 22.6602 69.6097 22.5112 69.2648C22.3621 68.9199 22.3557 68.5301 22.4932 68.1804C22.6308 67.8308 22.9012 67.5499 23.2452 67.399C23.5893 67.2481 23.9791 67.2395 24.3295 67.3752C27.9041 68.7842 30.7252 71.3763 31.8846 76.0834C31.9749 76.4496 31.916 76.8366 31.721 77.1593C31.5259 77.4821 31.2106 77.7141 30.8445 77.8044C30.4783 77.8947 30.0913 77.8358 29.7686 77.6407C29.4458 77.4457 29.2138 77.1304 29.1235 76.7642H29.1251Z"
								fill="black" />
							<path fill-rule="evenodd" clip-rule="evenodd"
								d="M84.6573 22.3405C83.7412 18.6206 81.6277 16.7046 78.8223 15.5989C78.6476 15.5312 78.488 15.4297 78.3527 15.3002C78.2174 15.1707 78.109 15.0157 78.0337 14.8441C77.9585 14.6725 77.9179 14.4878 77.9143 14.3005C77.9107 14.1132 77.9442 13.927 78.0128 13.7527C78.0813 13.5784 78.1837 13.4193 78.314 13.2847C78.4442 13.1501 78.5998 13.0425 78.7718 12.9682C78.9437 12.8939 79.1287 12.8543 79.316 12.8517C79.5033 12.8491 79.6893 12.8836 79.8633 12.9531C83.4379 14.3605 86.259 16.9542 87.4184 21.6613C87.463 21.8426 87.4715 22.0309 87.4433 22.2155C87.4151 22.4 87.3508 22.5772 87.2542 22.737C87.1575 22.8967 87.0304 23.0358 86.8799 23.1464C86.7295 23.257 86.5588 23.3369 86.3775 23.3815C86.1962 23.4261 86.0079 23.4345 85.8233 23.4063C85.6387 23.3782 85.4615 23.3139 85.3018 23.2173C85.1421 23.1206 85.0029 22.9934 84.8924 22.843C84.7818 22.6926 84.7019 22.5218 84.6573 22.3405Z"
								fill="black" />
						</svg>