<svg width="312" height="150" viewBox="0 0 312 150" fill="none" xmlns="http://www.w3.org/2000/svg">
					<rect width="312" height="150" fill="white" />
					<g clip-path="url(#clip0_175_2000)">
						<path
							d="M136.993 77.9001C136.993 82.0651 136.282 84.8612 134.88 86.326C133.48 87.7921 131.1 88.5246 127.798 88.5246C125.86 88.5246 124.228 88.159 122.885 87.4253C121.541 86.6929 120.6 85.6325 120.044 84.2831C119.486 82.9142 119.218 80.7921 119.218 77.9183V58.7901H114.707V77.939C114.707 81.4481 115.149 84.226 116.012 86.2495C116.877 88.2744 118.335 89.817 120.351 90.8968C122.386 91.9571 124.996 92.4977 128.182 92.4977C131.464 92.4977 134.114 91.8807 136.148 90.666C138.163 89.4307 139.565 87.8505 140.351 85.8827C141.119 83.9162 141.522 81.2744 141.522 77.9584V58.7901H136.993V77.9001ZM95.1483 92.2851C97.3365 92.2851 99.198 92.092 100.715 91.7264C102.231 91.3596 103.478 90.8008 104.496 90.0671C105.494 89.3347 106.338 88.2938 107.029 86.9431C107.705 85.5838 108.054 84.085 108.046 82.5668C108.046 80.6184 107.489 78.9216 106.357 77.4957C105.244 76.0684 103.633 75.0457 101.56 74.4494C103.171 73.6768 104.381 72.6553 105.187 71.3823C105.967 70.1761 106.381 68.7693 106.377 67.3327C106.377 65.7901 105.936 64.3253 105.033 62.9175C104.132 61.5097 102.883 60.4675 101.29 59.7934C99.697 59.1194 97.5854 58.772 94.9565 58.772H82V92.2851H95.1483ZM86.5681 62.7425H93.4593C95.9352 62.7425 97.6813 62.8981 98.6989 63.2066C99.7165 63.5151 100.503 64.0933 101.041 64.9423C101.599 65.7901 101.866 66.774 101.866 67.872C101.866 69.049 101.578 70.0134 100.984 70.8042C100.388 71.5755 99.5246 72.1342 98.3528 72.4816C97.4713 72.7318 96.0311 72.8666 93.9972 72.8666H86.5694V62.7438L86.5681 62.7425ZM86.5681 76.8203H94.5352C96.7233 76.8203 98.4124 77.0134 99.583 77.379C100.755 77.7458 101.657 78.4018 102.329 79.3273C102.981 80.2529 103.307 81.3327 103.307 82.5862C103.307 83.6466 103.076 84.5916 102.616 85.4018C102.155 86.2107 101.579 86.8277 100.869 87.271C100.16 87.6962 99.2952 88.0047 98.24 88.1784C97.6437 88.2938 96.608 88.3327 95.1302 88.3327H86.5681V76.8203ZM154.035 73.5031V62.4158H164.938C167.492 62.4158 169.354 62.9175 170.544 63.939C171.734 64.9605 172.309 66.2529 172.309 67.8538C172.309 68.9336 172.002 69.9357 171.389 70.8612C170.774 71.7868 169.891 72.4621 168.701 72.8666C167.53 73.2918 165.899 73.5031 163.807 73.5031H154.035ZM180.87 92.1892L166.666 77.051L167.338 76.994C170.639 76.5507 173.096 75.5084 174.671 73.8894C176.245 72.2496 177.051 70.2636 177.051 67.8733C177.051 66.0221 176.571 64.3434 175.612 62.8203C174.651 61.2971 173.384 60.2368 171.772 59.6392C170.178 59.0416 167.837 58.7318 164.766 58.7318H149.488V92.2475H154.056V77.3596H161.215L175.323 92.1892H180.871H180.87ZM210.795 84.9196C208.28 87.5031 205.151 88.8344 201.465 88.8733C198.069 88.9108 195.016 87.6573 192.406 85.1697C189.777 82.6821 188.413 79.4427 188.374 75.5473C188.336 71.827 189.585 68.664 192.08 66.0986C194.576 63.5151 197.684 62.1838 201.35 62.1449C205.017 62.1073 208.165 63.3803 210.679 65.9055C213.212 68.4333 214.498 71.6144 214.537 75.3736C214.557 79.0953 213.308 82.2958 210.795 84.9196ZM213.731 63.0329C210.296 59.6392 205.632 57.9618 200.872 58.0007C196.053 58.0395 192.368 59.8129 188.97 63.2455C185.553 66.6768 183.845 70.8029 183.902 75.5279C183.96 80.9075 185.919 85.3046 189.718 88.5829C193.192 91.5514 197.128 93.037 201.446 92.9981C206.321 92.941 210.525 91.1858 213.942 87.774C217.34 84.379 219.048 80.214 218.99 75.3736C218.952 70.5721 217.167 66.4266 213.731 63.0329ZM227.512 92.9216C228.115 92.9216 228.694 92.6819 229.121 92.2553C229.547 91.8286 229.787 91.25 229.787 90.6466C229.787 90.0432 229.547 89.4646 229.121 89.0379C228.694 88.6113 228.115 88.3716 227.512 88.3716C227.213 88.3716 226.917 88.4304 226.641 88.5448C226.365 88.6591 226.114 88.8267 225.903 89.0379C225.692 89.2492 225.524 89.5 225.41 89.776C225.296 90.052 225.237 90.3478 225.237 90.6466C225.237 90.9453 225.296 91.2412 225.41 91.5172C225.524 91.7932 225.692 92.044 225.903 92.2553C226.114 92.4665 226.365 92.6341 226.641 92.7484C226.917 92.8627 227.213 92.9216 227.512 92.9216Z"
							fill="#231F20" />
					</g>
					<defs>
						<clipPath id="clip0_175_2000">
							<rect width="147.778" height="35" fill="white" transform="translate(82 58)" />
						</clipPath>
					</defs>
				</svg>