<svg width="24" height="14" viewBox="0 0 24 14" fill="none"
            xmlns="http://www.w3.org/2000/svg">
            <path
              d="M0.879313 9.09088L4.74931 13.0009C4.84228 13.0946 4.95288 13.169 5.07474 13.2198C5.1966 13.2705 5.3273 13.2967 5.45931 13.2967C5.59133 13.2967 5.72203 13.2705 5.84389 13.2198C5.96575 13.169 6.07635 13.0946 6.16931 13.0009C6.26304 12.9079 6.33744 12.7973 6.3882 12.6755C6.43897 12.5536 6.46511 12.4229 6.46511 12.2909C6.46511 12.1589 6.43897 12.0282 6.3882 11.9063C6.33744 11.7844 6.26304 11.6738 6.16931 11.5809L2.60931 8.00088H22.9993C23.2645 8.00088 23.5189 7.89552 23.7064 7.70798C23.894 7.52045 23.9993 7.26609 23.9993 7.00088C23.9993 6.73566 23.894 6.48131 23.7064 6.29377C23.5189 6.10623 23.2645 6.00088 22.9993 6.00088H2.54931L6.16931 2.38088C6.3466 2.1949 6.4455 1.94782 6.4455 1.69088C6.4455 1.43394 6.3466 1.18685 6.16931 1.00088C6.07635 0.907148 5.96575 0.832753 5.84389 0.781985C5.72203 0.731216 5.59133 0.705078 5.45931 0.705078C5.3273 0.705078 5.1966 0.731216 5.07474 0.781985C4.95288 0.832753 4.84228 0.907148 4.74931 1.00088L0.879313 4.85088C0.317511 5.41338 0.00195313 6.17587 0.00195312 6.97088C0.00195312 7.76588 0.317511 8.52838 0.879313 9.09088Z"
              fill="black" />
          </svg>