<svg width="24" height="14" viewBox="0 0 24 14" fill="none"
            xmlns="http://www.w3.org/2000/svg">
            <path
              d="M23.12 4.91088L19.25 1.00088C19.157 0.907148 19.0464 0.832753 18.9246 0.781985C18.8027 0.731216 18.672 0.705078 18.54 0.705078C18.408 0.705078 18.2773 0.731216 18.1554 0.781985C18.0336 0.832753 17.923 0.907148 17.83 1.00088C17.6437 1.18824 17.5392 1.44169 17.5392 1.70588C17.5392 1.97006 17.6437 2.22351 17.83 2.41088L21.39 6.00088H1C0.734784 6.00088 0.48043 6.10623 0.292893 6.29377C0.105357 6.48131 0 6.73566 0 7.00088H0C0 7.26609 0.105357 7.52045 0.292893 7.70798C0.48043 7.89552 0.734784 8.00088 1 8.00088H21.45L17.83 11.6109C17.7363 11.7038 17.6619 11.8144 17.6111 11.9363C17.5603 12.0582 17.5342 12.1889 17.5342 12.3209C17.5342 12.4529 17.5603 12.5836 17.6111 12.7055C17.6619 12.8273 17.7363 12.9379 17.83 13.0309C17.923 13.1246 18.0336 13.199 18.1554 13.2498C18.2773 13.3005 18.408 13.3267 18.54 13.3267C18.672 13.3267 18.8027 13.3005 18.9246 13.2498C19.0464 13.199 19.157 13.1246 19.25 13.0309L23.12 9.15088C23.6818 8.58837 23.9974 7.82588 23.9974 7.03088C23.9974 6.23587 23.6818 5.47338 23.12 4.91088Z"
              fill="black" />
          </svg>