<svg width="40" height="40" viewBox="0 0 40 40" fill="none" xmlns="http://www.w3.org/2000/svg">
						<path fill-rule="evenodd" clip-rule="evenodd"
							d="M20 0C8.95431 0 0 8.95431 0 20C0 31.0457 8.95431 40 20 40C31.0457 40 40 31.0457 40 20C40 8.95431 31.0457 0 20 0ZM20.0009 11.5C17.8282 11.5 17.5555 11.5095 16.7022 11.5483C15.8505 11.5873 15.2692 11.7222 14.7605 11.92C14.2343 12.1243 13.788 12.3977 13.3433 12.8425C12.8983 13.2872 12.625 13.7335 12.42 14.2595C12.2216 14.7684 12.0866 15.3499 12.0483 16.2012C12.0101 17.0546 12.0001 17.3274 12.0001 19.5001C12.0001 21.6728 12.0098 21.9446 12.0485 22.798C12.0876 23.6496 12.2225 24.231 12.4201 24.7396C12.6246 25.2658 12.898 25.7121 13.3428 26.1568C13.7873 26.6018 14.2336 26.8758 14.7595 27.0802C15.2685 27.278 15.85 27.4128 16.7015 27.4518C17.5548 27.4907 17.8274 27.5002 19.9999 27.5002C22.1727 27.5002 22.4446 27.4907 23.2979 27.4518C24.1496 27.4128 24.7316 27.278 25.2406 27.0802C25.7666 26.8758 26.2123 26.6018 26.6568 26.1568C27.1018 25.7121 27.3751 25.2658 27.5801 24.7398C27.7768 24.231 27.9118 23.6495 27.9518 22.7981C27.9901 21.9448 28.0001 21.6728 28.0001 19.5001C28.0001 17.3274 27.9901 17.0547 27.9518 16.2014C27.9118 15.3497 27.7768 14.7684 27.5801 14.2597C27.3751 13.7335 27.1018 13.2872 26.6568 12.8425C26.2118 12.3975 25.7668 12.1242 25.2401 11.92C24.7301 11.7222 24.1484 11.5873 23.2967 11.5483C22.4434 11.5095 22.1717 11.5 19.9984 11.5H20.0009ZM24.2714 14.2689C23.7414 14.2689 23.3114 14.6984 23.3114 15.2286C23.3114 15.7586 23.7414 16.1886 24.2714 16.1886C24.8014 16.1886 25.2314 15.7586 25.2314 15.2286C25.2314 14.6986 24.8014 14.2686 24.2714 14.2686V14.2689ZM20.0009 15.3906C17.7321 15.3907 15.8927 17.2302 15.8927 19.499C15.8927 21.7679 17.7322 23.6065 20.0011 23.6065C22.2699 23.6065 24.1088 21.7679 24.1088 19.499C24.1088 17.2301 22.2698 15.3906 20.0009 15.3906ZM20.0012 16.8325C21.4739 16.8325 22.6679 18.0264 22.6679 19.4992C22.6679 20.9719 21.4739 22.1659 20.0012 22.1659C18.5283 22.1659 17.3345 20.9719 17.3345 19.4992C17.3345 18.0264 18.5283 16.8325 20.0012 16.8325Z"
							fill="black" />
					</svg>