<svg width="24" height="25" viewBox="0 0 24 25" fill="none" xmlns="http://www.w3.org/2000/svg">
                <g clipPath="url(#clip0_175_1770)">
                  <path
                    d="M17.5009 2.41602C16.3749 2.43353 15.2734 2.74787 14.3077 3.32729C13.342 3.9067 12.5463 4.73068 12.0009 5.71602C11.4556 4.73068 10.6599 3.9067 9.69417 3.32729C8.72848 2.74787 7.62698 2.43353 6.50094 2.41602C4.70588 2.49401 3.01464 3.27927 1.79672 4.60025C0.578794 5.92123 -0.0668157 7.67054 0.000934853 9.46602C0.000934853 14.013 4.78693 18.979 8.80093 22.346C9.69715 23.0991 10.8303 23.512 12.0009 23.512C13.1716 23.512 14.3047 23.0991 15.2009 22.346C19.2149 18.979 24.0009 14.013 24.0009 9.46602C24.0687 7.67054 23.4231 5.92123 22.2052 4.60025C20.9872 3.27927 19.296 2.49401 17.5009 2.41602ZM13.9159 20.816C13.3799 21.2674 12.7017 21.5149 12.0009 21.5149C11.3002 21.5149 10.622 21.2674 10.0859 20.816C4.94793 16.505 2.00093 12.369 2.00093 9.46602C1.93258 8.20073 2.3673 6.95975 3.2103 6.01372C4.0533 5.06769 5.23617 4.49337 6.50094 4.41602C7.7657 4.49337 8.94857 5.06769 9.79157 6.01372C10.6346 6.95975 11.0693 8.20073 11.0009 9.46602C11.0009 9.73123 11.1063 9.98559 11.2938 10.1731C11.4814 10.3607 11.7357 10.466 12.0009 10.466C12.2662 10.466 12.5205 10.3607 12.708 10.1731C12.8956 9.98559 13.0009 9.73123 13.0009 9.46602C12.9326 8.20073 13.3673 6.95975 14.2103 6.01372C15.0533 5.06769 16.2362 4.49337 17.5009 4.41602C18.7657 4.49337 19.9486 5.06769 20.7916 6.01372C21.6346 6.95975 22.0693 8.20073 22.0009 9.46602C22.0009 12.369 19.0539 16.505 13.9159 20.812V20.816Z"
                    fill="black" />
                </g>
                <defs>
                  <clipPath id="clip0_175_1770">
                    <rect width="24" height="24" fill="white" transform="translate(0 0.5)" />
                  </clipPath>
                </defs>
              </svg>