<svg width="40" height="40" viewBox="0 0 40 40" fill="none" xmlns="http://www.w3.org/2000/svg">
						<rect width="40" height="40" rx="20" fill="black" />
						<path
							d="M28.8939 24.6002C28.8697 24.548 28.8471 24.5047 28.8262 24.47C28.4792 23.8451 27.8161 23.078 26.8372 22.1685L26.8166 22.1477L26.8062 22.1375L26.7957 22.127H26.7852C26.341 21.7036 26.0597 21.4188 25.9419 21.273C25.7263 20.9953 25.678 20.7142 25.7959 20.4294C25.8791 20.2142 26.1917 19.7598 26.733 19.0655C27.0178 18.6975 27.2433 18.4026 27.4098 18.1804C28.6109 16.5836 29.1316 15.5633 28.9719 15.1189L28.9098 15.0151C28.8681 14.9526 28.7606 14.8954 28.5872 14.8432C28.4134 14.7912 28.1914 14.7826 27.9206 14.8173L24.9216 14.838C24.8731 14.8208 24.8037 14.8224 24.7133 14.8432C24.623 14.8641 24.5779 14.8746 24.5779 14.8746L24.5257 14.9006L24.4843 14.932C24.4495 14.9527 24.4114 14.9891 24.3697 15.0412C24.3282 15.0931 24.2935 15.154 24.2658 15.2234C23.9393 16.0634 23.5681 16.8444 23.1515 17.5663C22.8946 17.9968 22.6587 18.3699 22.4432 18.6858C22.2281 19.0016 22.0476 19.2342 21.9019 19.3834C21.756 19.5326 21.6244 19.6522 21.5061 19.7426C21.388 19.833 21.2979 19.8711 21.2355 19.8572C21.173 19.8432 21.1141 19.8293 21.0583 19.8155C20.9612 19.753 20.883 19.668 20.8241 19.5604C20.765 19.4528 20.7252 19.3173 20.7043 19.1542C20.6836 18.991 20.6714 18.8505 20.6679 18.7325C20.6646 18.6146 20.6661 18.4478 20.6732 18.2326C20.6804 18.0173 20.6836 17.8716 20.6836 17.7952C20.6836 17.5314 20.6888 17.2451 20.6991 16.9361C20.7096 16.6272 20.7181 16.3824 20.7252 16.2021C20.7323 16.0216 20.7356 15.8307 20.7356 15.6293C20.7356 15.428 20.7233 15.2701 20.6991 15.1555C20.6752 15.0411 20.6384 14.93 20.59 14.8223C20.5413 14.7147 20.4701 14.6314 20.3766 14.5724C20.2829 14.5133 20.1664 14.4665 20.0277 14.4317C19.6598 14.3484 19.1912 14.3034 18.6218 14.2964C17.3307 14.2825 16.501 14.3659 16.1331 14.5464C15.9873 14.6227 15.8554 14.7269 15.7374 14.8587C15.6125 15.0115 15.595 15.0949 15.6853 15.1086C16.1018 15.171 16.3968 15.3203 16.5703 15.5563L16.6329 15.6813C16.6815 15.7716 16.7301 15.9313 16.7787 16.1604C16.8273 16.3894 16.8586 16.6428 16.8724 16.9203C16.907 17.4272 16.907 17.8611 16.8724 18.222C16.8376 18.5831 16.8048 18.8642 16.7735 19.0655C16.7422 19.2668 16.6953 19.43 16.6329 19.5549C16.5703 19.6798 16.5287 19.7562 16.5079 19.7839C16.487 19.8117 16.4697 19.8291 16.4559 19.836C16.3656 19.8706 16.2718 19.8882 16.1747 19.8882C16.0774 19.8882 15.9595 19.8395 15.8206 19.7423C15.6819 19.6451 15.5378 19.5115 15.3885 19.3414C15.2393 19.1712 15.0709 18.9335 14.8834 18.6281C14.696 18.3226 14.5016 17.9617 14.3003 17.5452L14.1338 17.2431C14.0296 17.0488 13.8874 16.7658 13.7069 16.3945C13.5263 16.023 13.3666 15.6637 13.2278 15.3166C13.1724 15.1708 13.089 15.0598 12.978 14.9834L12.9259 14.9521C12.8912 14.9244 12.8356 14.895 12.7593 14.8636C12.6829 14.8323 12.6031 14.8098 12.5198 14.796L9.66657 14.8167C9.37501 14.8167 9.17718 14.8827 9.07302 15.0147L9.03133 15.0771C9.0105 15.1118 9 15.1673 9 15.2437C9 15.3201 9.02083 15.4138 9.06251 15.5248C9.47903 16.5038 9.93198 17.4478 10.4214 18.3572C10.9108 19.2666 11.336 19.9992 11.6969 20.5542C12.0579 21.1097 12.4258 21.6339 12.8007 22.1266C13.1756 22.6196 13.4238 22.9354 13.5452 23.0742C13.6668 23.2133 13.7622 23.3172 13.8317 23.3866L14.092 23.6365C14.2586 23.8031 14.5033 24.0027 14.8261 24.2352C15.149 24.4679 15.5065 24.6969 15.8987 24.9227C16.291 25.1482 16.7474 25.3321 17.2681 25.4744C17.7887 25.6168 18.2955 25.674 18.7884 25.6464H19.9859C20.2288 25.6254 20.4128 25.5491 20.5379 25.4173L20.5793 25.3651C20.6072 25.3236 20.6333 25.2593 20.6573 25.1726C20.6817 25.0859 20.6938 24.9903 20.6938 24.8863C20.6867 24.5878 20.7094 24.3188 20.7613 24.0794C20.8132 23.84 20.8724 23.6595 20.9386 23.5379C21.0047 23.4164 21.0793 23.314 21.1624 23.2309C21.2456 23.1476 21.3049 23.0972 21.3397 23.0798C21.3743 23.0623 21.4019 23.0505 21.4227 23.0434C21.5893 22.9879 21.7854 23.0416 22.0112 23.2049C22.2369 23.368 22.4485 23.5695 22.6465 23.8089C22.8444 24.0485 23.0821 24.3174 23.3597 24.6158C23.6375 24.9144 23.8804 25.1363 24.0886 25.2823L24.2968 25.4073C24.4358 25.4906 24.6163 25.567 24.8385 25.6364C25.0603 25.7058 25.2546 25.7231 25.4215 25.6885L28.0872 25.6469C28.3508 25.6469 28.556 25.6032 28.7015 25.5166C28.8473 25.4298 28.9339 25.3342 28.9619 25.2303C28.9897 25.1262 28.9912 25.0081 28.9672 24.876C28.9425 24.7443 28.9181 24.6522 28.8939 24.6002Z"
							fill="white" />
					</svg>