<svg width="100" height="100" viewBox="0 0 100 100" fill="none" xmlns="http://www.w3.org/2000/svg">
							<path fill-rule="evenodd" clip-rule="evenodd"
								d="M75.3722 66.6513C75.214 66.5521 75.0769 66.4227 74.9687 66.2704C74.8606 66.1182 74.7834 65.9462 74.7418 65.7641C74.7001 65.5821 74.6947 65.3936 74.7259 65.2095C74.7571 65.0254 74.8243 64.8492 74.9236 64.6911C83.4912 51.0498 80.0951 32.8925 66.8535 23.3298C61.9349 19.7791 56.0785 17.7576 50.017 17.5179C43.9554 17.2783 37.9577 18.8312 32.7741 21.9824C32.4524 22.1665 32.0715 22.2176 31.7127 22.125C31.3538 22.0323 31.0454 21.8032 30.853 21.4864C30.6606 21.1696 30.5996 20.7902 30.6828 20.4291C30.7661 20.0679 30.9871 19.7536 31.2988 19.553C42.5138 12.7355 57.2039 12.854 68.5168 21.0236C82.9826 31.4709 86.6915 51.3025 77.3309 66.1996C77.131 66.5191 76.8124 66.7463 76.4451 66.831C76.0778 66.9157 75.6919 66.8511 75.3722 66.6513Z"
								fill="black" />
							<path fill-rule="evenodd" clip-rule="evenodd"
								d="M29.0937 75.6118C24.7157 72.4577 21.1637 68.2934 18.7396 63.4727C18.6557 63.3059 18.6054 63.1243 18.5917 62.9381C18.578 62.7519 18.6011 62.5648 18.6597 62.3875C18.7183 62.2103 18.8113 62.0463 18.9332 61.905C19.0552 61.7636 19.2038 61.6477 19.3706 61.5638C19.5374 61.4799 19.7191 61.4296 19.9052 61.4159C20.0914 61.4022 20.2785 61.4254 20.4557 61.4839C20.633 61.5425 20.797 61.6355 20.9383 61.7575C21.0797 61.8794 21.1956 62.028 21.2795 62.1948C24.5966 68.7729 30.16 73.9455 36.9619 76.7756C43.7638 79.6057 51.3543 79.9062 58.3586 77.6226C58.7121 77.5211 59.0911 77.5606 59.4161 77.7327C59.7411 77.9048 59.9868 78.1962 60.1015 78.5456C60.2162 78.8951 60.191 79.2753 60.0312 79.6066C59.8715 79.9378 59.5896 80.1943 59.2447 80.3221C54.2035 81.9688 48.8443 82.4005 43.6045 81.5819C38.3646 80.7633 33.3925 78.7177 29.0937 75.6118Z"
								fill="black" />
							<path fill-rule="evenodd" clip-rule="evenodd"
								d="M15.8171 55.0172C14.645 49.2547 15.0006 43.2859 16.8485 37.7034C16.9046 37.5229 16.996 37.3553 17.1176 37.2105C17.2392 37.0658 17.3883 36.9467 17.5565 36.8603C17.7246 36.7739 17.9083 36.7219 18.0968 36.7073C18.2853 36.6928 18.4748 36.716 18.6542 36.7755C18.8336 36.8351 18.9993 36.9298 19.1417 37.0542C19.284 37.1786 19.4001 37.3301 19.4832 37.4999C19.5663 37.6697 19.6147 37.8544 19.6255 38.0431C19.6364 38.2318 19.6095 38.4208 19.5464 38.599C17.8533 43.7101 17.5265 49.1752 18.5987 54.4517C18.6372 54.6352 18.639 54.8244 18.604 55.0086C18.5691 55.1928 18.4981 55.3683 18.395 55.5249C18.292 55.6815 18.159 55.8162 18.0037 55.9212C17.8484 56.0263 17.6738 56.0995 17.4901 56.1368C17.3064 56.1741 17.1171 56.1747 16.9331 56.1385C16.7492 56.1023 16.5742 56.0302 16.4182 55.9261C16.2623 55.822 16.1285 55.6881 16.0245 55.5321C15.9205 55.3762 15.8484 55.2012 15.8123 55.0172H15.8171Z"
								fill="black" />
							<path fill-rule="evenodd" clip-rule="evenodd"
								d="M36.5213 70.4432C36.3027 70.1361 36.215 69.7547 36.2775 69.383C36.34 69.0112 36.5476 68.6795 36.8546 68.4608C41.0863 65.4438 46.9276 63.7853 50.7044 61.7634C52.6125 60.7398 53.7656 59.751 54.2331 58.6753C54.6533 57.7055 54.6596 56.306 53.3138 54.0503C53.216 53.8898 53.1509 53.7115 53.1224 53.5256C53.094 53.3398 53.1026 53.1501 53.1479 52.9677C53.1932 52.7852 53.2743 52.6136 53.3864 52.4626C53.4985 52.3117 53.6394 52.1845 53.801 52.0884C53.9626 51.9923 54.1416 51.9292 54.3278 51.9028C54.5139 51.8764 54.7034 51.8871 54.8854 51.9344C55.0673 51.9817 55.2381 52.0647 55.3878 52.1784C55.5375 52.2922 55.6631 52.4345 55.7574 52.5971C57.367 55.3045 57.7572 57.6912 56.841 59.8063C55.9723 61.8092 54.0704 63.185 52.047 64.2686C47.997 66.439 42.4116 67.9917 38.5053 70.7765C38.3532 70.885 38.1811 70.9624 37.9991 71.0044C37.817 71.0464 37.6285 71.0521 37.4442 71.0211C37.26 70.9901 37.0836 70.9232 36.9252 70.824C36.7669 70.7248 36.6296 70.5954 36.5213 70.4432Z"
								fill="black" />
							<path fill-rule="evenodd" clip-rule="evenodd"
								d="M31.1037 64.3681C30.1876 60.8109 31.5571 57.8919 34.2802 55.6504C36.915 53.4817 40.894 51.8389 45.5774 50.5089L45.6801 50.4836C51.5498 49.2816 55.1054 47.6072 57.0847 45.7812C58.9802 44.0437 59.4982 42.0929 59.1602 39.9463C59.1245 39.7591 59.1267 39.5667 59.1668 39.3805C59.2068 39.1942 59.2839 39.0179 59.3934 38.862C59.503 38.7062 59.6428 38.5739 59.8044 38.4731C59.9661 38.3723 60.1463 38.305 60.3345 38.2753C60.5227 38.2455 60.715 38.2539 60.8998 38.2999C61.0847 38.3459 61.2584 38.4286 61.4107 38.543C61.563 38.6575 61.6908 38.8014 61.7863 38.9662C61.8819 39.131 61.9434 39.3133 61.9671 39.5024C62.441 42.5352 61.6402 45.4448 59.0133 47.8742C56.7908 49.9276 53.3347 51.5688 48.438 52.7803L46.3277 53.2542L44.685 53.7439C40.9113 54.9301 37.9844 56.2854 36.0889 57.8508C34.0212 59.5536 33.2709 61.389 33.8569 63.6621C33.9036 63.8428 33.9142 64.031 33.8881 64.2159C33.8621 64.4008 33.7999 64.5787 33.705 64.7396C33.6102 64.9004 33.4846 65.041 33.3355 65.1533C33.1863 65.2656 33.0165 65.3474 32.8357 65.3941C32.6549 65.4407 32.4667 65.4513 32.2819 65.4253C32.097 65.3992 31.9191 65.337 31.7582 65.2422C31.5974 65.1474 31.4568 65.0218 31.3445 64.8726C31.2322 64.7235 31.1504 64.5536 31.1037 64.3729V64.3681Z"
								fill="black" />
							<path fill-rule="evenodd" clip-rule="evenodd"
								d="M56.5264 32.9059C55.525 31.4634 54.4356 30.0839 53.2645 28.7753C53.1409 28.6354 53.0461 28.4725 52.9854 28.2959C52.9247 28.1194 52.8994 27.9326 52.9109 27.7462C52.9224 27.5598 52.9705 27.3776 53.0525 27.2098C53.1344 27.0421 53.2486 26.8921 53.3886 26.7684C53.5285 26.6448 53.6914 26.55 53.868 26.4893C54.0445 26.4286 54.2313 26.4033 54.4177 26.4148C54.604 26.4263 54.7863 26.4744 54.954 26.5564C55.1218 26.6383 55.2718 26.7525 55.3954 26.8924C56.6442 28.289 57.8048 29.7619 58.8705 31.3026C58.9807 31.4566 59.059 31.631 59.1009 31.8156C59.1428 32.0003 59.1474 32.1914 59.1144 32.3778C59.0814 32.5643 59.0116 32.7423 58.9089 32.9013C58.8062 33.0604 58.6727 33.1973 58.5164 33.3041C58.36 33.4109 58.1839 33.4854 57.9984 33.5232C57.8129 33.561 57.6217 33.5613 57.436 33.5243C57.2504 33.4872 57.074 33.4134 56.9172 33.3072C56.7605 33.201 56.6265 33.0646 56.5232 32.9059H56.5264Z"
								fill="black" />
							<path fill-rule="evenodd" clip-rule="evenodd"
								d="M34.7022 51.6824C33.8019 48.2484 34.7354 45.2156 37.0243 42.8052C39.2467 40.4643 42.6981 38.7457 46.854 37.6021C52.1377 36.1473 57.5951 35.7682 64.2515 32.2125C64.4162 32.1246 64.5966 32.0699 64.7824 32.0517C64.9682 32.0335 65.1558 32.052 65.3345 32.1063C65.5131 32.1606 65.6793 32.2495 65.8236 32.368C65.9679 32.4865 66.0874 32.6323 66.1754 32.797C66.2633 32.9617 66.318 33.1421 66.3362 33.3279C66.3545 33.5137 66.3359 33.7013 66.2816 33.88C66.2273 34.0586 66.1384 34.2249 66.0199 34.3691C65.9014 34.5134 65.7556 34.633 65.5909 34.7209C58.5713 38.4724 52.3335 39.0426 47.609 40.3426C43.7011 41.4183 40.8089 42.9489 39.0793 44.7655C37.4255 46.503 36.811 48.5438 37.446 50.9653C37.497 51.1471 37.5113 51.3371 37.488 51.5245C37.4648 51.7118 37.4045 51.8926 37.3106 52.0564C37.2167 52.2202 37.0911 52.3636 36.9412 52.4784C36.7913 52.5931 36.62 52.6768 36.4374 52.7246C36.2548 52.7725 36.0645 52.7834 35.8776 52.7569C35.6907 52.7304 35.511 52.667 35.3488 52.5702C35.1867 52.4735 35.0455 52.3455 34.9334 52.1936C34.8213 52.0417 34.7406 51.869 34.696 51.6856L34.7022 51.6824Z"
								fill="black" />
							<path fill-rule="evenodd" clip-rule="evenodd"
								d="M40.9541 37.2352C39.8231 34.9622 39.9953 32.7729 41.0725 30.9027C42.1056 29.1146 43.9047 27.7151 45.8982 26.6979C46.2299 26.5537 46.6042 26.5414 46.9447 26.6635C47.2852 26.7857 47.5663 27.033 47.7308 27.3552C47.8953 27.6774 47.9309 28.0501 47.8301 28.3976C47.7294 28.745 47.5 29.041 47.1887 29.2252C45.4653 30.1034 44.1875 31.1823 43.5367 32.3164C42.9286 33.3716 42.799 34.5531 43.5004 35.9637C43.5881 36.1314 43.6414 36.3148 43.6573 36.5034C43.6731 36.692 43.6511 36.8818 43.5927 37.0618C43.5342 37.2417 43.4404 37.4082 43.3167 37.5515C43.1931 37.6947 43.0421 37.8118 42.8726 37.8959C42.7031 37.98 42.5185 38.0295 42.3296 38.0413C42.1408 38.0532 41.9515 38.0272 41.7728 37.9649C41.5941 37.9027 41.4296 37.8054 41.289 37.6787C41.1485 37.552 41.0346 37.3986 40.9541 37.2273V37.2352Z"
								fill="black" />
							<path fill-rule="evenodd" clip-rule="evenodd"
								d="M42.3826 62.6955C41.1695 61.2471 40.1981 60.5126 39.255 59.3611C39.1368 59.2166 39.0482 59.0502 38.9942 58.8715C38.9403 58.6928 38.9221 58.5052 38.9406 58.3194C38.9592 58.1336 39.0141 57.9533 39.1024 57.7888C39.1906 57.6243 39.3104 57.4788 39.4549 57.3605C39.5994 57.2423 39.7657 57.1537 39.9444 57.0997C40.1231 57.0458 40.3108 57.0275 40.4965 57.0461C40.6823 57.0647 40.8626 57.1196 41.0271 57.2078C41.1916 57.2961 41.3372 57.4159 41.4554 57.5603C42.2657 58.5507 43.2561 59.3105 44.5624 60.8695C44.6823 61.0127 44.7729 61.178 44.8288 61.3561C44.8848 61.5343 44.9052 61.7217 44.8888 61.9076C44.8724 62.0936 44.8195 62.2746 44.7331 62.4401C44.6468 62.6056 44.5286 62.7526 44.3855 62.8725C44.2424 62.9924 44.0771 63.0829 43.899 63.1389C43.7208 63.1949 43.5334 63.2152 43.3475 63.1988C43.1615 63.1824 42.9805 63.1295 42.815 63.0431C42.6494 62.9568 42.5025 62.8387 42.3826 62.6955Z"
								fill="black" />
							<path fill-rule="evenodd" clip-rule="evenodd"
								d="M49.6156 71.9389C49.4703 71.6641 49.3503 71.4319 49.2271 71.1997C49.1039 70.9675 48.9933 70.7668 48.8701 70.5678C48.5817 70.0913 48.2536 69.6401 47.8892 69.2189C47.7659 69.0769 47.672 68.9119 47.613 68.7334C47.5539 68.5549 47.5309 68.3665 47.5451 68.179C47.5594 67.9916 47.6107 67.8088 47.696 67.6413C47.7814 67.4738 47.8992 67.3249 48.0425 67.2032C48.1858 67.0815 48.3518 66.9895 48.531 66.9324C48.7101 66.8753 48.8988 66.8543 49.086 66.8706C49.2733 66.8869 49.4555 66.9402 49.6221 67.0274C49.7886 67.1146 49.9362 67.234 50.0564 67.3787C50.5209 67.9167 50.9389 68.4932 51.3058 69.102C51.4637 69.3658 51.6043 69.6201 51.737 69.8681C51.8697 70.1161 51.9961 70.3625 52.1303 70.6199C52.2244 70.7856 52.2842 70.9685 52.3062 71.1577C52.3282 71.3469 52.3119 71.5387 52.2584 71.7215C52.2048 71.9043 52.1151 72.0745 51.9945 72.222C51.8739 72.3694 51.7248 72.4911 51.5563 72.5799C51.3877 72.6686 51.203 72.7226 51.0132 72.7385C50.8233 72.7545 50.6322 72.7321 50.4512 72.6728C50.2702 72.6134 50.1029 72.5183 49.9594 72.393C49.8159 72.2678 49.699 72.1149 49.6156 71.9436V71.9389Z"
								fill="black" />
							<path fill-rule="evenodd" clip-rule="evenodd"
								d="M49.032 47.068C48.2959 46.1297 47.3371 45.3715 46.4762 44.3827C46.2341 44.0985 46.1135 43.7306 46.1404 43.3583C46.1673 42.986 46.3395 42.6392 46.62 42.3928C46.9004 42.1464 47.2664 42.0201 47.6391 42.0414C48.0118 42.0626 48.3612 42.2295 48.6118 42.5061C49.3653 43.3638 50.3873 44.1821 51.2687 45.3051C51.4952 45.6023 51.5957 45.9766 51.5484 46.3472C51.501 46.7179 51.3097 47.0549 51.0157 47.2856C50.7218 47.5162 50.3488 47.6218 49.9776 47.5796C49.6064 47.5374 49.2667 47.3508 49.032 47.0601V47.068Z"
								fill="black" />
							<path fill-rule="evenodd" clip-rule="evenodd"
								d="M58.0157 84.2556C57.1829 81.2487 57.2604 78.0624 58.2385 75.0996C59.2166 72.1368 61.0513 69.5305 63.5106 67.6104C65.9699 65.6904 68.9434 64.5427 72.0549 64.3125C75.1665 64.0824 78.2765 64.7801 80.9915 66.3174C83.7066 67.8548 85.9048 70.1627 87.3081 72.9494C88.7115 75.736 89.257 78.8763 88.8756 81.973C88.4942 85.0696 87.2032 87.9837 85.1657 90.3466C83.1281 92.7095 80.4357 94.4152 77.4288 95.2479C73.3968 96.3627 69.0872 95.8311 65.447 93.7699C61.8069 91.7087 59.1339 88.2866 58.0157 84.2556ZM76.6706 92.5089C79.1355 91.8263 81.3427 90.4281 83.013 88.491C84.6832 86.554 85.7416 84.1652 86.0543 81.6267C86.3669 79.0881 85.9197 76.5139 84.7694 74.2295C83.619 71.9451 81.817 70.0531 79.5913 68.7928C77.3657 67.5325 74.8163 66.9605 72.2655 67.1491C69.7148 67.3378 67.2772 68.2785 65.2612 69.8525C63.2451 71.4264 61.741 73.5629 60.9391 75.9917C60.1373 78.4204 60.0737 81.0324 60.7563 83.4974C61.6732 86.8018 63.8643 89.6071 66.8484 91.2968C69.8324 92.9865 73.3653 93.4225 76.6706 92.5089Z"
								fill="black" />
							<path fill-rule="evenodd" clip-rule="evenodd"
								d="M78.9019 35.8531C78.8834 35.4767 79.0151 35.1084 79.2681 34.8291C79.521 34.5498 79.8745 34.3824 80.2508 34.3636C82.6407 34.2458 84.9483 33.453 86.9059 32.0771C88.8635 30.7012 90.3911 28.7986 91.3114 26.5899C92.2317 24.3811 92.507 21.9568 92.1055 19.5979C91.7041 17.2391 90.6421 15.0424 89.0429 13.2625C87.4438 11.4826 85.3728 10.1924 83.0702 9.54167C80.7676 8.89089 78.3277 8.90615 76.0335 9.58565C73.7392 10.2651 71.6845 11.581 70.1077 13.3808C68.5309 15.1805 67.4965 17.3903 67.1245 19.754C67.1002 19.9426 67.0383 20.1245 66.9424 20.2887C66.8466 20.453 66.7187 20.5963 66.5665 20.7103C66.4142 20.8242 66.2407 20.9065 66.0561 20.9522C65.8715 20.9979 65.6796 21.006 65.4917 20.9762C65.3039 20.9464 65.124 20.8793 64.9626 20.7787C64.8012 20.6781 64.6617 20.5461 64.5522 20.3906C64.4427 20.2351 64.3655 20.0592 64.3252 19.8734C64.2849 19.6875 64.2824 19.4955 64.3176 19.3086C64.7747 16.4169 66.0419 13.7139 67.9723 11.5129C69.9027 9.31189 72.4172 7.70296 75.2246 6.87256C78.032 6.04215 81.0172 6.02428 83.8343 6.821C86.6514 7.61772 89.1851 9.19641 91.1417 11.3741C93.0983 13.5519 94.3977 16.2395 94.8894 19.1255C95.3811 22.0115 95.045 24.9778 93.9199 27.6806C92.7948 30.3833 90.9268 32.712 88.5324 34.3966C86.1381 36.0812 83.3154 37.0528 80.3914 37.1989C80.0155 37.2174 79.6477 37.0861 79.3685 36.8338C79.0893 36.5816 78.9215 36.2289 78.9019 35.8531Z"
								fill="black" />
							<path fill-rule="evenodd" clip-rule="evenodd"
								d="M81.4377 81.9523C81.0613 81.9307 80.7089 81.7605 80.458 81.4791C80.2071 81.1977 80.0783 80.8281 80.0998 80.4517C80.2799 77.272 79.0747 75.2391 77.1192 73.6832C76.968 73.5686 76.8414 73.4249 76.7466 73.2605C76.6519 73.0962 76.591 72.9145 76.5675 72.7263C76.5441 72.5381 76.5586 72.3471 76.6101 72.1645C76.6616 71.9819 76.7491 71.8115 76.8675 71.6633C76.9859 71.5151 77.1327 71.3921 77.2994 71.3015C77.466 71.2109 77.6491 71.1546 77.8379 71.1359C78.0266 71.1171 78.2173 71.1364 78.3985 71.1924C78.5797 71.2485 78.7478 71.3403 78.893 71.4623C81.4946 73.5395 83.1769 76.419 82.9383 80.6128C82.9279 80.7993 82.8807 80.982 82.7996 81.1502C82.7185 81.3185 82.605 81.4692 82.4657 81.5936C82.3263 81.718 82.1638 81.8137 81.9874 81.8752C81.811 81.9368 81.6243 81.963 81.4377 81.9523Z"
								fill="black" />
							<path fill-rule="evenodd" clip-rule="evenodd"
								d="M86.0873 21.9761C85.4223 18.2767 83.4731 16.2691 80.7973 15.0133C80.4632 14.8487 80.207 14.5596 80.0839 14.2081C79.9607 13.8566 79.9804 13.4708 80.1387 13.1337C80.2971 12.7966 80.5813 12.5351 80.9305 12.4054C81.2796 12.2757 81.6657 12.2882 82.0057 12.4402C85.4286 14.0466 88.0396 16.7745 88.8847 21.4722C88.9227 21.6579 88.9232 21.8492 88.8861 22.0351C88.8491 22.2209 88.7752 22.3975 88.6689 22.5544C88.5627 22.7113 88.4261 22.8454 88.2672 22.9487C88.1084 23.0521 87.9304 23.1226 87.7439 23.1562C87.5574 23.1898 87.3661 23.1858 87.1812 23.1443C86.9963 23.1029 86.8215 23.0249 86.6671 22.915C86.5128 22.805 86.3819 22.6653 86.2824 22.5041C86.1828 22.3428 86.1165 22.1633 86.0873 21.9761Z"
								fill="black" />
							<path fill-rule="evenodd" clip-rule="evenodd"
								d="M9.38915 32.4606C8.12261 30.1169 7.57951 27.4503 7.82851 24.798C8.0775 22.1457 9.10745 19.6268 10.7881 17.5598C12.4687 15.4929 14.7245 13.9707 17.2702 13.1858C19.8159 12.4009 22.5372 12.3885 25.09 13.1503C27.6427 13.912 29.9123 15.4136 31.6116 17.4652C33.3109 19.5169 34.3637 22.0263 34.6367 24.6763C34.9098 27.3262 34.391 29.9976 33.1458 32.3527C31.9006 34.7077 29.985 36.6406 27.6412 37.907C24.4982 39.6032 20.8104 39.9824 17.388 38.9612C13.9656 37.9399 11.0886 35.6018 9.38915 32.4606ZM26.2907 35.4065C28.1394 34.4074 29.6505 32.8825 30.6326 31.0246C31.6148 29.1667 32.024 27.0594 31.8086 24.9689C31.5931 22.8785 30.7626 20.8989 29.4221 19.2805C28.0816 17.662 26.2913 16.4774 24.2776 15.8764C22.2639 15.2754 20.1172 15.285 18.1089 15.904C16.1006 16.523 14.321 17.7236 12.995 19.354C11.6691 20.9844 10.8563 22.9713 10.6596 25.0636C10.4628 27.1558 10.8909 29.2595 11.8896 31.1085C13.2299 33.5876 15.4994 35.4333 18.1997 36.2401C20.9 37.0469 23.8101 36.7488 26.2907 35.4112V35.4065Z"
								fill="black" />
							<path fill-rule="evenodd" clip-rule="evenodd"
								d="M80.4512 48.5375C80.2875 48.4468 80.1433 48.3248 80.0268 48.1784C79.9103 48.0321 79.8238 47.8642 79.7721 47.6843C79.7205 47.5045 79.7048 47.3163 79.7259 47.1304C79.747 46.9445 79.8045 46.7646 79.8952 46.6009C79.9858 46.4372 80.1078 46.293 80.2542 46.1765C80.4006 46.06 80.5685 45.9734 80.7483 45.9218C80.9281 45.8702 81.1164 45.8545 81.3023 45.8756C81.4882 45.8967 81.6681 45.9542 81.8318 46.0449C83.3242 46.8716 85.0769 47.094 86.7285 46.6662C88.3801 46.2385 89.8044 45.1932 90.7079 43.7459C91.6113 42.2987 91.9249 40.5599 91.5839 38.8883C91.2428 37.2167 90.2732 35.7397 88.8751 34.762C88.5664 34.5454 88.3563 34.215 88.2911 33.8435C88.2259 33.4721 88.311 33.0899 88.5276 32.7812C88.7442 32.4724 89.0745 32.2623 89.446 32.1972C89.8175 32.132 90.1996 32.2171 90.5084 32.4337C92.5044 33.8289 93.8885 35.9371 94.3752 38.3233C94.8618 40.7094 94.4138 43.1913 93.1236 45.2568C91.8334 47.3222 89.7995 48.8134 87.4417 49.4228C85.0839 50.0321 82.5821 49.7129 80.4528 48.5312L80.4512 48.5375Z"
								fill="black" />
							<path fill-rule="evenodd" clip-rule="evenodd"
								d="M5.66688 86.8822C5.11683 84.895 5.16836 82.7893 5.815 80.8315C6.46164 78.8736 7.67434 77.1515 9.29972 75.8828C10.9251 74.6142 12.8902 73.856 14.9464 73.7041C17.0027 73.5522 19.0579 74.0135 20.852 75.0297C22.6461 76.0458 24.0986 77.5711 25.0258 79.4127C25.9531 81.2543 26.3134 83.3296 26.0613 85.376C25.8091 87.4224 24.9558 89.348 23.6092 90.9095C22.2627 92.4709 20.4833 93.598 18.4962 94.1482C17.1767 94.5136 15.7982 94.6154 14.4394 94.448C13.0805 94.2806 11.7679 93.8471 10.5766 93.1724C9.38528 92.4977 8.33854 91.5949 7.49612 90.5156C6.65371 89.4363 6.03212 88.2017 5.66688 86.8822ZM17.738 91.4077C19.183 91.0073 20.4768 90.1874 21.4559 89.0518C22.435 87.9161 23.0554 86.5157 23.2386 85.0275C23.4218 83.5393 23.1597 82.0301 22.4853 80.6909C21.8109 79.3517 20.7546 78.2425 19.4499 77.5036C18.1452 76.7647 16.6506 76.4292 15.1553 76.5396C13.6599 76.65 12.2308 77.2012 11.0487 78.1237C9.86668 79.0462 8.98467 80.2985 8.51425 81.7222C8.04382 83.146 8.00609 84.6772 8.40585 86.1224C8.67137 87.0823 9.12344 87.9805 9.73619 88.7656C10.3489 89.5508 11.1104 90.2076 11.977 90.6984C12.8436 91.1892 13.7985 91.5044 14.7869 91.6261C15.7754 91.7478 16.7782 91.6736 17.738 91.4077Z"
								fill="black" />
							<path fill-rule="evenodd" clip-rule="evenodd"
								d="M25.7652 24.7429C25.1886 22.563 23.9502 21.4858 22.2901 20.865C21.937 20.7326 21.6508 20.4654 21.4947 20.122C21.3386 19.7787 21.3253 19.3874 21.4577 19.0342C21.59 18.6811 21.8573 18.395 22.2006 18.2389C22.544 18.0828 22.9352 18.0694 23.2884 18.2018C25.7178 19.1116 27.6749 20.8539 28.5105 24.0162C28.5615 24.1978 28.576 24.3876 28.5529 24.5748C28.5299 24.7619 28.4699 24.9427 28.3763 25.1064C28.2828 25.2701 28.1576 25.4136 28.0081 25.5285C27.8585 25.6434 27.6876 25.7274 27.5053 25.7756C27.323 25.8238 27.1329 25.8352 26.9462 25.8092C26.7594 25.7832 26.5797 25.7204 26.4174 25.6243C26.2552 25.5282 26.1137 25.4007 26.0012 25.2494C25.8886 25.0981 25.8073 24.9259 25.762 24.7429H25.7652Z"
								fill="black" />
							<path fill-rule="evenodd" clip-rule="evenodd"
								d="M17.4539 83.2197C17.2106 82.3035 16.732 81.8991 16.0465 81.6401C15.8716 81.5746 15.7114 81.4754 15.5749 81.348C15.4384 81.2206 15.3283 81.0676 15.2509 80.8977C15.1735 80.7278 15.1304 80.5443 15.1239 80.3577C15.1174 80.1711 15.1478 79.985 15.2132 79.8102C15.2787 79.6353 15.378 79.475 15.5053 79.3385C15.6327 79.202 15.7858 79.0919 15.9557 79.0145C16.1256 78.9372 16.3091 78.894 16.4957 78.8876C16.6823 78.8811 16.8684 78.9115 17.0432 78.9769C18.5028 79.5235 19.7017 80.5976 20.2024 82.4899C20.2502 82.6704 20.262 82.8585 20.2371 83.0435C20.2122 83.2286 20.1511 83.4069 20.0573 83.5683C19.8679 83.8943 19.5567 84.1317 19.1922 84.2282C18.8278 84.3248 18.4399 84.2726 18.1139 84.0832C17.7879 83.8938 17.5505 83.5826 17.4539 83.2181V83.2197Z"
								fill="black" />
						</svg>