<svg width="100" height="100" viewBox="0 0 100 100" fill="none" xmlns="http://www.w3.org/2000/svg">
							<path fill-rule="evenodd" clip-rule="evenodd"
								d="M29.8311 74.0512C25.7125 71.0857 22.373 67.1673 20.0977 62.6308C20.0141 62.4638 19.9642 62.282 19.9509 62.0958C19.9376 61.9095 19.9611 61.7224 20.02 61.5453C20.079 61.3681 20.1723 61.2042 20.2946 61.0631C20.4168 60.922 20.5657 60.8063 20.7327 60.7227C20.8997 60.6391 21.0815 60.5892 21.2678 60.5759C21.454 60.5626 21.6411 60.586 21.8183 60.645C21.9955 60.704 22.1593 60.7973 22.3004 60.9195C22.4416 61.0418 22.5572 61.1907 22.6408 61.3577C24.3749 64.8062 26.7856 67.8702 29.7293 70.367C32.673 72.8637 36.0893 74.7421 39.7745 75.8902C43.4598 77.0382 47.3385 77.4324 51.1794 77.0491C55.0202 76.6658 58.7446 75.513 62.1303 73.6594C62.2942 73.5678 62.4746 73.5096 62.6612 73.4881C62.8477 73.4666 63.0367 73.4823 63.2171 73.5342C63.3975 73.5861 63.5659 73.6733 63.7125 73.7907C63.8591 73.908 63.9809 74.0533 64.0711 74.218C64.1612 74.3827 64.2178 74.5636 64.2376 74.7504C64.2574 74.9371 64.24 75.1259 64.1865 75.3058C64.1329 75.4858 64.0443 75.6534 63.9256 75.7989C63.8069 75.9444 63.6606 76.065 63.4951 76.1536C58.2584 79.0196 52.317 80.3432 46.359 79.9711C40.401 79.599 34.6704 77.5464 29.8311 74.0512Z"
								fill="black" />
							<path fill-rule="evenodd" clip-rule="evenodd"
								d="M17.052 52.8249C16.6976 50.2925 16.651 47.7265 16.913 45.1829C16.9276 44.9938 16.98 44.8095 17.0669 44.6409C17.1539 44.4723 17.2737 44.3229 17.4194 44.2013C17.565 44.0798 17.7335 43.9886 17.9149 43.9331C18.0963 43.8777 18.287 43.8592 18.4757 43.8785C18.6644 43.8979 18.8473 43.9549 19.0137 44.0461C19.18 44.1373 19.3264 44.2608 19.4443 44.4095C19.5621 44.5581 19.649 44.7288 19.6999 44.9116C19.7508 45.0943 19.7645 45.2854 19.7404 45.4736C19.5037 47.787 19.5466 50.1205 19.8683 52.4237C19.8943 52.6086 19.8835 52.7968 19.8367 52.9776C19.7899 53.1584 19.7079 53.3282 19.5955 53.4773C19.4831 53.6264 19.3424 53.7519 19.1815 53.8466C19.0205 53.9413 18.8425 54.0034 18.6576 54.0294C18.4727 54.0553 18.2845 54.0445 18.1037 53.9977C17.9229 53.9509 17.7531 53.8689 17.604 53.7565C17.4549 53.6441 17.3294 53.5034 17.2347 53.3424C17.14 53.1815 17.0779 53.0035 17.052 52.8186V52.8249Z"
								fill="black" />
							<path fill-rule="evenodd" clip-rule="evenodd"
								d="M76.906 45.6889C76.431 40.7727 74.6966 36.0619 71.8701 32.0114C69.0437 27.9609 65.2208 24.7075 60.7704 22.5653C56.32 20.4231 51.3925 19.4644 46.4636 19.7817C41.5347 20.0991 36.7708 21.6819 32.6319 24.3772C32.3159 24.5768 31.9339 24.6439 31.5688 24.564C31.2036 24.484 30.8846 24.2635 30.6809 23.9501C30.4772 23.6367 30.4051 23.2557 30.4802 22.8895C30.5553 22.5233 30.7717 22.2015 31.0824 21.9936C41.7003 15.0861 55.9165 14.9992 66.8014 22.8592C70.438 25.4817 73.473 28.8501 75.7037 32.7394C77.9344 36.6287 79.3093 40.9493 79.7366 45.4125C79.773 45.7878 79.6589 46.1623 79.4192 46.4535C79.1796 46.7447 78.8341 46.9287 78.4587 46.9652C78.0833 47.0016 77.7089 46.8875 77.4177 46.6478C77.1265 46.4082 76.9424 46.0627 76.906 45.6873V45.6889Z"
								fill="black" />
							<path fill-rule="evenodd" clip-rule="evenodd"
								d="M67.5063 83.1337C64.7609 81.1517 62.6449 78.4205 61.4115 75.2671C60.1781 72.1137 59.8796 68.6716 60.5517 65.353C61.2239 62.0343 62.8382 58.9796 65.2013 56.5546C67.5645 54.1297 70.5765 52.4371 73.8767 51.6795C74.0611 51.6311 74.2533 51.6202 74.4419 51.6475C74.6306 51.6748 74.8118 51.7398 74.9748 51.8386C75.1378 51.9374 75.2793 52.0679 75.3909 52.2225C75.5024 52.3771 75.5817 52.5525 75.6241 52.7383C75.6665 52.9242 75.6711 53.1167 75.6376 53.3043C75.6041 53.492 75.5332 53.6709 75.4291 53.8306C75.325 53.9903 75.1899 54.1275 75.0318 54.2339C74.8736 54.3403 74.6957 54.4138 74.5086 54.4501C71.3055 55.1877 68.4398 56.9724 66.3651 59.5217C64.2903 62.0711 63.125 65.2395 63.0535 68.5257C62.982 71.8118 64.0083 75.028 65.9702 77.6652C67.9321 80.3024 70.7174 82.21 73.8853 83.0863C77.0533 83.9625 80.423 83.7573 83.4612 82.5031C86.4994 81.2488 89.0326 79.0172 90.6599 76.1614C92.2872 73.3056 92.9157 69.9887 92.4459 66.7355C91.9761 63.4823 90.4349 60.4787 88.0661 58.2C87.7938 57.9388 87.6364 57.5801 87.6285 57.2029C87.6207 56.8256 87.763 56.4607 88.0242 56.1884C88.2854 55.9161 88.6441 55.7587 89.0213 55.7509C89.3986 55.743 89.7635 55.8853 90.0358 56.1465C93.2483 59.2383 95.1695 63.4329 95.412 67.8849C95.6545 72.337 94.2004 76.7154 91.3427 80.1379C88.485 83.5603 84.4362 85.7722 80.0123 86.3278C75.5885 86.8835 71.1184 85.7415 67.5031 83.1321L67.5063 83.1337Z"
								fill="black" />
							<path fill-rule="evenodd" clip-rule="evenodd"
								d="M12.1335 43.9764C9.699 42.218 7.84056 39.7771 6.7932 36.9625C5.74585 34.148 5.55662 31.086 6.24945 28.1639C6.94228 25.2417 8.48605 22.5906 10.6855 20.5459C12.885 18.5011 15.6415 17.1544 18.6063 16.6762C21.5711 16.198 24.6112 16.6096 27.3421 17.8591C30.0729 19.1086 32.372 21.1398 33.9484 23.6959C35.5249 26.252 36.308 29.2182 36.1988 32.2194C36.0895 35.2205 35.0928 38.1219 33.3346 40.5566C30.9757 43.8203 27.4175 46.0138 23.442 46.6551C19.4664 47.2963 15.399 46.3328 12.1335 43.9764ZM31.03 38.8933C32.4596 36.9144 33.2702 34.556 33.3594 32.1164C33.4485 29.6767 32.8123 27.2654 31.531 25.1875C30.2497 23.1095 28.381 21.4581 26.1612 20.4422C23.9413 19.4263 21.4701 19.0915 19.06 19.4801C16.6498 19.8687 14.4091 20.9633 12.6211 22.6254C10.8331 24.2876 9.57809 26.4426 9.01489 28.818C8.45169 31.1934 8.60555 33.6825 9.45701 35.9704C10.3085 38.2584 11.8193 40.2425 13.7984 41.6717C16.4525 43.5865 19.7582 44.3693 22.9892 43.8484C26.2202 43.3274 29.1122 41.5452 31.03 38.8933Z"
								fill="black" />
							<path fill-rule="evenodd" clip-rule="evenodd"
								d="M64.8804 92.3546C62.8838 90.9115 61.542 88.7346 61.1498 86.3025C60.7576 83.8704 61.3472 81.3821 62.789 79.3846C62.9848 79.1098 63.1957 78.8461 63.4208 78.5948C63.6745 78.3196 64.0265 78.1556 64.4004 78.1382C64.7742 78.1209 65.1399 78.2517 65.4179 78.5023C65.6959 78.7529 65.8639 79.103 65.8854 79.4767C65.9069 79.8503 65.7802 80.2174 65.5327 80.4982C65.3756 80.6729 65.228 80.8558 65.0905 81.0463C64.5077 81.8536 64.1198 82.7849 63.9573 83.7672C63.7948 84.7496 63.862 85.7562 64.1537 86.7082C64.4455 87.6601 64.9538 88.5316 65.6387 89.2542C66.3237 89.9768 67.1667 90.5309 68.1018 90.8731C69.0368 91.2153 70.0384 91.3362 71.028 91.2264C72.0176 91.1166 72.9683 90.7791 73.8056 90.2402C74.6428 89.7014 75.3439 88.976 75.8538 88.1208C76.3638 87.2656 76.6686 86.304 76.7446 85.3112C76.7727 84.9342 76.9494 84.5837 77.2358 84.337C77.5223 84.0902 77.895 83.9673 78.272 83.9954C78.6491 84.0235 78.9995 84.2002 79.2463 84.4866C79.493 84.7731 79.6159 85.1458 79.5878 85.5229C79.4639 87.17 78.903 88.7543 77.9629 90.1125C77.0228 91.4707 75.7377 92.5536 74.2397 93.2498C72.7418 93.946 71.0854 94.2302 69.4411 94.0731C67.7968 93.916 66.2241 93.3233 64.8851 92.3561L64.8804 92.3546Z"
								fill="black" />
							<path fill-rule="evenodd" clip-rule="evenodd"
								d="M16.1158 91.2204C14.6264 90.1447 13.4895 88.6514 12.8488 86.9294C12.2081 85.2075 12.0924 83.3342 12.5163 81.5465C12.9402 79.7588 13.8847 78.1369 15.2304 76.886C16.5761 75.6351 18.2625 74.8113 20.0763 74.5189C21.8902 74.2264 23.75 74.4783 25.4207 75.2429C27.0913 76.0074 28.4978 77.2502 29.4621 78.814C30.4265 80.3779 30.9055 82.1926 30.8385 84.0286C30.7715 85.8647 30.1615 87.6397 29.0857 89.1291C27.6426 91.1256 25.4658 92.4675 23.0337 92.8597C20.6016 93.2518 18.1134 92.6622 16.1158 91.2204ZM26.7811 87.4642C27.5272 86.4305 27.95 85.1989 27.9961 83.925C28.0423 82.6511 27.7097 81.3921 27.0404 80.3072C26.3711 79.2223 25.3952 78.3602 24.2361 77.8298C23.0769 77.2994 21.7865 77.1247 20.528 77.3276C19.2695 77.5305 18.0994 78.102 17.1657 78.9698C16.2319 79.8376 15.5765 80.9627 15.2821 82.203C14.9877 83.4433 15.0676 84.743 15.5118 85.9379C15.956 87.1327 16.7445 88.169 17.7775 88.9158C19.1647 89.9169 20.8926 90.3259 22.5814 90.0531C24.2701 89.7803 25.7813 88.8479 26.7827 87.461L26.7811 87.4642Z"
								fill="black" />
							<path fill-rule="evenodd" clip-rule="evenodd"
								d="M40.8812 72.7778C34.6023 69.6281 27.7391 64.8025 27.5574 58.7195C27.5482 58.4415 27.6207 58.1669 27.7659 57.9297L30.4623 53.5417C30.5572 53.377 30.6841 53.2331 30.8357 53.1183C30.9872 53.0036 31.1601 52.9204 31.3443 52.8737C31.5286 52.827 31.7203 52.8177 31.9081 52.8463C32.096 52.875 32.2762 52.941 32.4382 53.0405C32.6001 53.14 32.7404 53.2709 32.8508 53.4256C32.9613 53.5803 33.0396 53.7555 33.0811 53.9409C33.1227 54.1264 33.1266 54.3183 33.0927 54.5053C33.0588 54.6923 32.9878 54.8706 32.8838 55.0296L30.4386 59.0117L30.4796 59.413C31.1115 63.0602 35.3874 66.6459 40.9459 69.6123L41.0328 69.6565L43.1321 66.4516C43.2343 66.2954 43.3664 66.1609 43.5206 66.0557C43.6749 65.9505 43.8483 65.8767 44.0311 65.8386C44.2139 65.8005 44.4023 65.7987 44.5858 65.8334C44.7692 65.8681 44.944 65.9386 45.1002 66.0409C45.2564 66.1431 45.3909 66.2752 45.4961 66.4294C45.6013 66.5837 45.6751 66.7571 45.7132 66.9399C45.7513 67.1227 45.7531 67.3111 45.7184 67.4946C45.6837 67.678 45.6132 67.8528 45.5109 68.009L42.7087 72.2881C42.5173 72.5798 42.2253 72.7908 41.8883 72.8811C41.5513 72.9714 41.1928 72.9346 40.8812 72.7778Z"
								fill="black" />
							<path fill-rule="evenodd" clip-rule="evenodd"
								d="M43.9923 68.0516C37.7135 64.902 30.8502 60.0763 30.6686 53.9934C30.6575 53.6163 30.7966 53.2503 31.0554 52.9759C31.3141 52.7014 31.6713 52.541 32.0483 52.5299C32.4254 52.5188 32.7914 52.6579 33.0658 52.9167C33.3403 53.1754 33.5007 53.5326 33.5118 53.9097C33.6366 58.0845 38.7244 62.2309 45.2686 65.5164C45.6057 65.6855 45.8617 65.9815 45.9805 66.3393C46.0993 66.6971 46.0711 67.0875 45.902 67.4245C45.733 67.7616 45.437 68.0176 45.0792 68.1364C44.7213 68.2552 44.3309 68.227 43.9939 68.058L43.9923 68.0516Z"
								fill="black" />
							<path fill-rule="evenodd" clip-rule="evenodd"
								d="M41.9458 62.8646C38.9161 61.443 36.0808 60.1256 33.7162 59.5854C33.3486 59.5016 33.0293 59.2752 32.8286 58.956C32.6279 58.6368 32.5622 58.251 32.646 57.8834C32.7298 57.5158 32.9562 57.1965 33.2754 56.9958C33.5945 56.7951 33.9804 56.7295 34.348 56.8132C37.0759 57.4356 40.2114 58.9062 43.1573 60.2883C46.8914 62.0448 51.7297 62.7382 53.1955 60.7511L54.1433 59.3579L53.5604 59.3832C50.6903 59.3832 47.588 58.3628 45.6357 57.4435C42.6897 56.0582 39.9255 54.7756 37.594 54.2085C36.4378 53.9273 35.4963 53.8531 34.7603 53.9716C34.1278 54.0481 33.5507 54.3704 33.1538 54.8688C33.0388 55.0183 32.8951 55.1435 32.7312 55.2369C32.5673 55.3304 32.3864 55.3902 32.1991 55.4131C32.0118 55.4359 31.8219 55.4212 31.6403 55.3699C31.4587 55.3186 31.2892 55.2316 31.1416 55.1141C30.994 54.9966 30.8713 54.8508 30.7805 54.6854C30.6898 54.5199 30.633 54.3381 30.6133 54.1505C30.5935 53.9628 30.6114 53.7731 30.6657 53.5924C30.7201 53.4118 30.8098 53.2437 30.9298 53.0981C31.7657 52.046 32.9733 51.3546 34.3038 51.1662C35.5674 50.9609 36.9211 51.1188 38.2653 51.4458C40.9332 52.0934 43.9771 53.5214 46.8456 54.8704C50.5798 56.6284 55.418 57.3203 56.8996 55.3126C58.0053 53.8168 60.2657 55.42 59.2185 56.957L55.5144 62.397C52.5242 66.4534 45.4177 64.4995 41.9458 62.8646Z"
								fill="black" />
							<path fill-rule="evenodd" clip-rule="evenodd"
								d="M53.7522 58.2988C52.13 56.3544 48.9898 54.4731 45.4878 52.4196C43.7282 51.3882 41.5626 49.8623 39.9767 48.0711C38.4413 46.3335 37.1176 43.9641 38.0085 41.3958L40.599 34.8295C41.2798 33.1014 43.8735 34.0634 43.2638 35.8167C42.4519 38.1545 45.7816 41.7907 49.312 43.8615C52.0463 45.4648 54.9448 47.1691 56.9872 49.003C59.0296 50.8369 60.6297 53.1905 59.7704 55.9879C59.6598 56.3484 59.4105 56.6502 59.0774 56.8269C58.7443 57.0036 58.3547 57.0407 57.9942 56.9301C57.6337 56.8195 57.3319 56.5703 57.1552 56.2371C56.9785 55.904 56.9414 55.5144 57.0519 55.1539C57.4074 53.9992 56.9082 52.7545 55.0869 51.1181C53.302 49.5148 50.6815 47.9589 47.8746 46.313C46.0296 45.2326 43.4296 43.2533 41.8011 40.884L41.4741 40.3611L40.6843 42.3814C39.904 44.6244 43.2117 47.7836 46.9347 49.9634C50.2692 51.9189 53.9307 54.0703 55.9383 56.4744C56.1735 56.7646 56.285 57.1357 56.2487 57.5074C56.2124 57.8792 56.0313 58.2217 55.7445 58.461C55.4577 58.7003 55.0883 58.8171 54.716 58.7861C54.3438 58.7552 53.9987 58.579 53.7554 58.2957L53.7522 58.2988Z"
								fill="black" />
							<path fill-rule="evenodd" clip-rule="evenodd"
								d="M58.5354 46.3602C56.166 46.0649 53.6782 45.1408 51.8332 44.272C48.3929 42.6546 45.3333 41.2424 42.8597 40.8491C42.4872 40.7896 42.1537 40.5846 41.9324 40.2792C41.7111 39.9738 41.6202 39.593 41.6797 39.2206C41.7392 38.8481 41.9442 38.5146 42.2496 38.2933C42.555 38.072 42.9358 37.9811 43.3082 38.0406C46.3094 38.5145 49.8856 40.2141 53.0432 41.7005C56.9605 43.5439 61.415 44.4821 62.8366 42.5693L64.0544 40.7701L63.451 40.7954C60.5809 40.7954 57.4786 39.775 55.5263 38.8557C52.5804 37.4704 49.8161 36.1878 47.4846 35.6207C45.1263 35.0489 43.8042 35.3253 43.0444 36.2809C42.9294 36.4305 42.7857 36.5556 42.6218 36.6491C42.4579 36.7425 42.277 36.8024 42.0897 36.8252C41.9024 36.8481 41.7125 36.8334 41.5309 36.7821C41.3494 36.7307 41.1798 36.6438 41.0322 36.5263C40.8846 36.4087 40.7619 36.263 40.6712 36.0976C40.5805 35.9321 40.5236 35.7503 40.5039 35.5626C40.4842 35.375 40.502 35.1853 40.5563 35.0046C40.6107 34.8239 40.7005 34.6559 40.8204 34.5102C42.6117 32.2578 45.4344 32.1977 48.156 32.858C50.8239 33.5056 53.8677 34.9336 56.7362 36.2825C60.472 38.0406 65.3086 38.7325 66.7903 36.7248C67.896 35.2321 70.1516 36.8275 69.1122 38.366L65.1633 44.2104C63.5506 46.3887 60.87 46.6556 58.5354 46.3602Z"
								fill="black" />
							<path fill-rule="evenodd" clip-rule="evenodd"
								d="M66.5624 37.5351C66.2464 33.632 61.563 29.9863 55.4484 27.1273L55.36 27.0878L53.4313 30.4049C53.3445 30.5784 53.2232 30.7323 53.0747 30.8571C52.9262 30.9819 52.7538 31.075 52.568 31.1307C52.3822 31.1864 52.1869 31.2034 51.9943 31.1808C51.8016 31.1582 51.6157 31.0965 51.4478 30.9993C51.2799 30.9021 51.1337 30.7717 51.0181 30.6159C50.9026 30.4601 50.8201 30.2823 50.7758 30.0934C50.7315 29.9046 50.7264 29.7087 50.7606 29.5178C50.7949 29.3269 50.8679 29.145 50.9751 28.9833L53.5466 24.5605C53.7221 24.2588 54.0024 24.0321 54.3342 23.9238C54.666 23.8154 55.026 23.8329 55.3458 23.9729C61.7825 26.7861 68.8922 31.2389 69.404 37.3108C69.4352 37.6866 69.3159 38.0594 69.0722 38.3472C68.8286 38.635 68.4806 38.8142 68.1048 38.8454C67.729 38.8766 67.3563 38.7573 67.0685 38.5136C66.7807 38.27 66.6015 37.922 66.5703 37.5462L66.5624 37.5351Z"
								fill="black" />
							<path fill-rule="evenodd" clip-rule="evenodd"
								d="M62.9008 39.9044C61.089 36.6394 56.543 33.7204 51.3493 31.4505C51.0104 31.2953 50.7459 31.0132 50.613 30.6649C50.4801 30.3166 50.4892 29.93 50.6386 29.5884C50.7879 29.2468 51.0655 28.9776 51.4115 28.8387C51.7574 28.6998 52.1441 28.7023 52.4882 28.8458C57.7008 31.122 63.0714 34.3538 65.387 38.5255C65.48 38.6889 65.5397 38.8691 65.5626 39.0557C65.5855 39.2423 65.5711 39.4316 65.5203 39.6126C65.4695 39.7937 65.3834 39.9628 65.2668 40.1103C65.1502 40.2578 65.0055 40.3807 64.8411 40.4719C64.6766 40.5631 64.4958 40.6207 64.3089 40.6416C64.1221 40.6624 63.9329 40.6459 63.7525 40.5931C63.572 40.5404 63.4038 40.4523 63.2576 40.3341C63.1114 40.2159 62.9902 40.0698 62.9008 39.9044Z"
								fill="black" />
							<path fill-rule="evenodd" clip-rule="evenodd"
								d="M75.3278 26.6148C73.4129 25.2311 71.9514 23.3107 71.1279 21.0963C70.3045 18.882 70.1562 16.4732 70.7018 14.1746C71.2474 11.876 72.4623 9.79074 74.193 8.18263C75.9237 6.57452 78.0924 5.51574 80.4249 5.14018C82.7573 4.76462 85.1487 5.08915 87.2967 6.07274C89.4447 7.05632 91.2528 8.65478 92.4923 10.666C93.7319 12.6772 94.3471 15.0108 94.2604 17.3716C94.1737 19.7325 93.3888 22.0147 92.005 23.9295C90.1487 26.496 87.3494 28.2205 84.2222 28.724C81.095 29.2275 77.8959 28.4689 75.3278 26.6148ZM89.702 22.2599C90.755 20.8004 91.3517 19.0615 91.4165 17.263C91.4813 15.4644 91.0114 13.6871 90.0661 12.1556C89.1209 10.6241 87.7427 9.40735 86.1059 8.65908C84.4692 7.91082 82.6473 7.6647 80.8706 7.95182C79.094 8.23895 77.4424 9.04643 76.1246 10.2722C74.8069 11.4979 73.8822 13.0869 73.4674 14.8381C73.0527 16.5894 73.1665 18.4243 73.7946 20.1109C74.4226 21.7974 75.5367 23.2599 76.9958 24.3133C78.9524 25.7247 81.3891 26.3018 83.7709 25.918C86.1526 25.5342 88.2847 24.2207 89.6988 22.2662L89.702 22.2599Z"
								fill="black" />
							<path fill-rule="evenodd" clip-rule="evenodd"
								d="M76.8111 60.2751C75.3217 59.1993 74.1848 57.706 73.5441 55.9841C72.9034 54.2622 72.7877 52.3889 73.2116 50.6012C73.6355 48.8135 74.58 47.1916 75.9257 45.9407C77.2714 44.6898 78.9578 43.866 80.7716 43.5735C82.5855 43.2811 84.4453 43.533 86.116 44.2975C87.7867 45.0621 89.1931 46.3049 90.1574 47.8687C91.1218 49.4326 91.6008 51.2473 91.5338 53.0833C91.4668 54.9194 90.8568 56.6943 89.7811 58.1838C88.338 60.1803 86.1611 61.5222 83.729 61.9143C81.2969 62.3065 78.8087 61.7169 76.8111 60.2751ZM87.4765 56.5189C88.2225 55.4852 88.6453 54.2536 88.6914 52.9797C88.7376 51.7058 88.405 50.4468 87.7357 49.3619C87.0665 48.277 86.0905 47.4148 84.9314 46.8845C83.7722 46.3541 82.4818 46.1794 81.2233 46.3823C79.9648 46.5852 78.7948 47.1566 77.861 48.0244C76.9273 48.8922 76.2718 50.0174 75.9774 51.2577C75.683 52.4979 75.763 53.7977 76.2071 54.9925C76.6513 56.1874 77.4398 57.2237 78.4729 57.9705C79.8594 58.9718 81.5868 59.3813 83.2752 59.1091C84.9637 58.8369 86.4749 57.9052 87.4765 56.5189Z"
								fill="black" />
							<path fill-rule="evenodd" clip-rule="evenodd"
								d="M9.28594 24.2909C7.95867 23.3323 6.90833 22.0398 6.24134 20.5446C5.57435 19.0493 5.31439 17.4044 5.4878 15.7763C5.66121 14.1483 6.26183 12.595 7.22881 11.2738C8.19579 9.95256 9.49478 8.9104 10.9942 8.25284C12.4936 7.59528 14.1402 7.34568 15.7671 7.52934C17.394 7.713 18.9435 8.32338 20.2586 9.29867C21.5737 10.274 22.6077 11.5795 23.2558 13.083C23.9039 14.5866 24.1431 16.2347 23.9492 17.8604C23.905 18.2349 23.7138 18.5766 23.4177 18.8101C23.1217 19.0437 22.7449 19.1501 22.3704 19.1059C21.9959 19.0617 21.6542 18.8706 21.4207 18.5745C21.1871 18.2784 21.0807 17.9016 21.1249 17.5271C21.2601 16.3989 21.0947 15.2549 20.6454 14.2111C20.1961 13.1674 19.4789 12.261 18.5664 11.5837C17.6539 10.9065 16.5786 10.4824 15.4495 10.3546C14.3204 10.2268 13.1775 10.3997 12.1368 10.8559C11.096 11.3121 10.1943 12.0352 9.52306 12.9521C8.85181 13.869 8.43486 14.9471 8.31446 16.077C8.19407 17.2069 8.3745 18.3487 8.83748 19.3864C9.30047 20.4242 10.0295 21.3211 10.9508 21.9863C11.2518 22.2088 11.4528 22.5411 11.5103 22.9109C11.5678 23.2808 11.4771 23.6584 11.2579 23.9618C11.0387 24.2652 10.7087 24.4699 10.3396 24.5315C9.97037 24.5931 9.59177 24.5067 9.28594 24.2909Z"
								fill="black" />
							<path fill-rule="evenodd" clip-rule="evenodd"
								d="M86.4281 16.7519C86.158 14.6384 85.1344 13.4774 83.6575 12.6908C83.3246 12.5134 83.0759 12.211 82.966 11.8502C82.8561 11.4894 82.894 11.0997 83.0715 10.7669C83.2489 10.434 83.5513 10.1853 83.9121 10.0754C84.2729 9.96549 84.6626 10.0034 84.9954 10.1808C87.2068 11.356 88.8496 13.2689 89.2492 16.3917C89.2969 16.7658 89.1941 17.1436 88.9634 17.4419C88.8491 17.5896 88.7069 17.7134 88.5448 17.8061C88.3827 17.8988 88.2039 17.9587 88.0187 17.9824C87.6446 18.0301 87.2668 17.9273 86.9685 17.6965C86.6702 17.4658 86.4758 17.126 86.4281 16.7519Z"
								fill="black" />
							<path fill-rule="evenodd" clip-rule="evenodd"
								d="M27.2549 30.4913C26.8995 27.7144 25.5379 26.1649 23.595 25.1302C23.2621 24.9528 23.0134 24.6504 22.9035 24.2896C22.7936 23.9288 22.8315 23.5392 23.009 23.2063C23.1864 22.8735 23.4888 22.6247 23.8496 22.5148C24.2104 22.4049 24.6001 22.4429 24.9329 22.6203C27.604 24.0419 29.5911 26.3449 30.0744 30.1312C30.1128 30.5004 30.0052 30.8701 29.7746 31.161C29.544 31.452 29.2088 31.6412 28.8405 31.6883C28.4723 31.7353 28.1002 31.6364 27.8039 31.4128C27.5076 31.1891 27.3106 30.8584 27.2549 30.4913Z"
								fill="black" />
							<path fill-rule="evenodd" clip-rule="evenodd"
								d="M22.9159 83.4047C22.8947 83.0673 22.7833 82.7418 22.5932 82.4622C22.4031 82.1827 22.1414 81.9593 21.8355 81.8156C21.6653 81.731 21.5138 81.6131 21.39 81.4689C21.2662 81.3248 21.1726 81.1573 21.1146 80.9763C21.0566 80.7953 21.0356 80.6045 21.0526 80.4152C21.0696 80.2259 21.1245 80.042 21.2138 79.8743C21.3032 79.7066 21.4252 79.5585 21.5728 79.4387C21.7204 79.319 21.8905 79.2301 22.073 79.1772C22.2556 79.1243 22.4469 79.1086 22.6356 79.1309C22.8243 79.1533 23.0066 79.2132 23.1718 79.3072C24.4907 80.0086 25.4985 81.1838 25.7354 83.0461C25.7643 83.2337 25.7554 83.4253 25.709 83.6094C25.6627 83.7935 25.58 83.9664 25.4658 84.118C25.3515 84.2697 25.2081 84.3969 25.0439 84.4921C24.8797 84.5874 24.698 84.6488 24.5097 84.6728C24.3214 84.6967 24.1302 84.6827 23.9474 84.6316C23.7645 84.5804 23.5938 84.4932 23.4453 84.375C23.2967 84.2568 23.1733 84.1101 23.0824 83.9434C22.9915 83.7767 22.9349 83.5936 22.9159 83.4047Z"
								fill="black" />
						</svg>