<svg width="77" height="72" viewBox="0 0 77 71" fill="none" xmlns="http://www.w3.org/2000/svg">
					<mask id="path-1-outside-1_175_2445" maskUnits="userSpaceOnUse" x="-1" y="-1" width="79" height="73"
						fill="black">
						<rect fill="white" x="-1" y="-1" width="79" height="73" />
						<path
							d="M29.2 42H44.2C54.7 42 59.5 42.9 59.5 49.7C59.5 56.8 55.4 57.9 49.1 57.9H28C21.8 57.9 16.7 57.5 16.7 51.3H0.6C0.6 64.7 7.9 71 24 71H52C65.4 71 76.1 67 76.1 50.5C76.1 39.4 67.9 35.6 64.6 34.7C70.9 33.3 75 30.9 75 18.2C75 4 64.1 0.799998 51.9 0.799998H24C5.1 0.799998 0.6 13.2 0.6 22.3H16.2C16.2 16.3 21.2 13.9 27.7 13.9H48.1C55.3 13.9 58.4 14.9 58.4 21.2C58.4 27.4 55.6 29.7 48.1 29.7H29.2V42Z" />
					</mask>
					<path
						d="M29.2 42H28.2V43H29.2V42ZM16.7 51.3H17.7V50.3H16.7V51.3ZM0.6 51.3V50.3H-0.4V51.3H0.6ZM64.6 34.7L64.3831 33.7238L64.3369 35.6648L64.6 34.7ZM0.6 22.3H-0.4V23.3H0.6V22.3ZM16.2 22.3V23.3H17.2V22.3H16.2ZM29.2 29.7V28.7H28.2V29.7H29.2ZM29.2 43H44.2V41H29.2V43ZM44.2 43C49.491 43 53.1026 43.2389 55.3941 44.2194C56.4959 44.6908 57.2396 45.3143 57.7247 46.1363C58.2186 46.9733 58.5 48.1106 58.5 49.7H60.5C60.5 47.8894 60.1814 46.3642 59.4472 45.1199C58.7041 43.8607 57.5916 42.9842 56.1809 42.3806C53.4474 41.2111 49.409 41 44.2 41V43ZM58.5 49.7C58.5 53.0522 57.5459 54.7079 56.1226 55.6208C54.5813 56.6093 52.2555 56.9 49.1 56.9V58.9C52.2445 58.9 55.1187 58.6407 57.2024 57.3042C59.4041 55.8921 60.5 53.4478 60.5 49.7H58.5ZM49.1 56.9H28V58.9H49.1V56.9ZM28 56.9C24.8608 56.9 22.2475 56.7864 20.4176 56.0053C19.5378 55.6298 18.8839 55.1162 18.439 54.4124C17.9902 53.7028 17.7 52.7141 17.7 51.3H15.7C15.7 52.9859 16.0473 54.3722 16.7485 55.4813C17.4536 56.5963 18.4622 57.3452 19.6324 57.8447C21.9025 58.8136 24.9392 58.9 28 58.9V56.9ZM16.7 50.3H0.6V52.3H16.7V50.3ZM-0.4 51.3C-0.4 58.1792 1.47948 63.4347 5.61622 66.9381C9.71681 70.4109 15.8503 72 24 72V70C16.0497 70 10.4832 68.4391 6.90878 65.4119C3.37052 62.4153 1.6 57.8208 1.6 51.3H-0.4ZM24 72H52V70H24V72ZM52 72C58.7608 72 65.0432 70.999 69.6507 67.7552C74.3317 64.4596 77.1 58.9868 77.1 50.5H75.1C75.1 58.5132 72.5183 63.2904 68.4993 66.1198C64.4068 69.001 58.6392 70 52 70V72ZM77.1 50.5C77.1 44.6729 74.936 40.6959 72.2928 38.0661C69.6753 35.4619 66.63 34.2171 64.8631 33.7352L64.3369 35.6648C65.87 36.0829 68.5747 37.1881 70.8822 39.4839C73.164 41.7541 75.1 45.2271 75.1 50.5H77.1ZM64.8169 35.6762C68.0154 34.9654 70.918 33.9525 72.9559 31.2962C74.9717 28.6687 76 24.6196 76 18.2H74C74 24.4804 72.9783 27.9813 71.3691 30.0788C69.782 32.1475 67.4847 33.0346 64.3831 33.7238L64.8169 35.6762ZM76 18.2C76 10.7931 73.1272 6.0971 68.5432 3.31973C64.0526 0.598928 58.0491 -0.200003 51.9 -0.200003V1.8C57.9509 1.8 63.4975 2.60107 67.5068 5.03026C71.4228 7.4029 74 11.4069 74 18.2H76ZM51.9 -0.200003H24V1.8H51.9V-0.200003ZM24 -0.200003C14.3131 -0.200003 8.15403 2.98974 4.44037 7.50203C0.757089 11.9774 -0.4 17.608 -0.4 22.3H1.6C1.6 17.892 2.69291 12.7726 5.98463 8.77297C9.24597 4.81026 14.7869 1.8 24 1.8V-0.200003ZM0.6 23.3H16.2V21.3H0.6V23.3ZM17.2 22.3C17.2 19.6291 18.2868 17.8475 20.0602 16.6867C21.8941 15.4863 24.5473 14.9 27.7 14.9V12.9C24.3527 12.9 21.2559 13.5137 18.9648 15.0133C16.6132 16.5525 15.2 18.9709 15.2 22.3H17.2ZM27.7 14.9H48.1V12.9H27.7V14.9ZM48.1 14.9C49.885 14.9 51.3709 14.9626 52.601 15.144C53.8329 15.3257 54.7466 15.6184 55.4234 16.0376C56.6678 16.8084 57.4 18.198 57.4 21.2H59.4C59.4 17.902 58.5822 15.6416 56.4766 14.3374C55.4784 13.7191 54.2671 13.3681 52.8928 13.1654C51.5166 12.9624 49.915 12.9 48.1 12.9V14.9ZM57.4 21.2C57.4 24.1727 56.7277 25.9305 55.4264 27.0034C54.0709 28.1209 51.8005 28.7 48.1 28.7V30.7C51.8995 30.7 54.7791 30.1291 56.6986 28.5466C58.6723 26.9195 59.4 24.4273 59.4 21.2H57.4ZM48.1 28.7H29.2V30.7H48.1V28.7ZM28.2 29.7V42H30.2V29.7H28.2Z"
						fill="#CA354F" mask="url(#path-1-outside-1_175_2445)" />
				</svg>