<svg width="20" height="20" viewBox="0 0 20 20" fill="none" xmlns="http://www.w3.org/2000/svg">
  <path d="M12.6393 6.93067C12.8189 6.62803 12.7218 6.2355 12.4225 6.05392C12.1232 5.87234 11.7349 5.97047 11.5554 6.27311L7.24325 13.5399C7.06367 13.8425 7.16073 14.2351 7.46004 14.4166C7.75936 14.5982 8.14758 14.5001 8.32717 14.1974L12.6393 6.93067Z" fill="black" />
  <path fill-rule="evenodd" clip-rule="evenodd" d="M5.77154 7.66746C5.77154 6.72631 6.52612 5.96335 7.45694 5.96335C8.38776 5.96335 9.14233 6.72631 9.14233 7.66746V8.09349C9.14233 9.03464 8.38776 9.7976 7.45694 9.7976C6.52612 9.7976 5.77154 9.03464 5.77154 8.09349V7.66746ZM8.02154 7.66746V8.09349C8.02154 8.40878 7.76876 8.66437 7.45694 8.66437C7.14511 8.66437 6.89233 8.40878 6.89233 8.09349V7.66746C6.89233 7.35217 7.14511 7.09658 7.45694 7.09658C7.76876 7.09658 8.02154 7.35217 8.02154 7.66746Z" fill="black" />
  <path fill-rule="evenodd" clip-rule="evenodd" d="M12.5131 10.6497C11.5823 10.6497 10.8277 11.4126 10.8277 12.3538V12.7798C10.8277 13.7209 11.5823 14.4839 12.5131 14.4839C13.4439 14.4839 14.1985 13.721 14.1985 12.7798V12.3538C14.1985 11.4126 13.4439 10.6497 12.5131 10.6497ZM13.0777 12.7798V12.3538C13.0777 12.0385 12.825 11.7829 12.5131 11.7829C12.2013 11.7829 11.9485 12.0385 11.9485 12.3538V12.7798C11.9485 13.0951 12.2013 13.3507 12.5131 13.3507C12.825 13.3507 13.0777 13.0951 13.0777 12.7798Z" fill="black" />
  <path fill-rule="evenodd" clip-rule="evenodd" d="M11.9877 0.852773C10.9012 -0.284257 9.09885 -0.284259 8.01226 0.852773L7.37114 1.52366C7.14057 1.76493 6.81301 1.88548 6.483 1.8505L5.56537 1.75326C4.01016 1.58844 2.62951 2.7598 2.51998 4.33702L2.45535 5.26763C2.43211 5.6023 2.25782 5.90754 1.98278 6.09523L1.21802 6.61713C-0.0781278 7.50164 -0.391097 9.29628 0.52768 10.5757L1.06979 11.3306C1.26475 11.6021 1.32528 11.9492 1.23391 12.2717L0.979847 13.1685C0.549256 14.6885 1.45041 16.2667 2.96759 16.6496L3.86277 16.8756C4.18471 16.9568 4.45174 17.1834 4.58679 17.4898L4.96231 18.342C5.59875 19.7862 7.29236 20.4095 8.69804 19.7168L9.52743 19.3081C9.82571 19.1611 10.1743 19.1611 10.4726 19.3081L11.302 19.7168C12.7076 20.4095 14.4013 19.7862 15.0377 18.342L15.4132 17.4898C15.5483 17.1834 15.8153 16.9568 16.1372 16.8756L17.0324 16.6496C18.5496 16.2667 19.4507 14.6885 19.0202 13.1685L18.7661 12.2717C18.6747 11.9492 18.7353 11.6021 18.9302 11.3306L19.4723 10.5757C20.3911 9.29628 20.0781 7.50164 18.782 6.61713L18.0172 6.09523C17.7422 5.90754 17.5679 5.60231 17.5446 5.26763L17.48 4.33702C17.3705 2.7598 15.9898 1.58844 14.4346 1.75326L13.517 1.8505C13.187 1.88548 12.8594 1.76493 12.6289 1.52366L11.9877 0.852773ZM9.2243 2.0369C9.64833 1.59318 10.3517 1.59318 10.7757 2.0369L11.4168 2.70778C12.0077 3.32605 12.847 3.63495 13.6927 3.54533L14.6103 3.44808C15.2172 3.38377 15.756 3.84088 15.7988 4.45638L15.8634 5.38699C15.9229 6.2446 16.3696 7.02677 17.0744 7.50773L17.8391 8.02962C18.3449 8.3748 18.4671 9.07515 18.1085 9.57442L17.5664 10.3293C17.0668 11.025 16.9117 11.9144 17.1458 12.7409L17.3999 13.6378C17.5679 14.2309 17.2163 14.8468 16.6242 14.9962L15.729 15.2222C14.9041 15.4304 14.2198 16.011 13.8737 16.7963L13.4982 17.6484C13.2498 18.212 12.5889 18.4552 12.0404 18.1849L11.211 17.7762C10.4466 17.3995 9.55337 17.3995 8.78903 17.7762L7.95964 18.1849C7.41109 18.4552 6.75017 18.212 6.5018 17.6484L6.12628 16.7963C5.78022 16.011 5.09594 15.4304 4.27097 15.2222L3.37579 14.9962C2.78372 14.8468 2.43205 14.2309 2.60009 13.6378L2.85415 12.7409C3.08829 11.9144 2.93317 11.025 2.43359 10.3293L1.89148 9.57442C1.53293 9.07515 1.65507 8.3748 2.16088 8.02962L2.92564 7.50773C3.63042 7.02677 4.07705 6.2446 4.13661 5.38699L4.20124 4.45638C4.24398 3.84088 4.78277 3.38377 5.38968 3.44808L6.30731 3.54533C7.15296 3.63495 7.99235 3.32605 8.58318 2.70778L9.2243 2.0369Z" fill="black" />
</svg>