<svg width="262" height="55" viewBox="0 0 262 55" fill="none" xmlns="http://www.w3.org/2000/svg">
<path d="M169.93 16.1575C171.607 16.1575 172.738 15.5725 173.154 11.8935L173.518 8.6695H176.521V16.0015H178.042V7.33051H172.153L171.646 11.7895C171.347 14.3505 170.866 14.8055 169.93 14.8055V16.1575ZM187.384 16.0015V14.6625H182.964V12.2575H187.293V10.9185H182.964V8.6695H187.384V7.33051H181.443V16.0015H187.384ZM194.094 16.0015V8.6695H196.72V7.33051H189.947V8.6695H192.573V16.0015H194.094ZM208.849 16.0015C210.474 16.0015 211.371 15.0005 211.371 13.6615C211.371 12.5955 210.617 11.6725 209.694 11.5295C210.5 11.3605 211.202 10.6325 211.202 9.5405C211.202 8.3185 210.318 7.33051 208.732 7.33051H204.468V16.0015H208.849ZM208.42 10.9185H205.989V8.6695H208.42C209.2 8.6695 209.642 9.15051 209.642 9.80051C209.642 10.4505 209.2 10.9185 208.42 10.9185ZM208.485 14.6625H205.989V12.2575H208.485C209.356 12.2575 209.811 12.8035 209.811 13.4535C209.811 14.2075 209.317 14.6625 208.485 14.6625ZM223.467 16.0015V7.33051H221.322L218.956 13.0375L216.603 7.33051H214.458V16.0015H215.979V9.56651L218.631 16.0015H219.281L221.946 9.56651V16.0015H223.467ZM232.813 16.0015V14.6625H228.393V12.2575H232.722V10.9185H228.393V8.6695H232.813V7.33051H226.872V16.0015H232.813ZM240.095 16.1575C241.85 16.1575 242.916 15.2475 243.579 14.2075L242.279 13.5445C241.863 14.2725 241.031 14.8055 240.095 14.8055C238.379 14.8055 237.105 13.4925 237.105 11.6725C237.105 9.8525 238.379 8.53951 240.095 8.53951C241.031 8.53951 241.863 9.08551 242.279 9.80051L243.579 9.1375C242.929 8.0975 241.85 7.1875 240.095 7.1875C237.534 7.1875 235.545 9.0075 235.545 11.6725C235.545 14.3375 237.534 16.1575 240.095 16.1575ZM249.944 16.0015V8.6695H252.57V7.33051H245.797V8.6695H248.423V16.0015H249.944ZM261.36 16.0015V14.6625H256.94V12.2575H261.269V10.9185H256.94V8.6695H261.36V7.33051H255.419V16.0015H261.36Z" fill="#FFAF27"/>
<path d="M161.978 11.968C162.832 7.7824 160.311 5.1363 156.713 4.4015C153.116 3.6667 149.73 5.2532 148.956 9.039C148.284 12.3311 150.396 14.9425 153.288 15.5333C153.947 15.6678 154.634 15.6611 155.063 15.4793L155.1 15.536C153.744 16.9001 151.224 18.5655 148.762 19.8263L152.018 22.2306C156 20.1288 161.118 16.1771 161.978 11.968ZM158.071 10.8271C157.768 12.3085 156.513 13.1789 154.961 12.8619C153.409 12.5449 152.623 11.2332 152.916 9.7988C153.224 8.2939 154.484 7.4 156.036 7.717C157.565 8.0292 158.364 9.3927 158.071 10.8271Z" fill="#FFAF27"/>
<path d="M18.8576 54.5835C15.4076 54.5835 12.2076 53.8835 9.4876 52.4635C4.83758 50.0335 1.76759 45.5635 0.607588 39.5135C-0.632416 33.0135 0.0375876 25.8735 2.50759 19.3935C5.07759 12.6435 9.4676 7.09349 14.8676 3.76349C19.7276 0.763455 25.7976 -0.506545 31.9576 0.183455C38.0876 0.873455 43.7376 3.43349 47.8476 7.41349C55.0476 14.3635 56.5276 23.2935 52.0176 32.5535C48.3376 40.1335 40.8976 47.2935 32.6076 51.2435C27.9676 53.4635 23.2176 54.5835 18.8576 54.5835ZM28.6876 1.34345C23.9176 1.34345 19.3476 2.57345 15.5476 4.91349C10.3876 8.09349 6.18759 13.4135 3.72759 19.8835C1.35759 26.1235 0.707587 33.0035 1.89759 39.2535C2.98759 44.9635 5.73759 49.0035 10.0776 51.2635C15.7876 54.2435 24.2076 53.7635 32.0476 50.0235C40.0776 46.1935 47.2776 39.2635 50.8476 31.9435C53.8376 25.8035 55.5976 16.7235 46.9476 8.3835C43.0376 4.6135 37.6576 2.17345 31.8076 1.51346C30.7776 1.40346 29.7276 1.34345 28.6876 1.34345ZM18.6476 52.7835C15.5776 52.7835 12.7276 52.1535 10.3076 50.8935C6.18759 48.7435 3.46759 44.7735 2.43759 39.4335C1.33759 33.6935 1.91759 27.3735 4.07759 21.6335C4.69759 19.9935 5.43759 18.4135 6.28759 16.9235C8.52759 13.0335 11.5476 9.82349 15.0176 7.66349C19.3376 4.96349 24.7376 3.80349 30.2076 4.38349C35.6376 4.9735 40.6476 7.22349 44.2976 10.7335C47.6776 13.9835 49.6376 17.6835 50.1476 21.7335C50.5976 25.3135 49.8976 29.1035 48.0776 32.9835C44.8276 39.9035 38.1876 46.3735 30.7476 49.8635C26.6676 51.8035 22.4876 52.7835 18.6476 52.7835ZM27.4476 5.44349C23.1676 5.44349 19.0476 6.56349 15.6476 8.69349C12.3376 10.7535 9.4576 13.8135 7.31759 17.5335C6.49759 18.9535 5.77759 20.4835 5.18759 22.0635C3.09759 27.5935 2.52759 33.6735 3.59759 39.1935C4.56759 44.2335 7.00759 47.8135 10.8476 49.8135C15.9676 52.4935 23.2276 52.0935 30.2676 48.7635C37.3576 45.4335 43.9376 39.0335 47.0276 32.4535C49.6076 26.9735 51.0776 18.9035 43.4976 11.6135C40.0276 8.2835 35.2676 6.14349 30.0876 5.58349C29.2076 5.49349 28.3176 5.44349 27.4476 5.44349ZM18.4276 50.9635C15.7276 50.9635 13.2176 50.4135 11.0976 49.3035C7.52759 47.4235 5.15759 43.9835 4.25759 39.3535C3.28759 34.3735 3.77759 28.8735 5.64759 23.8635C6.17759 22.4235 6.82759 21.0335 7.56759 19.7235C9.5076 16.3035 12.1376 13.4735 15.1776 11.5535C18.9576 9.15349 23.6776 8.1035 28.4676 8.5835C33.2076 9.07349 37.5676 11.0235 40.7576 14.0635C47.7376 20.7435 46.4576 28.2735 44.1576 33.4135C41.3676 39.6335 35.5276 45.4035 28.9176 48.4735C25.3676 50.1335 21.7476 50.9635 18.4276 50.9635ZM26.1976 9.5435C22.3976 9.5435 18.7476 10.5535 15.7276 12.4635C12.8376 14.2935 10.3276 16.9835 8.47759 20.2535C7.76759 21.5035 7.14759 22.8435 6.63759 24.2335C4.83759 29.0535 4.36759 34.3435 5.29759 39.1335C6.14759 43.4935 8.26759 46.5935 11.5876 48.3435C16.0276 50.6735 22.3476 50.3635 28.4876 47.5035C34.8876 44.5335 40.5276 38.9635 43.2076 32.9735C45.3676 28.1535 46.5776 21.0935 40.0476 14.8535C37.0276 11.9735 32.8776 10.1235 28.3676 9.6635C27.6376 9.5835 26.9176 9.5435 26.1976 9.5435ZM18.2076 49.1535C15.8776 49.1535 13.7176 48.6735 11.8976 47.7135C8.86759 46.1135 6.85759 43.1935 6.07759 39.2635C5.24759 35.0435 5.64759 30.3635 7.21759 26.0935C7.66759 24.8535 8.20759 23.6535 8.83759 22.5235C10.4776 19.5735 12.7176 17.1235 15.3176 15.4535C18.5676 13.3435 22.6176 12.4035 26.7176 12.7935C30.7476 13.1735 34.4676 14.8135 37.2076 17.3935C41.8476 21.8135 42.8876 27.5035 40.2176 33.8535C37.8876 39.3835 32.8476 44.4635 27.0576 47.1035C24.0676 48.4635 21.0176 49.1535 18.2076 49.1535ZM24.9276 13.6435C21.6276 13.6435 18.4476 14.5435 15.8176 16.2435C13.3476 17.8335 11.2076 20.1735 9.6376 22.9835C9.0376 24.0735 8.50759 25.2235 8.07759 26.4135C6.56759 30.5235 6.17759 35.0235 6.97759 39.0735C7.70759 42.7635 9.5076 45.3935 12.3176 46.8835C16.0776 48.8635 21.4476 48.6235 26.6876 46.2435C32.1876 43.7335 37.1676 38.7335 39.3776 33.4835C41.9176 27.4435 40.9776 22.2635 36.5876 18.0835C33.9976 15.6335 30.4676 14.0935 26.6376 13.7235C26.0676 13.6735 25.4976 13.6435 24.9276 13.6435ZM17.9976 47.3435C16.0376 47.3435 14.2276 46.9435 12.7176 46.1335C10.2276 44.8035 8.56759 42.4035 7.90759 39.1735C7.20759 35.7235 7.52759 31.8735 8.78759 28.3135C9.1576 27.2635 9.6076 26.2535 10.1176 25.3135C11.4576 22.8335 13.3176 20.7635 15.4776 19.3335C18.1976 17.5235 21.5676 16.6835 24.9776 16.9735C28.3176 17.2535 31.3976 18.5735 33.6676 20.7035C37.4976 24.2935 38.3776 28.8535 36.2876 34.2735C34.4176 39.1235 30.1776 43.5035 25.2176 45.7035C22.7676 46.8035 20.2776 47.3435 17.9976 47.3435ZM23.6676 17.7335C20.8676 17.7335 18.1476 18.5235 15.9076 20.0135C13.8476 21.3735 12.0876 23.3435 10.8076 25.7035C10.3176 26.6035 9.8876 27.5735 9.5376 28.5835C8.30759 32.0135 8.00759 35.7135 8.67759 39.0135C9.2876 42.0335 10.7676 44.1935 13.0776 45.4235C16.1576 47.0635 20.5776 46.8935 24.9076 44.9735C29.6076 42.8835 33.7876 38.5735 35.5576 33.9935C37.5076 28.9135 36.6976 24.6535 33.1376 21.3135C30.9976 19.3135 28.0776 18.0635 24.9176 17.7935C24.4976 17.7535 24.0776 17.7335 23.6676 17.7335ZM17.7876 45.5435C16.2076 45.5435 14.7376 45.2135 13.5276 44.5635C11.5476 43.4935 10.2676 41.6635 9.7276 39.1035C9.1676 36.4235 9.3876 33.3835 10.3576 30.5635C10.6476 29.7135 10.9976 28.8935 11.3876 28.1335C12.4276 26.1335 13.8876 24.4435 15.6276 23.2535C17.8176 21.7435 20.5176 21.0135 23.2276 21.2035C25.8676 21.3835 28.3176 22.3935 30.1176 24.0535C33.1076 26.8135 33.8376 30.3035 32.3476 34.7335C30.9476 38.9035 27.5076 42.5835 23.3676 44.3435C21.4676 45.1335 19.5576 45.5435 17.7876 45.5435ZM22.3976 21.8335C20.0976 21.8335 17.8476 22.5235 15.9876 23.8035C14.3476 24.9335 12.9476 26.5435 11.9676 28.4435C11.5876 29.1735 11.2576 29.9535 10.9776 30.7735C10.0476 33.4835 9.8376 36.3935 10.3676 38.9535C10.8576 41.3135 12.0276 42.9935 13.8276 43.9635C16.2276 45.2535 19.6976 45.1535 23.1076 43.7035C27.0776 42.0135 30.3776 38.4835 31.7276 34.4935C33.1176 30.3435 32.4476 27.0835 29.6776 24.5335C27.9876 22.9735 25.6776 22.0235 23.1876 21.8535C22.9176 21.8435 22.6576 21.8335 22.3976 21.8335ZM17.5876 43.7435C16.3776 43.7435 15.2576 43.4935 14.3476 42.9935C12.9076 42.2035 11.9676 40.8635 11.5576 39.0135C11.1376 37.0935 11.2676 34.8735 11.9276 32.7835C12.1376 32.1335 12.3776 31.5035 12.6576 30.9235C13.3976 29.3935 14.4776 28.0835 15.7676 27.1335C17.4176 25.9235 19.4376 25.3035 21.4676 25.3835C23.4076 25.4635 25.2176 26.1635 26.5576 27.3635C28.7076 29.2835 29.2976 31.7635 28.3976 35.1535C27.4776 38.6435 24.8376 41.6235 21.4976 42.9435C20.1776 43.4735 18.8376 43.7435 17.5876 43.7435ZM21.1176 25.9235C19.3176 25.9235 17.5376 26.5035 16.0776 27.5835C14.8476 28.4835 13.8276 29.7235 13.1276 31.1735C12.8576 31.7335 12.6176 32.3335 12.4276 32.9635C11.7876 34.9635 11.6676 37.0735 12.0676 38.9135C12.4376 40.6035 13.2876 41.8235 14.5976 42.5335C16.3276 43.4735 18.8376 43.4535 21.3276 42.4635C24.5076 41.2035 27.0276 38.3535 27.9076 35.0335C28.7476 31.8635 28.2076 29.5635 26.2276 27.7935C24.9776 26.6735 23.2876 26.0235 21.4576 25.9435C21.3476 25.9235 21.2276 25.9235 21.1176 25.9235ZM17.4076 41.9635C16.5776 41.9635 15.8176 41.7835 15.1876 41.4335C14.2776 40.9235 13.6676 40.0835 13.3776 38.9335C13.0876 37.7435 13.1276 36.3935 13.4976 35.0235C13.6176 34.5735 13.7676 34.1435 13.9376 33.7335C14.3776 32.6735 15.0676 31.7435 15.9276 31.0435C17.0276 30.1335 18.3776 29.6235 19.7276 29.6035C20.9776 29.5835 22.1376 29.9735 23.0176 30.7035C24.7476 32.1435 24.6776 34.1835 24.4776 35.5935C24.0776 38.3635 22.1876 40.7135 19.6676 41.5735C18.8876 41.8335 18.1276 41.9635 17.4076 41.9635ZM19.7276 29.9935C18.4676 30.0135 17.1976 30.4935 16.1676 31.3535C15.3576 32.0235 14.7076 32.9035 14.2976 33.8935C14.1376 34.2835 13.9976 34.6935 13.8776 35.1335C13.5276 36.4435 13.4876 37.7235 13.7576 38.8435C14.0176 39.8835 14.5576 40.6335 15.3776 41.0935C16.4576 41.6935 17.9776 41.7335 19.5376 41.1935C21.9176 40.3735 23.6976 38.1535 24.0776 35.5335C24.3876 33.4235 23.9776 32.0235 22.7576 31.0135C21.9676 30.3335 20.8876 29.9735 19.7276 29.9935ZM17.2676 40.2335C16.6576 40.2335 16.1076 40.0235 15.7176 39.6435C15.3376 39.2735 14.9076 38.5535 15.0776 37.2635C15.1076 37.0335 15.1576 36.7935 15.2176 36.5435C15.5676 35.1835 16.7076 34.0535 17.9776 33.8035C18.6076 33.6735 19.1676 33.7835 19.6176 34.1235C20.1276 34.5035 20.4376 35.1635 20.5376 36.0235C20.7976 38.3735 19.3676 39.8935 17.8176 40.1935C17.6176 40.2235 17.4376 40.2335 17.2676 40.2335ZM15.3276 37.2935C15.2076 38.2335 15.4076 38.9735 15.8976 39.4535C16.3476 39.8935 17.0376 40.0635 17.7676 39.9235C19.6576 39.5635 20.4576 37.7035 20.2776 36.0435C20.1876 35.2535 19.9076 34.6635 19.4676 34.3335C19.0776 34.0435 18.5876 33.9535 18.0276 34.0635C16.8476 34.3035 15.7976 35.3435 15.4676 36.6135C15.3976 36.8435 15.3476 37.0735 15.3276 37.2935Z" fill="black"/>
<path d="M75.3286 5.09375H72.0586V26.9238H75.3286V5.09375Z" fill="black"/>
<path d="M98.7979 17.8038L104.058 26.9238H101.708C100.928 26.9238 100.208 26.5038 99.8183 25.8338L95.4079 18.1937H87.8579V26.9238H84.5879V5.09375H85.6779H87.8579H96.5779C100.188 5.09375 103.118 8.02375 103.118 11.6438C103.128 14.4838 101.328 16.8938 98.7979 17.8038ZM87.8679 16.0038H95.4979C97.8979 16.0038 99.8583 14.0437 99.8583 11.6337C99.8583 9.22375 97.8979 7.26375 95.4979 7.26375H87.8679V16.0038Z" fill="black"/>
<path d="M116.519 22.4928C112.939 18.9128 112.939 13.1028 116.519 9.52276C120.099 5.94276 125.239 5.94276 128.819 9.52276L131.019 7.98266C126.589 3.55266 118.319 3.55266 113.899 7.98266C109.469 12.4127 109.469 19.6028 113.899 24.0428C118.329 28.4728 126.599 28.4728 131.019 24.0428L128.819 22.5028C125.239 26.0728 120.089 26.0728 116.519 22.4928Z" fill="black"/>
<path d="M129.338 44.3945H123.498V45.2045L128.208 45.2145L124.418 49.8545H125.528L129.318 45.2145V44.3945H129.338Z" fill="black"/>
<path d="M77.9686 49.0234H73.1986C73.4386 48.5334 73.9086 48.1734 74.6086 47.9434C75.3486 47.7434 75.9086 47.6034 76.2886 47.5234C77.3086 47.2534 77.8286 46.7534 77.8286 46.0234C77.8286 45.5134 77.5886 45.0934 77.1086 44.7634C76.6286 44.4334 75.9986 44.2734 75.2386 44.2734C74.1986 44.2734 73.2286 44.6034 72.3386 45.2534L72.9486 45.8634C73.6286 45.3434 74.3886 45.0934 75.2186 45.0934C75.7086 45.0934 76.0986 45.1734 76.3686 45.3334C76.6486 45.4934 76.7786 45.7034 76.7786 45.9634C76.7786 46.2134 76.6386 46.4134 76.3586 46.5534C76.1786 46.6534 75.8986 46.7434 75.5286 46.8434C74.8586 47.0134 74.5086 47.1034 74.4786 47.1134C72.9286 47.5734 72.1286 48.4734 72.0586 49.8434H77.9686V49.0234Z" fill="black"/>
<path d="M103.638 47.9645H102.308V44.3945H101.348L97.5176 47.9645V48.7745H101.348V49.8445H102.308V48.7745H103.638V47.9645ZM98.5476 47.9545L101.348 45.3345V47.9645L98.5476 47.9545Z" fill="black"/>
</svg>
